<svg width="256" height="256" xmlns="http://www.w3.org/2000/svg">
<g stroke="black" fill="transparent" stroke-width="4">
<path d="M 97 61 L 90 70 L 86 83 L 85 100 L 90 111 L 93 112 L 96 109 L 100 94 L 99 64"/>
<path d="M 88 114 L 77 123 L 75 141 L 81 161 L 89 174 L 93 174 L 106 163 L 114 138 L 105 125 L 86 113 L 82 115"/>
<path d="M 84 176 L 73 191 L 67 205 L 66 241 L 73 255 L 91 254 L 99 250 L 109 235 L 114 211 L 113 191 L 81 159"/>
<path d="M 71 88 L 71 90"/>
<path d="M 74 90 L 74 96"/>
<path d="M 76 114 L 73 102 L 53 83 L 45 82 L 43 88"/>
<path d="M 74 161 L 55 160 L 36 163 L 24 168 L 19 174"/>
<path d="M 67 201 L 11 203 L 0 216"/>
<path d="M 122 213 L 140 222 L 134 225"/>
<path d="M 118 171 L 129 176 L 135 188"/>
<path d="M 114 133 L 154 136 L 157 144"/>
<path d="M 91 50 L 60 13 L 43 0"/>
<path d="M 100 58 L 142 33"/>
</g>
</svg>
