<svg width="256" height="256" xmlns="http://www.w3.org/2000/svg">
<g stroke="black" fill="transparent" stroke-width="4">
<path d="M 89 73 L 83 98 L 83 119 L 86 132 L 92 137 L 110 146 L 133 148 L 144 136 L 149 119 L 148 100 L 137 38 L 130 34 L 108 30 L 86 31 L 75 49 L 81 100 L 87 117"/>
<path d="M 90 27 L 81 6 L 76 2 L 69 17 L 69 40"/>
<path d="M 116 21 L 119 22 L 155 0 L 156 11 L 147 47"/>
<path d="M 145 72 L 151 73 L 176 66 L 201 52 L 207 46 L 217 26 L 255 88 L 232 72 L 220 67 L 219 77 L 232 130 L 216 115 L 186 99 L 186 116 L 192 148 L 155 112 L 154 143 L 141 124"/>
<path d="M 78 79 L 64 85 L 52 85 L 20 69 L 9 56 L 0 130 L 22 96 L 30 137 L 50 111 L 68 142 L 81 111 L 85 106 L 88 113"/>
<path d="M 97 54 L 100 51 L 96 57 L 102 59 L 103 52 L 98 56"/>
<path d="M 116 53 L 112 60"/>
</g>
</svg>
