<svg width="256" height="256" xmlns="http://www.w3.org/2000/svg">
<g stroke="black" fill="transparent" stroke-width="4">
<path d="M 89 221 L 70 170 L 65 136 L 72 110 L 86 98 L 90 99 L 92 109 L 99 178 L 108 213"/>
<path d="M 90 220 L 80 222 L 66 232 L 60 242 L 65 250 L 75 254 L 85 254 L 99 246 L 108 237 L 117 247 L 129 245 L 141 236 L 146 226 L 109 210"/>
<path d="M 53 46 L 54 36 L 51 29 L 30 14 L 16 13 L 7 23 L 5 32 L 6 51 L 13 63 L 29 71 L 46 72"/>
<path d="M 109 45 L 111 18 L 121 3 L 127 0 L 142 3 L 156 16 L 162 33 L 158 50 L 143 66 L 126 74"/>
<path d="M 66 62 L 68 73 L 72 74 L 76 63 L 73 60 L 71 62"/>
<path d="M 96 77 L 99 79 L 101 72 L 91 67"/>
<path d="M 85 19 L 79 22 L 62 45 L 44 73 L 37 95 L 41 107 L 62 113 L 77 111 L 104 98 L 115 89 L 130 70 L 131 53 L 125 44 L 112 37 L 82 37 L 68 48"/>
<path d="M 58 111 L 51 122 L 49 140 L 51 163 L 57 188 L 68 207 L 75 212 L 85 216 L 104 216 L 119 206 L 127 196 L 136 178 L 140 153 L 136 119 L 126 97 L 119 92 L 110 92 L 106 95"/>
<path d="M 46 122 L 10 138 L 2 146 L 0 152 L 13 156 L 22 153 L 49 138"/>
<path d="M 141 106 L 146 100 L 162 95 L 171 96 L 173 103 L 157 127 L 141 139"/>
</g>
</svg>
