<svg width="256" height="256" xmlns="http://www.w3.org/2000/svg">
<g stroke="black" fill="transparent" stroke-width="4">
<path d="M 168 125 L 141 118 L 99 113 L 70 113 L 50 119 L 25 131 L 12 148 L 2 164 L 0 193 L 21 214 L 50 224 L 110 225 L 146 215 L 172 200 L 186 185 L 191 172 L 192 145 L 182 130 L 167 119"/>
<path d="M 39 131 L 44 131 L 53 138 L 68 165 L 69 192 L 59 213"/>
<path d="M 35 152 L 33 159"/>
<path d="M 38 243 L 32 248 L 7 252"/>
<path d="M 86 234 L 85 243 L 68 255"/>
<path d="M 128 228 L 132 240 L 124 249"/>
<path d="M 166 216 L 169 228 L 167 239 L 158 244"/>
<path d="M 188 204 L 192 212 L 191 231"/>
<path d="M 195 190 L 201 198 L 204 210"/>
<path d="M 89 123 L 97 128 L 103 140 L 109 164 L 109 192 L 103 215"/>
<path d="M 126 130 L 141 151 L 145 174 L 142 200 L 134 216"/>
<path d="M 167 130 L 172 155 L 173 193"/>
<path d="M 198 146 L 224 148"/>
<path d="M 90 116 L 60 77 L 50 53 L 44 31 L 46 11 L 59 10 L 70 16 L 87 28 L 95 38 L 110 65 L 114 76 L 115 114 L 124 45 L 134 17 L 148 1 L 167 0 L 173 4 L 179 17 L 181 55 L 176 72 L 134 131"/>
</g>
</svg>
