<svg width="256" height="256" xmlns="http://www.w3.org/2000/svg">
<g stroke="black" fill="transparent" stroke-width="4">
<path d="M 0 54 L 37 70 L 40 76 L 14 94 L 4 106 L 5 68 L 8 64 L 2 48 L 6 35 L 13 24 L 25 11 L 48 1 L 65 1 L 82 6 L 94 18 L 100 36 L 98 62 L 86 89 L 93 111 L 103 123 L 109 126 L 134 129 L 144 121 L 153 102 L 158 101 L 167 110 L 174 129 L 172 153 L 165 168 L 144 185 L 114 191 L 71 181 L 62 176 L 55 169 L 50 155 L 50 141 L 58 115 L 57 106 L 51 93 L 39 84"/>
<path d="M 68 186 L 46 221 L 60 213 L 65 214 L 74 234 L 70 225 L 63 219 L 58 226 L 60 234 L 65 236"/>
<path d="M 55 46 L 53 45"/>
<path d="M 131 203 L 127 225 L 121 235 L 111 242 L 138 232 L 147 239 L 135 232 L 137 255"/>
</g>
</svg>
