<svg width="256" height="256" xmlns="http://www.w3.org/2000/svg">
<g stroke="black" fill="transparent" stroke-width="4">
<path d="M 108 221 L 88 168 L 79 125 L 77 97 L 78 88 L 89 88 L 106 111 L 120 163 L 123 204 L 120 212 L 103 210"/>
<path d="M 106 88 L 109 49 L 119 23 L 125 14 L 144 2 L 168 0 L 179 9 L 176 35 L 159 77 L 136 103 L 142 98 L 170 88 L 207 85 L 216 89 L 223 105 L 222 146 L 208 180 L 192 192 L 183 194 L 164 194 L 143 189"/>
<path d="M 80 98 L 57 61 L 39 45 L 26 42 L 12 57 L 0 99 L 3 120 L 11 138 L 35 156 L 50 160 L 67 160 L 59 156 L 34 155 L 22 162 L 14 184 L 15 220 L 25 237 L 35 246 L 59 254 L 78 255 L 87 250 L 95 239 L 103 207"/>
<path d="M 97 122 L 94 113 L 93 82 L 98 35"/>
</g>
</svg>
