<svg width="256" height="256" xmlns="http://www.w3.org/2000/svg">
<g stroke="black" fill="transparent" stroke-width="4">
<path d="M 69 92 L 72 142 L 76 145 L 101 144 L 100 115 L 96 90 L 118 90 L 116 126 L 121 141 L 129 136 L 150 133 L 138 103 L 137 89 L 168 90 L 170 117 L 174 125 L 182 130 L 205 129 L 201 102 L 204 89 L 227 89 L 230 115 L 233 117 L 240 116 L 254 88 L 253 44 L 244 24 L 223 10 L 196 10 L 184 20 L 172 39 L 162 20 L 149 6 L 131 0 L 110 0 L 82 14 L 72 27 L 69 41 L 60 29 L 36 7 L 26 3 L 12 5 L 2 14 L 1 34 L 38 38 L 43 65 L 58 92 L 68 97 L 86 98"/>
<path d="M 0 26 L 24 24"/>
<path d="M 16 9 L 16 9"/>
</g>
</svg>
