<svg width="256" height="256" xmlns="http://www.w3.org/2000/svg">
<g stroke="black" fill="transparent" stroke-width="4">
<path d="M 143 7 L 140 3 L 133 1 L 112 2 L 98 7 L 83 20 L 66 56 L 64 86 L 68 100 L 89 130 L 111 143 L 136 149 L 160 149 L 174 146 L 209 131 L 233 113 L 239 99 L 241 75 L 237 61 L 228 49 L 207 29 L 182 14 L 158 4 L 140 0"/>
<path d="M 105 28 L 108 51 L 115 51 L 116 48 L 117 40 L 106 24"/>
<path d="M 165 30 L 167 53 L 173 47 L 175 39 L 169 32"/>
<path d="M 150 66 L 143 80"/>
<path d="M 151 64 L 162 81 L 147 89 L 144 83"/>
<path d="M 139 104 L 146 107 L 153 101 L 170 106 L 178 100 L 176 95"/>
<path d="M 104 88 L 59 81 L 2 78 L 0 81"/>
<path d="M 70 99 L 1 149"/>
<path d="M 102 116 L 90 158 L 92 158"/>
<path d="M 199 65 L 248 28"/>
<path d="M 209 101 L 227 101 L 254 115"/>
<path d="M 188 119 L 212 176"/>
<path d="M 170 40 L 169 33"/>
</g>
</svg>
