<svg width="256" height="256" xmlns="http://www.w3.org/2000/svg">
<g stroke="black" fill="transparent" stroke-width="4">
<path d="M 72 54 L 59 53 L 42 60 L 18 82 L 8 96 L 9 108 L 24 118 L 28 126 L 30 156 L 21 165 L 0 167 L 14 176 L 30 174 L 43 167 L 45 156 L 40 121 L 28 102 L 28 90 L 44 76 L 53 73 L 64 75"/>
<path d="M 78 49 L 80 46 L 115 46 L 156 48 L 190 54 L 185 36 L 184 12 L 190 3 L 195 0 L 200 20 L 231 34 L 249 57 L 252 80 L 248 110 L 255 135 L 243 145 L 217 147 L 200 142 L 190 132 L 189 123 L 205 107 L 222 101 L 250 104"/>
<path d="M 216 118 L 216 118"/>
<path d="M 235 117 L 235 117"/>
<path d="M 215 133 L 210 130 L 211 126 L 218 124 L 219 127"/>
<path d="M 242 129 L 237 130 L 235 126 L 242 124 L 243 126 L 240 128"/>
<path d="M 247 79 L 233 82 L 225 75 L 229 62 L 246 49"/>
<path d="M 245 68 L 247 64 L 249 66 L 245 68"/>
<path d="M 192 133 L 189 131 L 188 119 L 190 98"/>
<path d="M 190 99 L 182 119 L 180 167 L 175 175 L 158 177 L 151 173 L 149 153 L 152 134 L 144 125 L 138 127 L 132 138 L 137 167 L 136 178 L 123 180 L 115 173 L 108 162 L 103 141 L 95 147 L 92 167 L 87 175 L 79 176 L 73 169 L 70 142 L 57 170 L 48 174 L 43 165 L 41 150 L 62 99 L 65 59"/>
<path d="M 102 116 L 102 96 L 112 87 L 128 87 L 134 98 L 131 103 L 123 106 L 103 107"/>
<path d="M 182 101 L 166 94 L 167 82 L 172 76 L 188 72 L 192 76 L 192 86 L 181 97"/>
<path d="M 96 75 L 93 70 L 94 63 L 104 58 L 114 59 L 116 66 L 102 73 L 84 76 L 83 71"/>
<path d="M 59 139 L 59 139"/>
</g>
</svg>
