<svg width="256" height="256" xmlns="http://www.w3.org/2000/svg">
<g stroke="black" fill="transparent" stroke-width="4">
<path d="M 66 109 L 81 84 L 80 104 L 87 110 L 165 106 L 167 90 L 175 100 L 178 110 L 199 123 L 209 146 L 206 161 L 195 181 L 180 193 L 163 199 L 130 199 L 52 183 L 31 171 L 30 155 L 46 119 L 65 102"/>
<path d="M 35 169 L 18 206"/>
<path d="M 24 164 L 0 179"/>
<path d="M 32 133 L 10 140 L 0 146"/>
<path d="M 180 192 L 200 213"/>
<path d="M 201 176 L 219 191"/>
<path d="M 212 149 L 255 194"/>
<path d="M 199 126 L 211 115 L 219 96 L 218 75 L 212 55 L 197 39 L 187 21 L 177 14 L 153 10 L 134 15 L 165 22 L 182 29 L 142 32 L 157 40 L 188 48 L 202 64 L 213 82 L 217 96 L 210 118 L 203 123"/>
<path d="M 63 102 L 50 77 L 52 57 L 63 41 L 82 31 L 120 35 L 120 29 L 113 24 L 91 18 L 114 2 L 94 0 L 55 15 L 73 20 L 46 39 L 31 64 L 31 85 L 46 116 L 56 126 L 66 131 L 71 126 L 72 117"/>
<path d="M 78 84 L 76 71 L 80 68 L 83 70 L 82 75 L 77 79"/>
<path d="M 164 89 L 157 73 L 161 66 L 168 62 L 175 64 L 179 77 L 173 85 L 166 89"/>
<path d="M 80 66 L 88 65 L 87 73 L 80 78 L 75 76 L 78 70 L 83 69 L 83 79 L 80 72 L 81 70 L 83 73"/>
<path d="M 164 75 L 170 78 L 169 72 L 171 76 L 164 89"/>
</g>
</svg>
