<svg width="256" height="256" xmlns="http://www.w3.org/2000/svg">
<g stroke="black" fill="transparent" stroke-width="4">
<path d="M 156 41 L 216 2 L 223 0 L 229 8 L 227 17 L 182 51 L 245 50 L 253 54 L 253 62 L 242 69 L 140 66"/>
<path d="M 165 32 L 151 33 L 114 26 L 79 25 L 47 35 L 31 48 L 23 49 L 14 42 L 4 16 L 0 48 L 5 57 L 15 65 L 118 64 L 160 60"/>
<path d="M 63 63 L 60 71 L 63 74 L 76 74 L 82 66"/>
<path d="M 121 61 L 121 71 L 138 73 L 140 64"/>
<path d="M 198 42 L 204 46 L 208 44 L 211 37 L 223 40 L 224 32 L 233 36 L 232 30 L 244 36 L 232 14"/>
<path d="M 212 55 L 239 42 L 238 45 L 241 46 L 253 41 L 248 49 L 255 46 L 253 50"/>
</g>
</svg>
