<svg width="256" height="256" xmlns="http://www.w3.org/2000/svg">
<g stroke="black" fill="transparent" stroke-width="4">
<path d="M 94 68 L 97 17 L 112 42 L 126 51 L 156 38 L 179 38 L 180 0 L 185 5 L 206 41 L 231 62 L 253 87 L 254 114 L 236 141 L 223 148 L 194 148 L 167 139 L 141 122 L 108 91 L 98 79 L 95 67"/>
<path d="M 154 79 L 158 82 L 161 74 L 155 80"/>
<path d="M 196 117 L 198 121 L 213 125 L 232 124 L 249 107"/>
<path d="M 242 112 L 237 95 L 232 92 L 220 93 L 202 106"/>
<path d="M 211 103 L 194 121"/>
<path d="M 96 83 L 72 83 L 24 91 L 7 99 L 2 105"/>
<path d="M 171 143 L 146 166 L 123 175 L 98 181 L 7 182 L 0 178"/>
<path d="M 23 188 L 19 207 L 19 235 L 27 249 L 38 254 L 42 253 L 48 235 L 51 190 L 55 178"/>
<path d="M 128 171 L 134 195 L 142 209 L 159 220 L 175 219 L 180 209 L 180 196 L 166 159 L 163 140"/>
</g>
</svg>
