<svg width="256" height="256" xmlns="http://www.w3.org/2000/svg">
<g stroke="black" fill="transparent" stroke-width="4">
<path d="M 36 118 L 33 113 L 35 100 L 41 76 L 48 60 L 57 48 L 92 27 L 54 8 L 55 3 L 61 0 L 72 0 L 103 12 L 128 15 L 174 3 L 198 6 L 210 12 L 227 40 L 244 48 L 254 60 L 255 71 L 252 76 L 236 87 L 224 84 L 217 79 L 196 53 L 148 67 L 96 89 L 83 103 L 75 121 L 77 142 L 90 155 L 135 175 L 86 192 L 40 193 L 1 199 L 0 193 L 20 179 L 36 152 L 31 102"/>
<path d="M 125 59 L 119 60 L 101 91 L 86 108 L 93 110 L 100 108 L 122 95 L 158 50"/>
<path d="M 188 31 L 192 27"/>
</g>
</svg>
