<svg width="256" height="256" xmlns="http://www.w3.org/2000/svg">
<g stroke="black" fill="transparent" stroke-width="4">
<path d="M 162 3 L 146 0 L 137 3 L 129 11 L 124 23 L 129 31 L 150 40 L 165 54 L 171 74 L 173 143 L 182 160 L 191 164 L 227 164 L 242 153 L 245 140 L 243 135 L 218 121 L 210 109 L 202 92 L 182 18 L 176 9 L 166 5"/>
<path d="M 200 80 L 230 61 L 233 56 L 234 39 L 239 58 L 245 66 L 253 67 L 243 82 L 242 90 L 255 95 L 234 106 L 226 118 L 219 120 L 190 114"/>
<path d="M 141 9 L 142 18"/>
<path d="M 117 22 L 100 23 L 74 11 L 82 23 L 82 31 L 62 33 L 35 23 L 42 36 L 43 46 L 31 49 L 9 49 L 0 46 L 13 50 L 24 58 L 22 70 L 10 76 L 46 78 L 58 83 L 62 86 L 59 88 L 55 80 L 55 71 L 58 67 L 81 61 L 97 65 L 91 64 L 88 55 L 95 47 L 113 42"/>
</g>
</svg>
