<svg width="256" height="256" xmlns="http://www.w3.org/2000/svg">
<g stroke="black" fill="transparent" stroke-width="4">
<path d="M 109 63 L 113 55 L 113 44 L 108 28 L 96 11 L 79 0 L 69 1 L 61 6 L 54 18 L 50 49"/>
<path d="M 85 62 L 24 53 L 6 64 L 0 78 L 2 87 L 8 94 L 32 98 L 88 83 L 91 76 L 84 67"/>
<path d="M 1 88 L 6 84 L 47 76"/>
<path d="M 82 25 L 73 30 L 69 44 L 72 48 L 79 49 L 86 42 L 86 38 L 79 32"/>
<path d="M 82 38 L 82 44"/>
<path d="M 53 92 L 53 120 L 45 144 L 56 154 L 70 159 L 101 158 L 137 163 L 159 163 L 160 158"/>
<path d="M 145 93 L 98 94 L 98 102 L 114 125 L 131 139 L 166 155 L 200 157 L 203 142 L 189 123 L 175 112 L 139 95"/>
<path d="M 110 65 L 111 72 L 118 80 L 141 76 L 185 91 L 199 108 L 205 131"/>
<path d="M 194 105 L 211 102 L 222 86 L 230 58 L 234 58 L 240 91 L 230 100 L 246 92 L 254 83 L 255 89 L 249 103 L 230 116 L 218 128 L 217 126"/>
</g>
</svg>
