<svg width="256" height="256" xmlns="http://www.w3.org/2000/svg">
<g stroke="black" fill="transparent" stroke-width="4">
<path d="M 155 8 L 120 0 L 114 8 L 114 33 L 131 52 L 137 65 L 150 64 L 155 57 L 158 19 L 155 8"/>
<path d="M 155 8 L 172 6 L 183 12 L 188 24 L 189 40 L 183 48 L 175 50 L 166 50 L 149 41"/>
<path d="M 189 25 L 191 19 L 196 16 L 218 17 L 242 21 L 253 35 L 255 55 L 245 52 L 234 39 L 218 29 L 196 29 L 181 32"/>
<path d="M 112 32 L 82 40 L 43 66 L 43 76 L 84 77 L 113 74 L 127 69 L 139 57"/>
<path d="M 73 77 L 59 96 L 57 106 L 79 107 L 85 70"/>
<path d="M 90 81 L 98 105 L 116 97 L 117 87 L 113 64"/>
<path d="M 127 62 L 135 101 L 146 91 L 149 83 L 136 70 L 133 54"/>
<path d="M 138 56 L 153 79 L 166 88 L 162 92 L 160 91 L 147 73 L 132 35"/>
<path d="M 41 65 L 36 50 L 30 46 L 25 46 L 4 72 L 0 92 L 3 92 L 23 93 L 26 78 L 34 64 L 48 55 L 66 51"/>
<path d="M 165 15 L 166 24 L 169 17"/>
</g>
</svg>
