<svg width="256" height="256" xmlns="http://www.w3.org/2000/svg">
<g stroke="black" fill="transparent" stroke-width="4">
<path d="M 0 10 L 3 117 L 29 83"/>
<path d="M 2 6 L 31 37 L 62 18 L 104 5 L 149 0 L 197 3 L 231 14 L 246 26 L 254 44 L 255 62 L 249 73 L 230 83 L 174 99 L 107 100 L 31 83"/>
<path d="M 215 23 L 219 25 L 218 20 L 215 21 L 218 24 L 221 22 L 214 24 L 218 26 L 221 22 L 214 21"/>
<path d="M 163 49 L 116 36 L 116 91 L 172 74"/>
<path d="M 121 52 L 145 49 L 173 52"/>
<path d="M 122 67 L 139 70 L 172 69"/>
<path d="M 122 80 L 144 79 L 177 66"/>
</g>
</svg>
