<svg width="256" height="256" xmlns="http://www.w3.org/2000/svg">
<g stroke="black" fill="transparent" stroke-width="4">
<path d="M 42 109 L 33 105 L 23 93 L 16 70 L 20 34 L 33 20 L 61 7 L 79 10 L 87 19 L 94 40 L 94 76 L 133 76 L 183 89 L 170 38 L 173 16 L 181 0 L 187 4 L 205 4 L 214 8 L 223 13 L 232 26 L 241 45 L 246 74 L 245 96 L 235 108"/>
<path d="M 50 113 L 40 117 L 19 138 L 8 154 L 2 169 L 0 184 L 3 197 L 16 219 L 48 241 L 69 248 L 160 255 L 187 253 L 201 248 L 216 232 L 230 203 L 236 177 L 238 144 L 231 119 L 217 112"/>
<path d="M 57 84 L 50 44 L 63 80 L 64 58 L 67 59"/>
<path d="M 214 61 L 203 92 L 212 60 L 206 78 L 203 89 L 208 79"/>
<path d="M 58 168 L 58 178 L 65 195 L 83 211 L 107 219 L 143 220 L 164 214 L 191 196 L 213 159 L 216 148 L 214 142"/>
</g>
</svg>
