<svg width="256" height="256" xmlns="http://www.w3.org/2000/svg">
<g stroke="black" fill="transparent" stroke-width="4">
<path d="M 32 184 L 25 225 L 26 232 L 32 236 L 58 231 L 66 220 L 71 196 L 80 192 L 108 196 L 116 200 L 125 226 L 139 234 L 151 235 L 169 224 L 178 213 L 173 182 L 177 143 L 169 97 L 174 68 L 184 55 L 241 53 L 255 39 L 250 25 L 235 10 L 223 5 L 206 3 L 192 5 L 174 12 L 160 20 L 151 39 L 139 104 L 130 132 L 117 137 L 72 129 L 41 136 L 31 143 L 20 157 L 19 179 L 25 190"/>
<path d="M 20 170 L 14 170 L 6 175 L 0 190 L 10 196 L 24 188"/>
<path d="M 224 14 L 226 21 L 230 15 L 226 13 L 224 15 L 227 20 L 232 13 L 229 12 L 225 17 L 229 23"/>
<path d="M 248 37 L 226 37"/>
<path d="M 91 153 L 88 158 L 91 165 L 95 167 L 100 164 L 108 149 L 106 137 L 102 135 L 96 137 L 85 151 L 87 161 L 98 159 L 105 149 L 100 141 L 95 140 L 88 144 L 83 154 L 83 163 L 91 164 L 99 157 L 103 148 L 101 142 L 97 143 L 94 152 L 95 160 L 99 162"/>
<path d="M 168 131 L 163 142 L 166 148 L 171 149 L 167 140 L 161 138 L 156 143 L 156 151 L 160 155 L 167 155 L 178 141 L 176 128 L 166 124 L 159 134 L 160 141 L 164 146 L 172 143"/>
<path d="M 151 76 L 151 88 L 157 93 L 164 86 L 164 76 L 156 72 L 151 88 L 155 86 L 155 79 L 148 85 L 148 94 L 157 90"/>
<path d="M 183 0 L 180 18 L 182 27 L 191 24 L 198 10 L 190 26 L 193 32 L 200 30 L 208 20 L 209 12 L 205 9 L 196 9 L 184 22 L 184 27 L 187 27 L 196 15 L 196 12 L 189 13 L 184 24 L 186 27 L 190 28"/>
</g>
</svg>
