<svg width="256" height="256" xmlns="http://www.w3.org/2000/svg">
<g stroke="black" fill="transparent" stroke-width="4">
<path d="M 76 91 L 82 47 L 99 76 L 109 84 L 122 79 L 154 48 L 163 77 L 169 86 L 200 67 L 205 68 L 196 111"/>
<path d="M 77 90 L 46 88 L 20 94 L 9 104 L 0 119 L 0 127 L 5 135 L 15 142 L 30 145 L 64 142 L 87 134 L 81 157 L 78 184 L 92 170 L 103 141 L 100 165 L 101 182 L 106 189 L 119 175 L 141 139 L 138 184 L 141 194 L 147 191 L 153 183 L 171 144 L 165 188 L 169 198 L 174 202 L 181 198 L 188 187 L 205 136 L 208 115 L 206 108"/>
<path d="M 91 105 L 75 103"/>
<path d="M 33 105 L 29 102 L 32 97 L 37 99 L 34 106 L 28 109 L 24 106 L 29 102 L 36 104 L 41 110 L 36 113 L 29 108 L 38 101 L 43 101 L 44 103 L 34 105 L 39 97 L 43 100 L 38 105"/>
<path d="M 19 124 L 32 139 L 53 139 L 76 123 L 83 113 L 84 106"/>
<path d="M 56 107 L 62 103 L 59 108 L 54 108 L 52 103 L 55 98 L 61 96 L 65 98 L 57 108 L 62 102 L 68 102 L 63 106 L 61 103 L 64 99 L 61 105 L 56 105 L 60 99 L 62 101 L 58 106"/>
<path d="M 35 104 L 36 100 L 40 100 L 36 106 L 34 104 L 39 99 L 35 103"/>
<path d="M 97 83 L 113 37 L 110 59 L 112 73 L 132 37 L 144 22 L 151 19 L 150 68 L 172 43 L 176 39 L 178 41 L 167 93 L 209 57 L 191 93 L 237 74 L 202 108 L 230 98 L 243 97 L 203 119 L 246 118 L 249 119 L 248 121 L 208 133 L 214 123 L 255 88 L 243 86 L 187 98 L 186 93 L 202 53 L 181 89 L 187 26 L 175 40 L 153 83 L 152 16 L 145 2 L 113 76 L 110 35 L 105 18 L 97 83 L 86 52 L 74 38 L 79 106 L 51 56 L 57 81 L 68 104 L 63 52 L 65 31 L 70 21 L 77 35 L 88 90 L 92 72 L 93 21 L 97 11 L 104 19 L 109 34 L 114 86 L 149 0 L 153 4 L 153 15 L 139 84 L 139 97 L 190 28 L 209 9 L 212 13 L 210 23 L 177 91 L 169 112 L 172 111"/>
</g>
</svg>
