<svg width="256" height="256" xmlns="http://www.w3.org/2000/svg">
<g stroke="black" fill="transparent" stroke-width="4">
<path d="M 230 51 L 209 34 L 188 32 L 180 36 L 178 40 L 178 59 L 200 75 L 220 110 L 225 114 L 237 114 L 248 107 L 253 97 L 254 76 L 239 53 L 222 39"/>
<path d="M 189 20 L 195 0 L 204 35"/>
<path d="M 194 39 L 194 55 L 189 68 L 178 84 L 164 94"/>
<path d="M 198 55 L 197 73 L 190 88 L 170 105 L 157 111"/>
<path d="M 186 27 L 188 43 L 184 63 L 171 86 L 163 93"/>
<path d="M 174 79 L 108 81 L 70 94 L 56 103 L 39 120 L 35 139 L 39 143 L 52 149 L 69 151 L 144 152 L 162 145 L 179 134 L 193 119 L 203 100"/>
<path d="M 44 113 L 37 123 L 18 179"/>
<path d="M 41 122 L 39 171 L 0 214"/>
<path d="M 35 146 L 28 181 L 7 206"/>
<path d="M 189 66 L 186 96 L 172 116 L 157 129"/>
<path d="M 185 85 L 181 94"/>
<path d="M 88 150 L 89 204"/>
<path d="M 93 148 L 105 198"/>
<path d="M 163 153 L 165 194"/>
<path d="M 157 147 L 176 162 L 195 189"/>
<path d="M 194 89 L 188 106 L 169 126"/>
<path d="M 216 54 L 217 52"/>
<path d="M 51 125 L 53 142 L 43 170 L 31 191 L 14 206"/>
<path d="M 49 139 L 36 171 L 10 199"/>
</g>
</svg>
