<svg width="256" height="256" xmlns="http://www.w3.org/2000/svg">
<g stroke="black" fill="transparent" stroke-width="4">
<path d="M 0 57 L 8 42 L 20 30 L 32 21 L 43 20 L 44 36 L 32 54 L 12 67 L 5 68 L 3 61"/>
<path d="M 35 21 L 29 1 L 40 27"/>
<path d="M 10 25 L 3 9 L 19 31 L 18 23"/>
<path d="M 48 27 L 77 61 L 84 75"/>
<path d="M 33 58 L 47 68 L 51 78"/>
<path d="M 88 69 L 125 82 L 169 108 L 186 126 L 192 149 L 185 174 L 168 186 L 105 183 L 93 177"/>
<path d="M 41 88 L 52 106 L 98 152"/>
<path d="M 136 123 L 121 131 L 117 137 L 109 159 L 105 184 L 108 192 L 132 197"/>
<path d="M 130 207 L 41 235 L 95 224 L 123 225 L 125 223"/>
<path d="M 167 162 L 151 186 L 162 205 L 161 214 L 152 221 L 121 230"/>
<path d="M 76 145 L 87 176 L 43 205 L 3 226 L 48 215 L 71 214"/>
<path d="M 69 84 L 53 104 L 58 113 L 73 124 L 80 110 L 70 122"/>
<path d="M 62 124 L 41 153 L 71 144"/>
<path d="M 45 108 L 41 123 L 21 150 L 22 157 L 37 154"/>
<path d="M 197 134 L 196 146 L 199 156 L 215 179 L 237 192 L 255 194"/>
</g>
</svg>
