<svg width="256" height="256" xmlns="http://www.w3.org/2000/svg">
<g stroke="black" fill="transparent" stroke-width="4">
<path d="M 86 130 L 80 133 L 72 122 L 69 97 L 74 83 L 104 58 L 121 50 L 142 46 L 181 49 L 194 58 L 205 88 L 204 110 L 175 178 L 165 191 L 153 196 L 135 194 L 114 174 L 87 135 L 84 125 L 84 103 L 91 87"/>
<path d="M 122 51 L 123 43 L 133 25 L 147 8 L 159 0 L 166 0 L 170 4 L 182 42 L 219 27 L 237 25 L 240 33 L 240 44 L 214 85 L 229 91 L 235 98 L 239 108 L 239 130 L 234 146 L 211 176 L 199 185 L 181 185 L 180 215 L 177 228 L 171 236 L 163 242 L 106 248 L 87 235 L 70 210 L 70 196 L 88 194 L 100 197 L 91 184 L 55 157 L 40 135 L 44 129 L 65 125 L 71 120 L 68 97 L 62 83 L 61 63 L 70 50 L 72 41 L 80 39"/>
<path d="M 117 134 L 117 134"/>
<path d="M 110 132 L 123 138 L 138 138 L 166 131"/>
<path d="M 110 136 L 107 143 L 112 155 L 118 134 L 123 135 L 133 152 L 144 134 L 147 133 L 158 148 L 161 129 L 164 128"/>
<path d="M 169 73 L 171 93"/>
<path d="M 125 76 L 123 96"/>
<path d="M 141 115 L 139 110 L 144 108 L 149 111 L 150 120 L 146 122"/>
<path d="M 122 164 L 121 155 L 125 154 L 131 162 L 135 163 L 143 152 L 158 155 L 170 144 L 169 154 L 163 167 L 153 171 L 116 172"/>
<path d="M 70 32 L 89 32 L 104 45 L 106 25"/>
<path d="M 148 37 L 160 28 L 196 21 L 216 20 L 220 30 L 186 73 L 235 76 L 245 86 L 242 103 L 207 148 L 207 152 L 223 158 L 230 167 L 229 187 L 201 204 L 185 208 L 195 240 L 195 253 L 188 255 L 177 255 L 150 242 L 137 233 L 122 217 L 120 250 L 110 245 L 86 209 L 79 186 L 68 211 L 60 220 L 52 221 L 49 192 L 66 159 L 23 166 L 0 165 L 1 157 L 9 147 L 49 110 L 25 91 L 24 80 L 30 73 L 63 53"/>
</g>
</svg>
