<svg width="256" height="256" xmlns="http://www.w3.org/2000/svg">
<g stroke="black" fill="transparent" stroke-width="4">
<path d="M 192 2 L 205 7 L 222 25 L 226 39 L 223 51 L 215 64 L 201 75 L 194 78 L 187 76 L 181 66 L 173 22 L 168 28 L 163 43 L 161 75 L 169 105 L 176 113 L 197 125 L 218 126 L 238 115 L 253 91 L 255 82 L 252 59 L 232 20 L 213 0 L 199 4"/>
<path d="M 75 12 L 83 26 L 88 59 L 88 77 L 83 99 L 71 113 L 54 123 L 42 124 L 25 116 L 8 104 L 1 95 L 2 26 L 14 3 L 15 0 L 17 3 L 32 58 L 39 69 L 52 76 L 64 74 L 70 66 L 79 47 L 84 17"/>
<path d="M 73 97 L 72 110 L 77 131 L 92 152 L 115 161 L 145 162"/>
<path d="M 191 124 L 183 147 L 173 161 L 162 170 L 148 171 L 136 166 L 131 155 L 146 130 L 146 113 L 134 107 L 124 109 L 115 125 L 114 137 L 127 164"/>
<path d="M 117 162 L 92 203"/>
<path d="M 140 180 L 148 186 L 156 198 L 156 204 L 147 216"/>
<path d="M 147 165 L 144 203"/>
<path d="M 158 187 L 183 185"/>
<path d="M 145 198 L 175 199"/>
<path d="M 105 171 L 76 161"/>
<path d="M 95 178 L 77 173"/>
<path d="M 90 192 L 78 197 L 75 208"/>
<path d="M 141 110 L 140 95 L 137 95 L 135 106"/>
<path d="M 122 106 L 115 93 L 107 90 L 114 111"/>
</g>
</svg>
