<svg width="256" height="256" xmlns="http://www.w3.org/2000/svg">
<g stroke="black" fill="transparent" stroke-width="4">
<path d="M 130 51 L 108 45 L 68 45 L 46 53 L 44 66 L 67 78 L 98 79 L 134 74 L 136 67 L 132 58"/>
<path d="M 75 47 L 73 29 L 79 14 L 86 38"/>
<path d="M 99 34 L 102 14 L 111 10 L 109 42"/>
<path d="M 53 46 L 55 33 L 53 24 L 43 14 L 44 3 L 52 1 L 57 9 L 62 9 L 102 0 L 125 9 L 137 4 L 145 9 L 146 18 L 134 33 L 130 53"/>
<path d="M 66 55 L 88 62 L 116 62"/>
<path d="M 70 80 L 60 137 L 64 169 L 77 186 L 84 183 L 88 174 L 91 118 L 87 90"/>
<path d="M 71 106 L 47 104 L 7 123 L 0 137 L 1 143"/>
<path d="M 83 109 L 114 114 L 160 137"/>
<path d="M 58 160 L 38 181 L 22 206 L 11 239 L 23 255"/>
<path d="M 75 175 L 91 202 L 107 240"/>
<path d="M 88 165 L 111 167 L 127 180 L 162 194 L 178 191 L 208 169 L 214 155 L 207 146"/>
</g>
</svg>
