<svg width="256" height="256" xmlns="http://www.w3.org/2000/svg">
<g stroke="black" fill="transparent" stroke-width="4">
<path d="M 111 67 L 68 54 L 43 53 L 31 57 L 13 70 L 7 79 L 6 85 L 20 98 L 34 103 L 63 104 L 79 101 L 101 90 L 110 79 L 108 73 L 99 66 L 84 63"/>
<path d="M 151 57 L 142 57 L 125 62 L 110 76 L 107 88 L 112 92 L 132 94 L 145 91 L 157 83 L 169 69 L 169 64 L 163 59 L 145 57 L 136 60"/>
<path d="M 168 74 L 209 90 L 255 102 L 188 77 L 156 61 L 169 70"/>
<path d="M 100 71 L 106 35 L 107 13 L 99 3 L 85 0 L 72 7 L 60 32 L 59 48 L 63 52"/>
<path d="M 60 69 L 52 30 L 43 19 L 28 11 L 9 10 L 1 17 L 2 41 L 15 59"/>
<path d="M 140 62 L 142 69 L 136 74"/>
<path d="M 185 67 L 190 67 L 213 84 L 248 99 L 254 103 L 250 103 L 183 87 L 163 76 L 201 91 L 236 99 L 186 73 L 158 67"/>
<path d="M 75 97 L 91 125 L 114 125"/>
<path d="M 36 108 L 34 109 L 30 129 L 29 167"/>
</g>
</svg>
