<svg width="256" height="256" xmlns="http://www.w3.org/2000/svg">
<g stroke="black" fill="transparent" stroke-width="4">
<path d="M 59 111 L 58 89 L 49 62 L 51 34 L 62 13 L 87 0 L 97 3 L 112 12 L 128 39 L 133 75 L 126 106"/>
<path d="M 74 43 L 76 50"/>
<path d="M 87 41 L 89 52"/>
<path d="M 130 107 L 139 117 L 145 119 L 166 116 L 204 100 L 237 102 L 250 110 L 255 116 L 237 108 L 215 110 L 198 117 L 171 139 L 153 144 L 129 142 L 117 120 L 125 145 L 130 152 L 146 155 L 182 157 L 194 168 L 201 185 L 194 171 L 184 164 L 144 169 L 129 163 L 113 151 L 106 125 L 103 149 L 99 160 L 93 166 L 60 171 L 35 187 L 40 173 L 46 166 L 80 156 L 94 128 L 73 142 L 60 143 L 43 136 L 26 140 L 0 166 L 4 146 L 11 137 L 21 131 L 34 126 L 54 126 L 61 115"/>
</g>
</svg>
