<svg width="256" height="256" xmlns="http://www.w3.org/2000/svg">
<g stroke="black" fill="transparent" stroke-width="4">
<path d="M 22 93 L 8 82 L 1 68 L 0 41 L 6 31 L 23 12 L 40 3 L 53 0 L 83 0 L 114 13 L 124 25 L 128 36 L 135 99 L 131 112 L 116 117"/>
<path d="M 40 42 L 43 43 L 43 51 L 34 58 L 25 58 L 16 48 L 14 32 L 17 26 L 24 23 L 28 23 L 34 30 L 40 44"/>
<path d="M 96 45 L 95 56 L 86 58 L 77 56 L 69 41 L 70 29 L 78 25 L 92 31 L 94 46"/>
<path d="M 59 74 L 48 86 L 62 93"/>
<path d="M 52 88 L 64 86"/>
<path d="M 23 110 L 14 119 L 8 146 L 8 160 L 20 199 L 29 220 L 45 239 L 61 253 L 71 255"/>
<path d="M 116 127 L 144 149 L 152 162 L 157 179 L 161 229 L 157 237 L 145 239"/>
<path d="M 101 222 L 96 223 L 83 216 L 72 203 L 64 185 L 65 157 L 72 150 L 84 147 L 99 157 L 118 181"/>
<path d="M 67 166 L 98 198"/>
</g>
</svg>
