<svg width="256" height="256" xmlns="http://www.w3.org/2000/svg">
<g stroke="black" fill="transparent" stroke-width="4">
<path d="M 65 90 L 57 97 L 45 119 L 44 145 L 51 153 L 59 156 L 71 155 L 75 149 L 83 132 L 84 107 L 68 90 L 51 90 L 46 96 L 41 110 L 40 136 L 47 148 L 59 148 L 71 141 L 86 123 L 90 111 L 90 95 L 84 89 L 73 84 L 53 85 L 40 99 L 34 119 L 34 139 L 38 144 L 48 151 L 61 151 L 77 131 L 81 123 L 82 105 L 79 99 L 62 99 L 46 120 L 45 147 L 48 152 L 65 154 L 77 143 L 89 123 L 90 103 L 85 98 L 66 95 L 57 98 L 50 105 L 43 123 L 44 152 L 49 155 L 67 156 L 82 133 L 84 104 L 76 97 L 59 97 L 50 103 L 41 121 L 40 149 L 45 152 L 61 152 L 69 146 L 88 116 L 91 95 L 82 88 L 67 88 L 54 99 L 50 107 L 49 136 L 58 140 L 69 137 L 78 121 L 80 101 L 73 95 L 61 97 L 54 102 L 48 118 L 51 140 L 64 142 L 75 124 L 74 109 L 67 105 L 55 108 L 47 126 L 47 149"/>
<path d="M 141 91 L 130 86 L 119 93 L 109 103 L 96 129 L 94 146 L 98 153 L 117 155 L 124 149 L 132 132 L 131 101 L 125 93 L 117 89 L 98 92 L 83 113 L 81 138 L 83 146 L 96 154 L 121 152 L 132 141 L 137 125 L 137 105 L 133 95 L 118 86 L 107 86 L 98 91 L 86 112 L 84 142 L 92 156 L 111 156 L 121 146 L 131 128 L 135 108 L 133 95 L 112 96 L 100 112 L 97 121 L 95 143 L 99 149 L 112 151 L 118 148 L 125 141 L 132 124 L 132 96 L 125 90 L 108 89 L 99 96 L 83 124 L 85 150 L 102 162 L 120 162 L 134 141 L 137 127 L 137 90 L 132 85 L 111 87 L 95 109 L 90 123 L 88 147 L 92 153 L 103 157 L 120 153 L 129 140 L 132 113 L 127 109 L 114 108 L 108 112 L 100 127 L 100 148 L 106 151 L 114 151 L 127 138 L 135 122 L 135 91 L 131 85 L 125 82 L 115 82 L 105 87 L 98 99 L 92 121 L 92 142 L 95 150 L 99 153 L 115 155 L 123 149 L 131 132 L 131 115 L 128 110 L 110 109 L 104 116 L 100 134"/>
<path d="M 78 183 L 76 177 L 71 190 L 77 189 L 82 175 L 77 172 L 71 179 L 70 185 L 77 186 L 82 179 L 83 171 L 77 168 L 69 169 L 69 183 L 74 188 L 82 187 L 80 174 L 72 173 L 69 184 L 74 184 L 76 190 L 74 201 L 69 210 L 62 217 L 41 216 L 34 210 L 39 207"/>
<path d="M 80 192 L 72 197 L 72 205 L 80 214 L 100 216 L 114 207 L 114 212 L 108 216 L 100 220 L 86 221 L 76 211 L 76 191"/>
<path d="M 96 30 L 81 31 L 67 36 L 45 51 L 17 83 L 8 101 L 2 121 L 0 159 L 3 179 L 13 198 L 32 219 L 74 247 L 108 255 L 138 255 L 149 251 L 166 241 L 180 227 L 192 199 L 195 140 L 183 107 L 152 54 L 127 32 L 80 31 L 57 5 L 42 0 L 34 1 L 29 9 L 29 23 L 49 48"/>
<path d="M 149 42 L 173 25 L 183 22 L 189 24 L 191 44"/>
</g>
</svg>
