<svg width="256" height="256" xmlns="http://www.w3.org/2000/svg">
<g stroke="black" fill="transparent" stroke-width="4">
<path d="M 58 72 L 28 76 L 14 84 L 4 98 L 0 119 L 0 149 L 5 152"/>
<path d="M 9 154 L 14 135 L 31 115 L 47 109 L 67 110"/>
<path d="M 14 156 L 18 150 L 44 132 L 75 114"/>
<path d="M 71 63 L 67 58 L 63 43 L 62 22 L 73 10 L 80 4 L 101 0 L 121 0 L 137 9 L 143 21 L 155 101 L 165 122 L 178 130 L 233 146 L 238 151 L 238 188 L 211 187"/>
<path d="M 81 115 L 80 154 L 90 168 L 105 177 L 143 187 L 241 190 L 248 195"/>
<path d="M 120 192 L 118 218"/>
<path d="M 107 237 L 92 241 L 85 253"/>
<path d="M 110 228 L 111 255"/>
<path d="M 119 230 L 119 230"/>
<path d="M 197 199 L 200 228"/>
<path d="M 197 232 L 182 238 L 173 249"/>
<path d="M 193 236 L 193 236"/>
</g>
</svg>
