<svg width="256" height="256" xmlns="http://www.w3.org/2000/svg">
<g stroke="black" fill="transparent" stroke-width="4">
<path d="M 53 0 L 40 2 L 27 10 L 18 19 L 14 30 L 13 46 L 27 82 L 27 98 L 22 129 L 0 188 L 1 200 L 5 209 L 17 218 L 51 231 L 97 232 L 107 230 L 120 223 L 130 207 L 133 195 L 132 138 L 125 111 L 100 77 L 102 41 L 99 28 L 88 18 L 71 11 L 57 9 L 42 13"/>
<path d="M 102 85 L 101 119 L 105 143 L 113 167 L 130 194"/>
<path d="M 39 84 L 45 95 L 50 116 L 48 139 L 30 170 L 4 198"/>
<path d="M 47 229 L 43 250"/>
<path d="M 84 235 L 83 252"/>
<path d="M 31 249 L 77 254 L 102 254"/>
<path d="M 50 54 L 59 71 L 64 68 L 72 54"/>
</g>
</svg>
