<svg width="256" height="256" xmlns="http://www.w3.org/2000/svg">
<g stroke="black" fill="transparent" stroke-width="4">
<path d="M 131 115 L 128 112 L 106 111 L 94 120 L 83 143 L 81 168 L 89 182 L 106 191 L 118 192 L 129 187 L 141 171 L 148 142 L 145 132 L 132 121"/>
<path d="M 102 141 L 103 164"/>
<path d="M 129 138 L 127 158"/>
<path d="M 76 38 L 66 36 L 54 50 L 49 72 L 54 83 L 59 86 L 71 86 L 81 78 L 85 52 L 79 40 L 74 35"/>
<path d="M 162 42 L 151 36 L 138 35 L 128 54 L 130 71 L 135 78 L 149 84 L 163 81 L 172 66 L 176 43 L 175 28 L 172 25 L 163 25"/>
<path d="M 136 76 L 139 74 L 154 72 L 160 77 L 159 83 L 152 88 L 152 81 L 156 81"/>
<path d="M 69 83 L 66 80 L 76 73 L 76 79 L 70 80 L 78 73 L 64 82 L 66 76 L 81 62"/>
<path d="M 45 17 L 32 20 L 26 26 L 7 56 L 1 94 L 2 136 L 15 172 L 33 202 L 55 224 L 90 242 L 127 253 L 162 255 L 186 248 L 206 233 L 223 208 L 236 174 L 240 149 L 242 85 L 233 50 L 222 30 L 206 16 L 184 6 L 155 1 L 121 0 L 71 10 L 52 18 L 45 24"/>
</g>
</svg>
