<svg width="256" height="256" xmlns="http://www.w3.org/2000/svg">
<g stroke="black" fill="transparent" stroke-width="4">
<path d="M 6 133 L 8 159 L 20 175 L 44 177 L 59 175 L 74 167 L 87 152 L 92 127 L 85 108 L 68 97 L 45 93 L 22 100 L 11 115 L 5 132"/>
<path d="M 6 125 L 0 80 L 0 60 L 7 40 L 24 19 L 38 17 L 48 29 L 55 68 L 55 95"/>
<path d="M 67 100 L 64 49 L 67 35 L 81 8 L 88 2 L 97 0 L 104 6 L 109 16 L 112 55 L 109 74 L 92 110"/>
<path d="M 17 182 L 10 194 L 8 209 L 10 223 L 16 234 L 28 243 L 44 251 L 65 255 L 74 253 L 86 243 L 95 229 L 100 198 L 99 187 L 90 173 L 80 166 L 74 168"/>
<path d="M 22 137 L 28 138 L 31 132 L 28 133 L 30 137 L 31 132"/>
<path d="M 55 130 L 62 127 L 63 124 L 59 125 L 60 129"/>
<path d="M 40 143 L 54 143 L 55 146 L 52 156 L 49 156 L 40 146"/>
<path d="M 46 160 L 51 167 L 57 168 L 66 159"/>
<path d="M 50 169 L 43 171 L 32 165"/>
</g>
</svg>
