<svg width="256" height="256" xmlns="http://www.w3.org/2000/svg">
<g stroke="black" fill="transparent" stroke-width="4">
<path d="M 106 195 L 113 196 L 127 189 L 146 170 L 162 141 L 181 86 L 190 76 L 193 76 L 194 80 L 205 134 L 204 168 L 195 201 L 178 223 L 137 238 L 106 242 L 96 238"/>
<path d="M 202 122 L 181 123 L 165 114"/>
<path d="M 192 159 L 179 160 L 166 157 L 158 152 L 155 146"/>
<path d="M 184 186 L 169 188 L 157 185 L 139 168"/>
<path d="M 155 223 L 149 224 L 139 219 L 116 195"/>
<path d="M 103 184 L 100 146 L 95 120 L 83 106 L 70 103"/>
<path d="M 105 175 L 109 196 L 109 218 L 104 238 L 92 252 L 82 255 L 63 254 L 35 245 L 6 214 L 1 202 L 0 188 L 1 165 L 6 152 L 39 118 L 56 105 L 63 103"/>
<path d="M 91 109 L 99 98 L 105 79 L 105 54 L 95 42 L 67 31 L 47 33 L 23 55 L 10 75 L 8 98 L 12 108 L 23 120 L 48 130 L 70 129 L 87 121 L 93 112 L 91 98"/>
<path d="M 20 58 L 19 34 L 26 6 L 31 8 L 45 42"/>
<path d="M 64 39 L 83 7 L 90 0 L 94 3 L 91 60"/>
<path d="M 51 70 L 48 70 L 46 67 L 49 67"/>
<path d="M 73 70 L 79 63 L 79 70"/>
</g>
</svg>
