<svg width="256" height="256" xmlns="http://www.w3.org/2000/svg">
<g stroke="black" fill="transparent" stroke-width="4">
<path d="M 38 53 L 24 43 L 13 29 L 0 0 L 52 48"/>
<path d="M 121 19 L 82 24 L 66 44"/>
<path d="M 67 47 L 35 58 L 28 63 L 34 70 L 46 75 L 66 74 L 94 58 L 119 53"/>
<path d="M 112 22 L 191 19 L 245 34 L 250 38 L 255 48 L 248 57 L 220 74 L 209 79 L 188 81 L 162 76 L 111 48"/>
<path d="M 63 45 L 56 38 L 64 43"/>
<path d="M 82 37 L 89 44 L 91 44 L 89 39 L 81 38 L 86 41 L 87 39"/>
<path d="M 143 60 L 139 74 L 140 108 L 168 112 L 167 75"/>
<path d="M 177 75 L 185 113 L 193 103 L 196 80"/>
<path d="M 222 71 L 235 105"/>
</g>
</svg>
