<svg width="256" height="256" xmlns="http://www.w3.org/2000/svg">
<g stroke="black" fill="transparent" stroke-width="4">
<path d="M 74 86 L 94 81 L 107 70 L 108 54 L 96 34 L 68 9 L 45 0 L 41 2 L 45 11 L 65 24 L 79 41 L 79 61 L 71 81"/>
<path d="M 89 81 L 132 65 L 170 57 L 205 57 L 223 64 L 232 73 L 237 90 L 234 103 L 221 113 L 197 117 L 161 113 L 137 107 L 92 87"/>
<path d="M 100 90 L 92 111 L 79 119 L 30 138 L 1 142 L 0 146 L 8 154 L 26 164 L 37 165 L 48 165 L 79 155 L 106 139 L 124 121 L 131 107"/>
<path d="M 151 65 L 155 15"/>
<path d="M 170 67 L 180 31"/>
<path d="M 197 57 L 212 21"/>
<path d="M 220 59 L 237 39"/>
<path d="M 236 66 L 255 48"/>
<path d="M 166 106 L 164 156"/>
<path d="M 194 112 L 190 151"/>
<path d="M 214 118 L 212 147"/>
<path d="M 222 109 L 224 133"/>
</g>
</svg>
