<svg width="256" height="256" xmlns="http://www.w3.org/2000/svg">
<g stroke="black" fill="transparent" stroke-width="4">
<path d="M 8 71 L 9 65 L 24 44 L 55 18 L 90 5 L 140 0 L 165 7 L 184 24 L 205 58 L 204 72 L 188 81 L 158 87 L 0 84"/>
<path d="M 26 49 L 37 54 L 47 54 L 54 44 L 57 25"/>
<path d="M 90 10 L 82 15 L 70 30 L 67 45 L 70 49 L 84 50 L 95 45 L 105 35 L 115 18"/>
<path d="M 139 6 L 127 35 L 127 39 L 133 42 L 148 41 L 157 35 L 177 14"/>
<path d="M 60 90 L 67 74 L 88 63 L 109 65 L 121 73 L 127 83"/>
<path d="M 134 90 L 134 75 L 147 59 L 164 58 L 175 77"/>
<path d="M 241 44 L 219 40 L 202 51 L 196 62 L 196 78 L 205 85 L 223 86 L 238 80 L 253 67 L 255 55 L 249 47 L 242 44 L 215 44"/>
<path d="M 92 92 L 84 105 L 68 120"/>
<path d="M 128 100 L 114 117 L 93 129"/>
<path d="M 51 83 L 38 95 L 14 109"/>
<path d="M 70 92 L 44 113 L 25 118"/>
</g>
</svg>
