<svg width="256" height="256" xmlns="http://www.w3.org/2000/svg">
<g stroke="black" fill="transparent" stroke-width="4">
<path d="M 53 161 L 34 138 L 21 114 L 0 25 L 50 77 L 66 90 L 79 61 L 94 1 L 112 2 L 135 19 L 154 40 L 187 81 L 196 100 L 208 134 L 216 173 L 219 213 L 217 252"/>
<path d="M 51 155 L 62 189 L 80 215 L 114 244 L 129 252 L 150 255"/>
<path d="M 133 71 L 133 71"/>
<path d="M 133 87 L 134 88"/>
<path d="M 122 69 L 126 73 L 137 104"/>
<path d="M 19 35 L 15 35 L 30 28 L 32 35 L 27 44 L 42 42 L 42 46 L 37 53 L 48 55 L 49 63 L 52 65 L 66 62 L 67 66 L 56 77"/>
<path d="M 88 12 L 72 16 L 80 23 L 69 33 L 74 39 L 68 46 L 74 51 L 72 61"/>
<path d="M 132 84 L 113 98 L 126 85"/>
</g>
</svg>
