<svg width="256" height="256" xmlns="http://www.w3.org/2000/svg">
<g stroke="black" fill="transparent" stroke-width="4">
<path d="M 71 51 L 67 37 L 71 22 L 85 5 L 95 1 L 112 2 L 120 7 L 125 15 L 128 37 L 132 25 L 145 11 L 162 2 L 168 2 L 177 15 L 178 39 L 181 33 L 195 22 L 222 17 L 228 21 L 236 35 L 236 49 L 229 59 L 247 64 L 255 77 L 253 93 L 248 103 L 232 112 L 214 113 L 204 100 L 194 100 L 146 129 L 127 136 L 114 133 L 80 93 L 74 92 L 54 102 L 39 103 L 32 88 L 36 68 L 47 56 L 76 49"/>
<path d="M 69 39 L 25 35 L 10 38 L 1 44 L 1 57 L 10 68 L 27 76 L 48 77"/>
<path d="M 15 30 L 11 28 L 3 33 L 2 39 L 9 40"/>
<path d="M 85 111 L 82 158 L 86 169 L 93 173 L 104 170 L 114 153 L 116 138"/>
<path d="M 180 104 L 179 133 L 183 153 L 190 162 L 198 157 L 201 149 L 205 130 L 206 105"/>
</g>
</svg>
