<svg width="256" height="256" xmlns="http://www.w3.org/2000/svg">
<g stroke="black" fill="transparent" stroke-width="4">
<path d="M 1 74 L 5 47 L 22 20 L 58 4 L 86 0 L 101 1 L 126 18 L 141 37 L 146 61 L 146 120"/>
<path d="M 1 70 L 5 90 L 8 139 L 45 131 L 92 129 L 132 123 L 160 123"/>
<path d="M 29 128 L 54 130 L 124 128 L 154 121 L 172 120 L 203 109 L 203 80 L 208 61 L 220 41 L 229 35 L 240 33 L 249 33 L 252 36 L 255 49 L 253 83 L 249 101 L 242 115 L 234 122 L 219 126 L 166 124"/>
<path d="M 242 54 L 250 54 L 252 65 L 238 71 L 235 69 L 233 55 L 239 45"/>
<path d="M 243 60 L 244 62"/>
<path d="M 217 56 L 224 55 L 231 59 L 230 71 L 225 73 L 220 67 L 223 57"/>
<path d="M 222 59 L 222 10"/>
<path d="M 244 51 L 244 9"/>
<path d="M 40 46 L 59 32 L 73 30 L 96 30 L 116 45 L 122 69 L 122 80 L 105 112 L 77 133 L 70 134 L 38 124 L 15 104 L 8 90 L 7 75 L 26 51 L 60 34 L 83 31 L 94 37 L 100 46 L 92 81 L 66 96 L 58 96 L 45 82 L 43 72 L 55 52 L 79 44 L 98 48 L 102 68 L 100 74 L 83 91 L 65 85 L 60 74 L 61 60 L 78 67 L 79 72 L 65 87 L 53 83 L 51 63"/>
</g>
</svg>
