<svg width="256" height="256" xmlns="http://www.w3.org/2000/svg">
<g stroke="black" fill="transparent" stroke-width="4">
<path d="M 169 15 L 167 12 L 145 4 L 105 0 L 75 18 L 58 41 L 48 66 L 50 86 L 85 124 L 108 135 L 134 138 L 160 136 L 178 119 L 188 101 L 200 57 L 202 25 L 196 14 L 189 11 L 167 9 L 160 12"/>
<path d="M 121 134 L 106 130 L 87 130 L 84 136 L 83 154 L 85 160 L 95 170 L 111 176 L 123 176 L 148 170 L 163 160 L 168 149 L 167 138 L 160 131 L 150 131"/>
<path d="M 109 156 L 113 160 L 126 164 L 134 163 L 137 159"/>
<path d="M 114 142 L 114 142"/>
<path d="M 112 147 L 112 147"/>
<path d="M 116 143 L 109 147 L 116 147"/>
<path d="M 145 152 L 141 149 L 147 153 L 139 151"/>
<path d="M 57 78 L 44 90 L 35 107 L 34 130 L 42 154"/>
<path d="M 69 34 L 54 33 L 35 45 L 10 72 L 3 98"/>
<path d="M 85 9 L 59 9 L 38 15 L 14 27 L 0 44"/>
<path d="M 211 20 L 219 21 L 230 29 L 254 60 L 255 68"/>
<path d="M 197 81 L 201 81 L 228 116"/>
<path d="M 180 107 L 187 146"/>
<path d="M 192 107 L 213 129"/>
<path d="M 208 35 L 232 57 L 243 73"/>
<path d="M 75 23 L 50 27 L 10 48"/>
<path d="M 56 62 L 22 94 L 14 109"/>
</g>
</svg>
