<svg width="256" height="256" xmlns="http://www.w3.org/2000/svg">
<g stroke="black" fill="transparent" stroke-width="4">
<path d="M 71 32 L 47 33 L 33 38 L 17 51 L 3 70 L 0 80 L 3 90 L 15 96 L 30 98 L 77 96 L 94 87 L 101 79 L 103 60 L 95 42 L 81 33 L 62 32"/>
<path d="M 59 49 L 57 51"/>
<path d="M 74 32 L 74 23 L 78 14 L 96 1 L 108 1 L 106 22"/>
<path d="M 69 103 L 70 108"/>
<path d="M 71 100 L 71 141 L 76 171 L 84 189 L 98 196"/>
<path d="M 102 197 L 91 198 L 85 203 L 82 213 L 91 218 L 171 218 L 184 213 L 197 199 L 217 153 L 247 117 L 255 95 L 252 74 L 244 62 L 232 54 L 216 49 L 194 49 L 180 53 L 168 65 L 166 79 L 182 101 L 184 118 L 180 131 L 163 149 L 143 158 L 134 158 L 122 150 L 111 138 L 108 126 L 107 92 L 102 86"/>
<path d="M 66 137 L 55 139 L 48 151 L 51 153 L 74 142 L 51 157"/>
<path d="M 76 165 L 66 173 L 62 186 L 69 186 L 81 177"/>
<path d="M 77 111 L 87 134 L 97 183 L 108 195"/>
</g>
</svg>
