<svg width="256" height="256" xmlns="http://www.w3.org/2000/svg">
<g stroke="black" fill="transparent" stroke-width="4">
<path d="M 136 130 L 99 140 L 74 140 L 37 136 L 8 127"/>
<path d="M 1 125 L 0 132 L 4 143 L 16 148"/>
<path d="M 3 145 L 2 155 L 11 161"/>
<path d="M 9 161 L 9 167 L 15 170 L 60 173"/>
<path d="M 30 171 L 41 181 L 63 186 L 109 185 L 149 179 L 193 162 L 202 153 L 207 139 L 211 114 L 213 52 L 218 35 L 227 27 L 245 33 L 255 31 L 236 3 L 227 0 L 210 2 L 196 14 L 186 69 L 173 93 L 164 101 L 144 112 L 82 114 L 57 126 L 45 135"/>
</g>
</svg>
