<svg width="256" height="256" xmlns="http://www.w3.org/2000/svg">
<g stroke="black" fill="transparent" stroke-width="4">
<path d="M 31 32 L 54 2 L 52 27 L 84 40 L 100 29 L 121 28 L 123 32 L 114 43 L 103 49 L 102 76 L 93 95 L 85 101 L 55 102 L 48 96 L 46 79 L 29 57 L 25 47 L 25 34 L 34 25"/>
<path d="M 48 37 L 49 43 L 58 50"/>
<path d="M 79 58 L 95 57 L 95 62 L 85 66 L 77 60"/>
<path d="M 65 36 L 62 49"/>
<path d="M 69 40 L 69 40"/>
<path d="M 58 45 L 69 46"/>
<path d="M 24 40 L 26 44 L 48 56"/>
<path d="M 37 58 L 53 66"/>
<path d="M 86 67 L 102 71"/>
<path d="M 85 76 L 99 76"/>
<path d="M 63 74 L 66 73"/>
<path d="M 41 75 L 33 112 L 1 147 L 0 150 L 6 153 L 23 154 L 30 150 L 40 133 L 50 127 L 89 129 L 89 133 L 67 163 L 67 166 L 74 167 L 101 154 L 107 140 L 195 136 L 201 132"/>
<path d="M 106 69 L 154 45 L 177 39 L 192 44 L 209 58 L 213 57 L 237 27 L 242 14 L 243 0 L 246 0 L 255 9 L 253 31 L 249 40 L 221 68 L 241 92 L 247 105 L 244 119 L 242 118"/>
<path d="M 216 110 L 201 109 L 190 117 L 191 131 L 196 140 L 220 160 L 196 171 L 193 174 L 195 176 L 204 172 L 226 153 L 236 136 L 236 115 L 233 103 L 229 104"/>
<path d="M 107 81 L 113 130 L 115 120"/>
<path d="M 122 68 L 135 100 L 132 129 L 136 112"/>
<path d="M 138 56 L 157 94 L 162 120"/>
<path d="M 160 54 L 170 60 L 185 79 L 189 90 L 190 120 L 200 107"/>
<path d="M 200 54 L 204 68 L 205 102"/>
</g>
</svg>
