<svg width="256" height="256" xmlns="http://www.w3.org/2000/svg">
<g stroke="black" fill="transparent" stroke-width="4">
<path d="M 0 29 L 9 27 L 15 20 L 34 7 L 47 0 L 54 0 L 69 14 L 71 35 L 111 36 L 132 31 L 161 19 L 220 15 L 237 23 L 251 46 L 255 68 L 254 98 L 250 113 L 239 135 L 229 143 L 214 147 L 168 148 L 166 145 L 148 146 L 123 141 L 97 127 L 81 112 L 69 106 L 69 90 L 50 59 L 24 45 L 8 44 L 2 35"/>
<path d="M 237 48 L 231 48 L 230 52 L 230 56 L 236 57 L 238 52 L 233 51 L 232 55 L 234 53 L 231 54"/>
<path d="M 249 100 L 240 106 L 222 106"/>
</g>
</svg>
