<svg width="256" height="256" xmlns="http://www.w3.org/2000/svg">
<g stroke="black" fill="transparent" stroke-width="4">
<path d="M 42 20 L 3 56 L 0 65 L 2 79 L 14 87 L 27 88 L 61 61"/>
<path d="M 45 20 L 54 0 L 62 15"/>
<path d="M 65 21 L 108 46 L 123 66"/>
<path d="M 54 75 L 70 94"/>
<path d="M 115 51 L 158 36 L 200 30 L 234 36 L 255 47"/>
<path d="M 65 104 L 118 117 L 162 118 L 216 107 L 250 94"/>
<path d="M 134 52 L 139 63 L 139 84 L 124 117 L 143 86 L 144 47 L 137 108"/>
<path d="M 174 40 L 178 52 L 179 83 L 173 104 L 183 67 L 184 43 L 186 68 L 185 95 L 176 115"/>
<path d="M 224 44 L 216 94 L 223 87 L 228 71 L 231 46"/>
<path d="M 52 55 L 61 53 L 78 29 L 66 54 L 53 74 L 56 67 L 82 38"/>
<path d="M 70 86 L 92 62 L 101 46 L 83 77 L 99 60 L 89 69"/>
<path d="M 35 38 L 31 46 L 35 43"/>
<path d="M 65 20 L 80 7 L 80 19 L 94 14 L 94 23 L 104 24 L 105 33 L 118 43"/>
<path d="M 103 113 L 100 152"/>
<path d="M 115 116 L 111 152"/>
<path d="M 237 104 L 229 142"/>
<path d="M 253 95 L 244 140"/>
<path d="M 218 103 L 220 115 L 215 136"/>
<path d="M 84 122 L 83 147"/>
</g>
</svg>
