<svg width="256" height="256" xmlns="http://www.w3.org/2000/svg">
<g stroke="black" fill="transparent" stroke-width="4">
<path d="M 45 73 L 36 75 L 20 85 L 6 99 L 0 114 L 6 118 L 39 121 L 53 114 L 64 97 L 67 87 L 63 81 L 42 74"/>
<path d="M 72 92 L 155 64"/>
<path d="M 61 82 L 71 76 L 94 67 L 153 52"/>
<path d="M 152 44 L 152 62 L 157 68"/>
<path d="M 154 45 L 164 34 L 180 29 L 198 29 L 204 34 L 204 49 L 201 54 L 154 67"/>
<path d="M 197 26 L 198 16 L 205 7 L 217 1 L 231 0"/>
<path d="M 206 29 L 244 16"/>
<path d="M 166 45 L 166 45"/>
<path d="M 191 39 L 191 39"/>
<path d="M 167 42 L 168 42"/>
<path d="M 189 41 L 189 41"/>
<path d="M 187 36 L 190 36"/>
<path d="M 194 45 L 208 64 L 222 71 L 228 65 L 225 51"/>
<path d="M 230 51 L 202 48"/>
<path d="M 211 33 L 216 30 L 251 36 L 255 37 L 252 42 L 228 45 L 199 39"/>
<path d="M 82 89 L 79 97 L 82 134"/>
<path d="M 108 82 L 107 129 L 110 137"/>
<path d="M 126 72 L 135 126"/>
<path d="M 148 63 L 145 67 L 153 110 L 157 111"/>
<path d="M 166 66 L 177 107"/>
<path d="M 54 115 L 53 124 L 59 152"/>
</g>
</svg>
