<svg width="256" height="256" xmlns="http://www.w3.org/2000/svg">
<g stroke="black" fill="transparent" stroke-width="4">
<path d="M 105 53 L 70 44 L 36 45 L 10 71 L 0 89 L 0 114 L 8 142 L 20 97 L 24 91 L 30 96"/>
<path d="M 28 92 L 41 131 L 67 109 L 75 92"/>
<path d="M 145 52 L 190 54 L 235 83 L 252 103 L 255 114 L 248 144 L 227 117 L 200 106 L 195 107 L 190 130 L 187 133 L 171 112 L 145 88"/>
<path d="M 105 48 L 95 78 L 92 123 L 99 136 L 115 140 L 138 123 L 150 102 L 151 79 L 144 51 L 137 45"/>
<path d="M 106 47 L 105 21 L 110 18 L 118 0 L 123 13 L 134 16 L 153 3 L 155 17 L 152 26 L 153 43 L 143 51 L 137 52"/>
</g>
</svg>
