<svg width="256" height="256" xmlns="http://www.w3.org/2000/svg">
<g stroke="black" fill="transparent" stroke-width="4">
<path d="M 22 227 L 13 212 L 9 197 L 8 150 L 10 141 L 24 127 L 43 119 L 64 121 L 85 135 L 94 146 L 99 162 L 99 183 L 90 202 L 71 221 L 55 227 L 27 231"/>
<path d="M 18 224 L 20 227 L 23 253 L 34 255 L 40 243 L 41 229 L 52 251 L 61 254 L 66 251 L 70 222"/>
<path d="M 28 144 L 32 191 L 37 199 L 45 186 L 50 159 L 56 193 L 63 199 L 75 196 L 80 183 L 80 162"/>
<path d="M 42 119 L 30 111 L 25 99 L 23 56 L 40 35 L 60 28 L 72 29 L 86 42 L 96 60 L 101 78 L 102 100 L 99 111 L 90 124 L 78 132 L 71 133"/>
<path d="M 69 30 L 91 8 L 108 0 L 114 13 L 113 31 L 97 54"/>
<path d="M 46 34 L 44 30 L 31 22 L 8 19 L 2 23 L 2 53 L 8 60 L 22 65"/>
<path d="M 36 68 L 36 55"/>
<path d="M 69 68 L 71 60"/>
</g>
</svg>
