<svg width="256" height="256" xmlns="http://www.w3.org/2000/svg">
<g stroke="black" fill="transparent" stroke-width="4">
<path d="M 57 128 L 49 138 L 43 163 L 42 210 L 44 222 L 53 237 L 69 250 L 101 255 L 127 255 L 133 251 L 146 237 L 158 213 L 162 163 L 156 142 L 144 119 L 133 110 L 119 103 L 87 101 L 71 105 L 58 113 L 50 125"/>
<path d="M 119 45 L 106 47 L 95 54 L 85 68 L 83 83 L 84 88 L 97 97 L 120 97 L 136 81 L 141 70 L 140 49 L 137 45 L 125 36 L 111 36 L 101 41 L 88 59"/>
<path d="M 53 135 L 60 141 L 172 141"/>
<path d="M 57 152 L 87 152 L 147 164 L 181 164 L 185 159 L 173 154 L 128 154 L 74 148 L 88 143 L 114 142 L 134 146 L 128 147 L 55 146"/>
<path d="M 59 177 L 96 184 L 189 193"/>
<path d="M 55 211 L 105 209 L 142 218 L 170 218 L 166 213 L 153 210 L 88 201 L 66 201 L 126 207 L 103 202 L 62 203 L 79 210 L 152 214 L 86 201 L 59 202 L 54 205 L 61 208 L 92 209 L 119 216 L 163 220"/>
<path d="M 62 203 L 51 202"/>
<path d="M 57 135 L 29 121 L 12 121 L 0 140 L 1 160 L 59 183 L 72 183"/>
<path d="M 178 114 L 178 121 L 213 119 L 218 122 L 218 157 L 211 166 L 195 171 L 173 174 L 162 172"/>
<path d="M 192 113 L 183 110 L 171 111 L 152 120 L 148 128"/>
<path d="M 111 57 L 108 64 L 113 58"/>
<path d="M 133 67 L 129 72 L 130 77 L 138 57 L 138 61"/>
<path d="M 118 75 L 116 80 L 120 84 L 132 83"/>
<path d="M 122 37 L 117 21 L 95 0"/>
<path d="M 140 38 L 139 26 L 143 20 L 150 15 L 167 14"/>
<path d="M 147 185 L 139 186"/>
</g>
</svg>
