<svg width="256" height="256" xmlns="http://www.w3.org/2000/svg">
<g stroke="black" fill="transparent" stroke-width="4">
<path d="M 47 51 L 24 93 L 29 98 L 40 101 L 73 95"/>
<path d="M 83 105 L 57 79 L 52 68 L 51 51 L 63 23 L 90 4 L 119 0 L 143 7 L 156 18 L 169 33 L 175 48 L 176 63 L 172 78 L 165 88 L 136 108 L 108 115 L 91 113 L 79 107"/>
<path d="M 88 52 L 88 52"/>
<path d="M 95 112 L 108 136 L 119 181"/>
<path d="M 161 94 L 192 109 L 202 125 L 204 142 L 201 152 L 185 158 L 169 154 L 163 146 L 180 163 L 183 171 L 179 176 L 165 177 L 148 170"/>
<path d="M 107 168 L 114 207 L 133 219 L 155 223 L 170 221 L 177 213 L 179 198 L 176 168"/>
<path d="M 121 214 L 112 238 L 98 238 L 89 243 L 109 239 L 111 253 L 114 240 L 118 240 L 128 255"/>
<path d="M 163 227 L 160 240 L 153 242 L 144 252 L 159 240 L 162 242 L 163 249 L 164 237 L 169 235 L 183 241 L 193 250"/>
<path d="M 95 123 L 79 173 L 95 170 L 101 180 L 110 177"/>
<path d="M 88 49 L 98 47 L 104 52 L 101 60 L 98 60 L 97 56 L 96 59"/>
<path d="M 51 47 L 35 75 L 12 104 L 19 106 L 84 95 L 59 101 L 0 109 L 23 93 L 51 65 L 19 98 L 59 57 L 21 101 L 47 76 L 41 92 L 52 84 L 49 98 L 63 91 L 59 100"/>
</g>
</svg>
