<svg width="256" height="256" xmlns="http://www.w3.org/2000/svg">
<g stroke="black" fill="transparent" stroke-width="4">
<path d="M 74 62 L 77 18 L 43 0 L 30 0 L 16 8 L 5 24 L 0 41 L 1 47 L 12 54 L 58 58 L 57 172 L 45 192 L 46 201 L 52 206 L 59 203 L 68 195 L 78 172 L 97 166 L 99 181 L 89 185 L 86 203 L 95 212 L 104 216 L 119 197 L 123 169 L 143 170 L 145 171 L 146 192 L 141 194 L 136 200 L 133 223 L 139 226 L 148 222 L 165 207 L 170 198 L 173 184 L 192 178 L 194 193 L 185 194 L 182 211 L 186 220 L 199 227 L 215 206 L 219 184 L 233 177 L 246 159 L 254 133 L 255 103 L 244 85 L 231 78 L 215 89 L 197 111 L 190 73 L 176 67 L 160 78 L 142 103 L 141 75 L 137 64 L 126 59 L 117 59 L 85 75 L 72 76 L 72 54"/>
</g>
</svg>
