<svg width="256" height="256" xmlns="http://www.w3.org/2000/svg">
<g stroke="black" fill="transparent" stroke-width="4">
<path d="M 49 48 L 66 0 L 71 49"/>
<path d="M 75 49 L 45 45 L 31 51 L 20 65 L 18 80 L 20 90 L 32 105 L 47 112 L 70 112 L 92 103 L 105 87 L 104 75 L 88 58 L 77 54"/>
<path d="M 78 48 L 99 17 L 100 24 L 89 61"/>
<path d="M 109 82 L 119 70 L 135 63 L 168 57 L 193 60 L 217 68 L 229 78 L 233 93 L 226 107 L 217 114 L 199 119 L 158 121 L 127 115 L 95 99"/>
<path d="M 123 115 L 105 168"/>
<path d="M 169 122 L 164 173"/>
<path d="M 205 115 L 216 165"/>
<path d="M 224 106 L 244 130 L 254 160"/>
<path d="M 254 157 L 244 159 L 239 163 L 244 167 L 252 163 L 255 161 L 252 159 L 247 161"/>
<path d="M 221 164 L 204 165 L 201 169 L 207 169 L 213 166 L 213 163 L 210 164"/>
<path d="M 166 170 L 149 174 L 149 176 L 155 178 L 164 172"/>
<path d="M 111 172 L 99 170 L 92 173 L 102 171"/>
<path d="M 26 87 L 43 87"/>
<path d="M 21 71 L 17 65 L 10 63 L 7 67 L 10 69 L 23 75 L 22 69 L 30 64 L 21 72 L 35 75 L 18 75 L 0 84"/>
<path d="M 45 62 L 45 63"/>
</g>
</svg>
