<svg width="256" height="256" xmlns="http://www.w3.org/2000/svg">
<g stroke="black" fill="transparent" stroke-width="4">
<path d="M 33 31 L 107 30 L 151 38 L 174 39 L 190 32 L 213 6 L 224 1 L 243 0 L 249 3 L 254 14 L 254 64 L 248 70 L 225 75 L 204 99 L 199 111 L 199 151 L 194 159 L 183 169 L 180 163 L 178 134 L 179 101 L 175 98 L 71 99 L 54 93 L 57 145 L 50 158 L 46 158 L 33 142 L 27 107 L 28 40 L 18 39 L 3 58 L 0 126 L 8 128 L 12 120 L 17 72 L 22 62"/>
<path d="M 47 55 L 50 65 L 59 77 L 75 80 L 80 92 L 86 93 L 99 86 L 105 77 L 106 64 L 103 59 L 80 48 L 57 48 L 51 51"/>
<path d="M 151 72 L 147 67 L 148 54 L 191 56 L 196 64 L 198 85 L 184 104 L 179 106 L 170 104 L 159 95 L 158 85 L 163 73 L 148 69"/>
<path d="M 220 30 L 219 34 L 223 38 L 246 40"/>
<path d="M 232 25 L 235 28"/>
<path d="M 224 25 L 224 25"/>
<path d="M 238 12 L 246 17"/>
<path d="M 215 13 L 215 13"/>
</g>
</svg>
