<svg width="256" height="256" xmlns="http://www.w3.org/2000/svg">
<g stroke="black" fill="transparent" stroke-width="4">
<path d="M 100 92 L 64 59 L 57 40 L 65 30 L 117 1 L 121 0 L 125 3 L 173 62 L 168 65 L 115 72 L 103 80 L 95 94"/>
<path d="M 58 46 L 51 46 L 46 52"/>
<path d="M 64 58 L 52 67 L 45 78"/>
<path d="M 85 80 L 63 92 L 86 86"/>
<path d="M 121 9 L 123 12 L 165 13"/>
<path d="M 149 27 L 175 33"/>
<path d="M 163 51 L 185 58"/>
<path d="M 102 76 L 104 99 L 110 119 L 123 130 L 138 136 L 151 137 L 136 126 L 127 109 L 122 86 L 123 68 L 125 63 L 129 62 L 149 75 L 172 95 L 180 108 L 186 77 L 180 64 L 173 59"/>
<path d="M 97 62 L 98 58"/>
<path d="M 144 52 L 141 47"/>
<path d="M 138 68 L 139 88 L 161 84 L 162 100 L 180 103"/>
<path d="M 126 72 L 126 75 L 142 82 L 128 92 L 138 97 L 136 117"/>
<path d="M 27 218 L 23 209 L 18 205 L 10 206 L 1 217 L 0 227 L 30 255 L 36 251"/>
<path d="M 42 222 L 43 234 L 48 223 L 55 224"/>
<path d="M 61 225 L 63 236 L 67 222 L 78 234"/>
</g>
</svg>
