<svg width="256" height="256" xmlns="http://www.w3.org/2000/svg">
<g stroke="black" fill="transparent" stroke-width="4">
<path d="M 158 46 L 155 15 L 159 7 L 170 1 L 185 0 L 194 6 L 199 17 L 200 36"/>
<path d="M 200 36 L 201 17 L 206 11 L 223 6 L 230 8 L 242 15 L 251 28 L 251 40 L 247 51"/>
<path d="M 250 50 L 181 46 L 88 49 L 30 45 L 10 50 L 0 71 L 0 76 L 8 81 L 62 89 L 135 95 L 216 97"/>
<path d="M 144 97 L 111 98 L 19 116 L 7 126 L 4 136 L 16 147 L 35 152 L 61 155 L 98 155 L 202 139 L 255 126"/>
<path d="M 25 84 L 33 96 L 45 85"/>
<path d="M 27 110 L 32 102 L 38 98 L 45 110"/>
<path d="M 171 17 L 177 13 L 182 15 L 185 26 L 175 28 L 172 25 L 172 17"/>
<path d="M 226 33 L 233 35 L 234 38 L 228 42 L 222 37 L 225 30"/>
<path d="M 63 87 L 69 94 L 79 88"/>
<path d="M 66 107 L 66 104 L 77 97"/>
</g>
</svg>
