<svg width="256" height="256" xmlns="http://www.w3.org/2000/svg">
<g stroke="black" fill="transparent" stroke-width="4">
<path d="M 176 16 L 140 18 L 134 0 L 125 8 L 119 19 L 104 12 L 89 11 L 61 32 L 63 51 L 72 58 L 84 63 L 130 67 L 177 43 L 199 50 L 225 52 L 222 47 L 192 30 L 215 19 L 191 17 L 182 21 L 171 17"/>
<path d="M 88 35 L 91 34 L 89 36"/>
<path d="M 0 82 L 8 81 L 26 70 L 33 79 L 49 83 L 59 81 L 65 75 L 70 82 L 82 75 L 92 80 L 116 81 L 131 77 L 159 75 L 166 82 L 173 83 L 189 82 L 202 75 L 225 79 L 255 79"/>
</g>
</svg>
