<svg width="256" height="256" xmlns="http://www.w3.org/2000/svg">
<g stroke="black" fill="transparent" stroke-width="4">
<path d="M 111 71 L 112 55 L 105 40 L 96 30 L 83 21 L 54 16 L 22 21 L 9 28 L 4 35 L 6 38 L 33 38 L 46 42 L 52 47 L 51 54 L 34 58 L 5 57 L 1 62 L 1 67 L 33 76 L 46 86 L 69 138 L 91 159 L 115 168 L 143 172 L 175 170 L 185 174"/>
<path d="M 104 71 L 133 60 L 147 57 L 160 58 L 181 70 L 196 83 L 207 100 L 224 154 L 222 165 L 208 169 L 117 169"/>
<path d="M 206 104 L 223 105 L 234 109 L 232 115 L 199 116 L 244 136 L 255 149 L 228 151 L 253 172"/>
<path d="M 45 25 L 47 24 L 48 28 L 45 22 L 53 22"/>
<path d="M 22 17 L 38 1 L 48 3 L 49 14 L 51 9 L 67 0 L 68 23 L 81 13 L 90 18 L 90 33 L 92 34 L 112 20 L 114 49 L 127 36 L 128 41"/>
<path d="M 89 160 L 70 147 L 51 144"/>
<path d="M 145 172 L 124 184 L 122 198"/>
<path d="M 111 174 L 85 176"/>
</g>
</svg>
