<svg width="256" height="256" xmlns="http://www.w3.org/2000/svg">
<g stroke="black" fill="transparent" stroke-width="4">
<path d="M 95 11 L 76 25 L 64 28 L 0 31 L 6 40 L 15 44 L 67 45 L 31 61 L 14 64 L 17 67 L 73 69 L 116 49 L 131 36 L 134 29 L 134 10 L 116 0 L 104 1 L 95 7 L 89 24"/>
<path d="M 100 17 L 96 18 L 95 25 L 97 27 L 108 26 L 107 17 L 98 20"/>
<path d="M 79 69 L 76 77 L 77 92 L 91 116"/>
<path d="M 128 39 L 130 48 L 139 57 L 185 69 L 201 68 L 224 54"/>
<path d="M 224 55 L 239 62 L 254 92 L 252 124 L 241 150 L 189 154 L 163 143 L 137 125 L 96 108"/>
<path d="M 123 118 L 122 177 L 113 181 L 88 181 L 81 177"/>
<path d="M 77 178 L 77 185 L 83 191 L 105 193 L 121 184 L 128 177"/>
</g>
</svg>
