<svg width="256" height="256" xmlns="http://www.w3.org/2000/svg">
<g stroke="black" fill="transparent" stroke-width="4">
<path d="M 247 70 L 194 70 L 165 64 L 158 57 L 155 47 L 157 16"/>
<path d="M 248 71 L 254 97 L 183 98 L 146 91 L 134 99 L 128 108 L 118 109 L 44 109 L 17 102 L 8 87 L 13 53 L 23 30 L 40 14 L 72 3 L 115 0 L 145 7 L 157 16"/>
<path d="M 129 26 L 125 30 L 128 32 L 137 31 L 138 28 L 127 24"/>
<path d="M 121 44 L 133 52 L 139 51 L 144 47"/>
<path d="M 20 105 L 0 165 L 2 167 L 19 167 L 32 108"/>
<path d="M 46 110 L 46 165 L 30 166 L 33 109"/>
<path d="M 101 110 L 105 162 L 125 158 L 116 136 L 112 109"/>
<path d="M 121 111 L 127 137 L 139 165 L 153 161 L 126 114"/>
</g>
</svg>
