<svg width="256" height="256" xmlns="http://www.w3.org/2000/svg">
<g stroke="black" fill="transparent" stroke-width="4">
<path d="M 92 145 L 90 241"/>
<path d="M 93 145 L 89 197 L 89 240 L 89 244 L 102 255"/>
<path d="M 89 244 L 84 255"/>
<path d="M 87 248 L 84 246 L 67 251"/>
<path d="M 92 146 L 95 145 L 106 234 L 107 243 L 102 255"/>
<path d="M 109 243 L 113 254 L 117 255"/>
<path d="M 109 242 L 122 254 L 129 255"/>
<path d="M 92 137 L 86 134 L 76 120 L 75 94 L 82 76 L 92 62 L 102 56 L 115 54 L 146 55 L 160 69 L 163 85 L 163 115 L 159 144 L 138 165 L 125 172 L 110 172 L 85 159 L 77 148 L 75 138"/>
<path d="M 123 53 L 121 8 L 128 2 L 163 1 L 180 10 L 198 28 L 151 26 L 127 29"/>
<path d="M 152 25 L 154 22 L 173 27 L 189 20"/>
<path d="M 160 86 L 166 78 L 180 72 L 198 70 L 208 75 L 219 92 L 220 108 L 217 122 L 194 156 L 180 162 L 166 161 L 152 153 L 144 143 L 142 128"/>
<path d="M 80 85 L 72 77 L 59 72 L 49 73 L 25 89 L 7 108 L 0 119 L 1 130 L 8 143 L 18 159 L 32 172 L 57 173 L 86 164 L 108 153 L 114 146 L 111 138"/>
</g>
</svg>
