<svg width="256" height="256" xmlns="http://www.w3.org/2000/svg">
<g stroke="black" fill="transparent" stroke-width="4">
<path d="M 73 120 L 10 114 L 2 108 L 0 94 L 3 79 L 20 57 L 40 45 L 76 32 L 158 14 L 199 11 L 231 0 L 248 3 L 255 14 L 255 28 L 250 38 L 203 80 L 196 83"/>
<path d="M 238 8 L 238 8"/>
<path d="M 238 8 L 238 8"/>
<path d="M 237 8 L 240 10 L 243 5 L 238 5 L 237 9"/>
<path d="M 241 42 L 202 42"/>
<path d="M 221 66 L 184 94 L 200 100 L 218 116"/>
<path d="M 183 96 L 166 96 L 112 107 L 1 107"/>
</g>
</svg>
