<svg width="256" height="256" xmlns="http://www.w3.org/2000/svg">
<g stroke="black" fill="transparent" stroke-width="4">
<path d="M 20 133 L 19 94 L 31 43"/>
<path d="M 35 125 L 48 73 L 54 32"/>
<path d="M 36 126 L 58 118 L 81 115 L 124 115 L 155 119 L 177 126 L 189 137 L 183 148 L 174 152 L 156 156 L 95 156 L 16 145 L 5 141 L 4 139 L 8 136"/>
<path d="M 22 156 L 11 240 L 11 250 L 14 245"/>
<path d="M 66 169 L 56 230 L 54 252 L 54 255 L 56 252"/>
<path d="M 118 155 L 125 226 L 131 247"/>
<path d="M 172 166 L 172 195 L 182 235"/>
<path d="M 28 45 L 8 41 L 4 36 L 0 25 L 10 8 L 24 1 L 38 0 L 48 4 L 57 13 L 54 23"/>
<path d="M 21 17 L 26 21"/>
<path d="M 33 21 L 33 24"/>
<path d="M 15 29 L 19 33 L 36 36 L 44 27"/>
<path d="M 65 133 L 72 143 L 77 144 L 82 136 L 79 127 L 70 123 L 67 135"/>
<path d="M 104 121 L 109 134 L 119 138 L 122 134 L 122 119"/>
<path d="M 132 146 L 133 140 L 138 136 L 159 133 L 170 142 L 174 155"/>
<path d="M 23 79 L 29 95"/>
</g>
</svg>
