<svg width="256" height="256" xmlns="http://www.w3.org/2000/svg">
<g stroke="black" fill="transparent" stroke-width="4">
<path d="M 0 164 L 3 150 L 30 106 L 46 93 L 84 80 L 139 80 L 199 90 L 207 93 L 218 106 L 228 128 L 228 150 L 221 163 L 207 175 L 183 183 L 147 188 L 81 188 L 31 179 L 7 164"/>
<path d="M 207 132 L 202 145 L 195 149 L 186 149 L 184 141"/>
<path d="M 205 132 L 204 152 L 213 151"/>
<path d="M 204 119 L 202 119"/>
<path d="M 211 118 L 211 118"/>
<path d="M 213 118 L 213 119"/>
<path d="M 191 148 L 191 163 L 194 164 L 211 148"/>
<path d="M 36 106 L 53 51 L 74 12 L 75 39 L 80 61 L 141 17 L 165 4 L 180 0 L 183 5 L 182 55 L 220 26 L 237 19 L 236 51 L 231 70 L 253 61 L 255 73 L 232 124"/>
<path d="M 55 170 L 55 210 L 61 209"/>
<path d="M 106 196 L 108 210 L 121 203"/>
<path d="M 151 182 L 151 205 L 154 204"/>
<path d="M 189 186 L 192 215"/>
</g>
</svg>
