<svg width="256" height="256" xmlns="http://www.w3.org/2000/svg">
<g stroke="black" fill="transparent" stroke-width="4">
<path d="M 60 18 L 49 16 L 27 29 L 6 50 L 0 64 L 4 76 L 21 84 L 36 82 L 53 73 L 62 64 L 63 66 L 66 144 L 50 152 L 39 169 L 54 172 L 72 163 L 110 158 L 111 145 L 99 80 L 101 78 L 140 94 L 178 94 L 178 155 L 150 160 L 144 163 L 146 168 L 168 169 L 216 162 L 218 159 L 217 106 L 207 62 L 197 44 L 179 35 L 158 32 L 140 33 L 110 40 L 94 40 L 83 22 L 64 17"/>
<path d="M 82 12 L 78 2 L 70 0 L 64 6 L 63 17"/>
<path d="M 38 20 L 59 16 L 25 32 L 48 20 L 41 20 L 9 38 L 18 37 L 63 17 L 25 38 L 28 40 L 61 22 L 63 20 L 59 20 L 79 18 L 90 30 L 90 27 L 99 49 L 88 22 L 93 56 L 85 45 L 81 31 L 91 59 L 91 73 L 88 75 L 83 42 L 86 41 L 88 50 L 88 67 L 85 80 L 97 46 L 100 57 L 94 84 L 99 63"/>
<path d="M 41 44 L 41 50 L 36 50 L 37 46 L 42 46"/>
<path d="M 195 36 L 202 21 L 214 16 L 231 14 L 211 21 L 193 34 L 229 25 L 183 35 L 240 32 L 255 39 L 246 43 L 236 43 L 190 37 L 200 35 L 230 43 L 247 53 L 255 63 L 247 65 L 189 40 L 218 54 L 241 74 L 251 86 L 246 85 L 233 71 L 214 34 L 241 79 L 242 89 L 200 36 L 191 30 L 225 61 L 231 73 L 231 89"/>
</g>
</svg>
