<svg width="256" height="256" xmlns="http://www.w3.org/2000/svg">
<g stroke="black" fill="transparent" stroke-width="4">
<path d="M 51 88 L 40 91 L 33 88 L 26 74 L 60 38 L 70 0 L 74 7 L 81 42 L 91 60 L 104 100 L 114 169 L 129 177 L 158 173 L 174 164 L 190 144 L 201 119 L 205 94 L 202 69 L 194 48 L 209 59 L 218 78 L 232 117 L 234 141 L 223 166 L 185 207 L 171 214 L 125 221 L 65 242 L 43 255 L 37 252 L 22 236 L 24 231 L 43 220 L 52 210 L 45 176 L 64 136 L 57 132 L 31 136 L 39 124 L 64 115 L 70 110 L 72 105 L 65 90"/>
<path d="M 65 90 L 49 92"/>
<path d="M 39 175 L 7 185 L 0 196 L 4 202 L 15 206 L 37 198"/>
<path d="M 27 198 L 40 198 L 53 192"/>
<path d="M 64 94 L 56 99 L 33 104 L 31 111 L 36 117 L 55 114"/>
<path d="M 66 57 L 66 59"/>
<path d="M 50 248 L 32 254 L 24 252 L 21 246 L 22 238 L 35 232"/>
</g>
</svg>
