<svg width="256" height="256" xmlns="http://www.w3.org/2000/svg">
<g stroke="black" fill="transparent" stroke-width="4">
<path d="M 96 78 L 121 68 L 146 69 L 171 82 L 189 109 L 194 142 L 190 156 L 181 169 L 167 180 L 152 186 L 135 187 L 118 183 L 104 172 L 92 159 L 78 126 L 75 87 L 83 70 L 92 63 L 111 61 L 117 62 L 121 72"/>
<path d="M 109 13 L 119 7 L 150 0 L 154 3 L 155 9 L 158 41 L 161 42 L 198 34 L 230 32 L 230 45 L 217 64 L 236 65 L 249 70 L 253 75 L 255 88 L 245 104 L 212 116 L 210 120 L 212 128 L 234 170 L 237 181 L 235 193 L 221 198 L 195 192 L 196 217 L 192 222 L 147 207 L 140 233 L 133 239 L 119 238 L 92 215 L 90 226 L 83 229 L 71 220 L 58 196 L 57 178 L 65 160 L 35 163 L 26 158 L 28 148 L 51 120 L 10 100 L 3 96 L 0 88 L 3 83 L 15 77 L 60 71 L 42 51 L 40 41 L 58 32 L 91 31 L 92 14 L 99 7 L 117 6 L 144 22"/>
<path d="M 106 108 L 106 108"/>
<path d="M 162 113 L 162 113"/>
<path d="M 104 98 L 106 103 L 106 106 L 104 104"/>
<path d="M 156 100 L 157 108 L 153 109 L 153 104"/>
<path d="M 146 125 L 117 127 L 131 145 L 134 145 L 138 132 L 142 129"/>
<path d="M 127 146 L 129 190"/>
</g>
</svg>
