<svg width="256" height="256" xmlns="http://www.w3.org/2000/svg">
<g stroke="black" fill="transparent" stroke-width="4">
<path d="M 88 69 L 79 72 L 75 83 L 80 90 L 95 97 L 97 106 L 90 110 L 73 111 L 64 108 L 59 100 L 57 101 L 54 111 L 64 117 L 60 125 L 62 132 L 69 131 L 75 118 L 98 119 L 105 115 L 110 101 L 109 84"/>
<path d="M 90 70 L 91 60 L 87 49 L 81 44 L 66 43 L 62 36 L 64 28 L 76 32 L 76 23 L 80 18 L 84 19 L 91 34 L 100 42 L 108 68 L 144 67 L 160 46 L 171 44 L 178 46 L 181 51 L 180 60 L 165 75 L 172 92 L 170 98 L 152 98 L 133 84 L 109 83"/>
<path d="M 73 75 L 53 64"/>
<path d="M 75 82 L 54 88"/>
<path d="M 85 77 L 83 79 L 88 80 L 84 77"/>
<path d="M 85 84 L 84 88 L 88 87 L 85 85"/>
<path d="M 111 76 L 112 81"/>
<path d="M 120 75 L 120 79"/>
<path d="M 127 76 L 127 81"/>
<path d="M 135 75 L 135 79"/>
<path d="M 153 63 L 169 53"/>
<path d="M 159 67 L 172 57"/>
<path d="M 145 84 L 150 85 L 155 94"/>
<path d="M 151 79 L 156 81 L 161 93"/>
<path d="M 131 126 L 143 122 L 151 108 L 154 118 L 168 125 L 174 125 L 182 119 L 190 106 L 198 119 L 214 122 L 220 119 L 231 104 L 242 121 L 255 123"/>
<path d="M 0 18 L 20 18 L 31 4 L 42 14 L 53 16 L 66 8 L 70 1 L 81 13 L 104 16 L 113 10 L 117 0 L 136 17 L 148 18 L 156 14"/>
</g>
</svg>
