<svg width="256" height="256" xmlns="http://www.w3.org/2000/svg">
<g stroke="black" fill="transparent" stroke-width="4">
<path d="M 76 151 L 63 151 L 55 146 L 43 136 L 34 121 L 29 100 L 31 69 L 43 46 L 62 32 L 83 26 L 98 26 L 112 31 L 125 44 L 138 70 L 140 101 L 119 127 L 87 144 L 72 148"/>
<path d="M 49 111 L 46 84 L 57 58 L 63 53 L 69 53 L 85 59 L 104 46 L 112 48 L 126 62 L 135 85 L 137 108"/>
<path d="M 53 101 L 48 119 L 48 137"/>
<path d="M 76 84 L 70 86"/>
<path d="M 104 78 L 103 81 L 105 81 L 103 81"/>
<path d="M 91 103 L 93 106 L 91 105"/>
<path d="M 99 104 L 92 115 L 75 122"/>
<path d="M 99 101 L 109 111 L 120 111 L 128 106"/>
<path d="M 67 155 L 43 156 L 21 140 L 6 113 L 0 81 L 2 56 L 17 30 L 36 14 L 49 10 L 62 12 L 62 17 L 37 35 L 23 52 L 19 63 L 18 79 L 38 125 L 71 160"/>
<path d="M 114 122 L 135 115 L 149 104 L 159 89 L 161 68 L 149 37 L 133 28 L 106 20 L 104 17 L 104 9 L 118 1 L 136 1 L 155 11 L 175 36 L 179 46 L 180 72 L 141 129 L 141 136 L 154 157 L 164 184 L 166 207 L 161 222"/>
<path d="M 66 162 L 61 176 L 58 222 L 61 239 L 70 254 L 79 255 L 85 251 L 109 214 L 110 227 L 115 239 L 122 243 L 131 244 L 137 240 L 153 216 L 168 208"/>
</g>
</svg>
