<svg width="256" height="256" xmlns="http://www.w3.org/2000/svg">
<g stroke="black" fill="transparent" stroke-width="4">
<path d="M 121 48 L 144 39 L 162 40 L 172 44 L 179 49 L 185 61 L 185 74 L 183 82 L 167 89 L 146 83 L 132 72 L 120 52 L 46 95 L 35 110 L 42 117"/>
<path d="M 56 123 L 84 111 L 117 83 L 124 73 L 125 60"/>
<path d="M 106 60 L 90 22 L 70 0 L 65 8 L 63 28 L 72 72 L 62 62 L 27 14 L 20 8 L 12 9 L 3 18 L 0 29 L 7 49 L 22 64 L 60 83"/>
<path d="M 184 77 L 210 93 L 255 132"/>
<path d="M 157 57 L 161 56"/>
<path d="M 52 114 L 70 160"/>
<path d="M 76 119 L 84 151"/>
<path d="M 106 85 L 115 134"/>
</g>
</svg>
