<svg width="256" height="256" xmlns="http://www.w3.org/2000/svg">
<g stroke="black" fill="transparent" stroke-width="4">
<path d="M 76 96 L 60 110 L 56 122 L 70 141 L 77 144 L 60 157 L 69 187 L 79 192 L 104 194 L 114 191 L 123 207 L 150 218 L 185 197 L 220 197 L 243 170 L 248 146 L 244 122"/>
<path d="M 112 129 L 120 75 L 145 63 L 166 61 L 190 70 L 202 93 L 204 111 L 197 129 L 178 144 L 163 151 L 143 151"/>
<path d="M 76 94 L 89 109 L 118 116"/>
<path d="M 199 122 L 242 120 L 250 114"/>
<path d="M 127 86 L 140 110"/>
<path d="M 145 112 L 182 109"/>
<path d="M 127 98 L 125 102 L 127 105 L 132 107 L 139 106"/>
<path d="M 152 113 L 157 121 L 171 112 L 171 108"/>
<path d="M 153 117 L 153 116"/>
<path d="M 129 97 L 128 98"/>
<path d="M 74 142 L 78 171 L 109 191 L 121 191 L 121 196 L 130 200 L 182 195 L 195 185 L 223 141 L 230 121 L 223 119"/>
<path d="M 76 99 L 76 138 L 83 150 L 79 149"/>
<path d="M 0 0 L 0 0"/>
</g>
</svg>
