<svg width="256" height="256" xmlns="http://www.w3.org/2000/svg">
<g stroke="black" fill="transparent" stroke-width="4">
<path d="M 35 24 L 17 7 L 18 17 L 27 36"/>
<path d="M 42 22 L 104 19 L 124 27 L 137 41"/>
<path d="M 137 33 L 165 0 L 159 31"/>
<path d="M 160 36 L 157 86 L 127 135 L 125 198 L 120 214 L 105 227 L 76 233"/>
<path d="M 9 59 L 1 105 L 0 147 L 10 205 L 22 220 L 58 230"/>
<path d="M 33 223 L 21 229 L 11 245 L 21 245 L 34 229"/>
<path d="M 80 231 L 102 247 L 108 255 L 98 254 L 78 238"/>
<path d="M 42 54 L 36 58 L 27 70 L 27 86 L 30 94 L 48 100 L 68 100 L 73 93 L 74 63 L 69 56 L 59 48 L 37 44 L 26 44 L 13 53"/>
<path d="M 118 61 L 110 57 L 87 60 L 83 71 L 83 95 L 86 103 L 96 108 L 116 108 L 122 105 L 131 92 L 130 64 L 116 53 L 106 51"/>
<path d="M 62 117 L 61 141 L 68 138 L 75 130"/>
</g>
</svg>
