<svg width="256" height="256" xmlns="http://www.w3.org/2000/svg">
<g stroke="black" fill="transparent" stroke-width="4">
<path d="M 84 142 L 59 130 L 39 112 L 35 102 L 38 89 L 50 72 L 78 50 L 107 40 L 122 44 L 132 56 L 136 75 L 133 97 L 124 118 L 109 135 L 73 136"/>
<path d="M 50 87 L 47 56 L 43 45 L 32 36 L 18 37 L 5 60 L 0 81 L 5 89 L 12 92 L 33 93"/>
<path d="M 97 51 L 99 26 L 112 5 L 134 0 L 152 6 L 159 22 L 144 59 L 132 68 L 120 67"/>
<path d="M 79 101 L 78 100"/>
<path d="M 99 90 L 99 89"/>
<path d="M 91 120 L 102 120 L 107 117 L 114 104"/>
<path d="M 94 141 L 60 167 L 58 183 L 67 202 L 77 209 L 90 212 L 111 214 L 131 207 L 138 200 L 142 191 L 144 165 L 143 150 L 139 139 L 129 129 L 116 129 L 108 134 L 96 146 L 89 159"/>
<path d="M 144 145 L 155 124 L 171 108 L 206 98 L 214 105 L 214 121 L 205 137 L 186 149 L 149 161"/>
<path d="M 72 162 L 38 130 L 31 126 L 18 131 L 3 155 L 4 166 L 22 177 L 49 182"/>
<path d="M 84 204 L 64 206 L 52 216 L 44 233 L 43 244 L 45 250 L 53 255 L 68 253 L 84 244 L 101 220 L 103 206"/>
<path d="M 124 209 L 110 243 L 113 248 L 119 250 L 133 247 L 143 239 L 156 220 L 157 209 L 154 202 L 140 193 L 131 191 L 119 195"/>
<path d="M 89 170 L 94 158 L 102 148 L 83 176 L 76 184 L 80 175 L 117 131 L 86 165 L 59 189 L 83 158 L 106 135 L 111 132 L 104 141 L 86 162 L 69 178 L 65 180 L 67 174 L 85 155 L 111 137 L 104 149 L 73 181 L 116 144 L 131 135 L 117 159 L 83 196 L 110 163 L 132 144 L 128 152 L 85 198 L 118 168 L 140 154 L 135 165 L 104 199 L 130 178 L 144 173 L 144 178 L 138 186 L 114 211 L 118 202 L 135 181 L 148 174 L 150 181 L 135 195 L 123 199 L 123 187 L 127 182"/>
<path d="M 93 181 L 96 163 L 103 144 L 110 137 L 115 137 L 121 147 L 122 165 L 114 183 L 108 189 L 97 192 L 95 188 L 97 180 L 115 159 L 135 147 L 139 149 L 139 163 L 133 173 L 114 192 L 94 203 L 86 203 L 81 199 L 80 193 L 83 185 L 90 177 L 105 169 L 122 169 L 127 181 L 124 190 L 107 206 L 89 211 L 82 206 L 81 193 L 93 176 L 106 166 L 116 160 L 133 160 L 136 164 L 136 170 L 130 180 L 112 198 L 100 204 L 80 205 L 74 201 L 72 194 L 73 185 L 86 164 L 95 157 L 113 151 L 121 158 L 121 166 L 104 201 L 87 214 L 75 210 L 73 203 L 78 186 L 87 177 L 108 165 L 120 163 L 127 164 L 132 169 L 132 177 L 121 201"/>
<path d="M 30 65 L 21 84 L 47 54 L 38 55 L 22 69 L 31 65 L 41 50 L 42 36 L 33 35 L 19 45 L 10 63 L 13 75 L 22 79 L 28 76 L 30 55 L 22 47 L 12 55 L 4 68 L 4 73 L 19 70 L 24 67 L 23 61 L 18 57 L 14 68 L 18 90 L 28 71"/>
<path d="M 141 34 L 134 21 L 129 22 L 117 38 L 119 48 L 131 41 L 146 22 L 150 12 L 149 7 L 143 7 L 123 20 L 110 39 L 117 40 L 125 34 L 146 6 L 139 4 L 133 8 L 122 22"/>
</g>
</svg>
