<svg width="256" height="256" xmlns="http://www.w3.org/2000/svg">
<g stroke="black" fill="transparent" stroke-width="4">
<path d="M 117 51 L 132 43 L 184 42 L 200 47 L 226 63 L 242 79 L 254 101 L 255 119 L 254 148 L 239 168 L 223 176 L 208 179 L 170 180 L 167 179 L 181 170 L 191 158 L 194 140 L 191 132 L 178 119 L 169 114 L 130 101 L 118 99"/>
<path d="M 134 79 L 172 93 L 184 100 L 194 112 L 199 123 L 200 141 L 197 152 L 188 156"/>
<path d="M 144 40 L 142 29 L 133 18 L 102 4 L 78 0 L 62 1 L 48 11 L 37 26 L 32 39 L 32 80 L 52 140 L 50 161 L 42 183 L 0 209 L 4 212 L 33 218 L 61 220 L 62 238 L 90 246 L 94 233 L 105 233 L 101 250 L 117 254 L 124 237 L 125 126 L 131 103"/>
<path d="M 113 50 L 108 58 L 108 75 L 115 91"/>
<path d="M 105 37 L 105 37"/>
<path d="M 103 30 L 104 31"/>
</g>
</svg>
