<svg width="256" height="256" xmlns="http://www.w3.org/2000/svg">
<g stroke="black" fill="transparent" stroke-width="4">
<path d="M 37 210 L 18 236 L 12 250 L 18 250 L 41 238 L 45 251 L 47 251 L 65 242 L 66 255 L 71 246 L 75 218"/>
<path d="M 112 213 L 114 221 L 111 241 L 125 227 L 128 245 L 139 235 L 146 234 L 153 245 L 162 218"/>
<path d="M 165 211 L 93 217 L 27 217 L 0 213"/>
<path d="M 18 213 L 18 195 L 25 173 L 30 133 L 41 105 L 51 96 L 68 88 L 124 78 L 156 81 L 174 105 L 182 123 L 189 169 L 188 187 L 177 203 L 160 210"/>
<path d="M 112 125 L 97 133 L 76 163 L 75 173 L 80 182 L 97 188 L 120 184 L 130 164 L 127 141 L 120 132 L 108 125"/>
<path d="M 59 88 L 48 70 L 48 36 L 63 12 L 90 0 L 108 0 L 126 7 L 138 17 L 151 36 L 154 46 L 154 62 L 144 74 L 131 82"/>
<path d="M 92 48 L 62 91 L 66 91 L 110 55"/>
<path d="M 80 25 L 81 27"/>
<path d="M 80 26 L 80 26"/>
<path d="M 115 22 L 114 24"/>
<path d="M 88 48 L 103 49 L 110 53"/>
<path d="M 41 107 L 13 150 L 11 164 L 12 176 L 15 177 L 29 157"/>
<path d="M 170 91 L 196 104 L 205 120 L 210 161 L 195 153 L 188 144"/>
</g>
</svg>
