<svg width="256" height="256" xmlns="http://www.w3.org/2000/svg">
<g stroke="black" fill="transparent" stroke-width="4">
<path d="M 32 136 L 12 121 L 2 100 L 0 71 L 3 57 L 10 44 L 34 26 L 51 22 L 89 24 L 114 29 L 122 33 L 131 49 L 128 81 L 106 114 L 91 129 L 82 134 L 58 138 L 26 138 L 11 128 L 4 117"/>
<path d="M 44 108 L 33 106 L 27 99 L 27 74 L 35 69 L 72 68 L 81 76 L 80 92 L 60 110 L 41 115 L 34 113 L 25 98"/>
<path d="M 43 71 L 43 96"/>
<path d="M 62 78 L 60 96"/>
<path d="M 122 36 L 120 21 L 128 12 L 151 11 L 155 19 L 155 26 L 145 40 L 125 50"/>
<path d="M 30 24 L 31 4 L 22 0 L 12 2 L 5 21 L 5 36"/>
<path d="M 51 42 L 51 42"/>
<path d="M 54 44 L 55 37"/>
<path d="M 70 40 L 69 31"/>
<path d="M 140 62 L 184 60 L 196 65 L 220 89 L 223 119 L 208 130 L 178 142 L 147 141 L 111 129 L 99 129"/>
<path d="M 115 134 L 109 134 L 108 137 L 110 170 L 118 173 L 121 169 L 126 145"/>
<path d="M 73 127 L 71 146 L 73 162 L 78 163 L 85 159 L 93 134"/>
<path d="M 175 131 L 175 157 L 179 169 L 184 167 L 189 156 L 194 133"/>
<path d="M 207 130 L 210 140 L 215 145 L 229 143 L 230 130 L 219 106"/>
<path d="M 212 71 L 223 70 L 255 49 L 245 45 L 226 48"/>
</g>
</svg>
