<svg width="256" height="256" xmlns="http://www.w3.org/2000/svg">
<g stroke="black" fill="transparent" stroke-width="4">
<path d="M 101 96 L 91 73 L 69 53 L 46 44 L 22 43 L 14 46"/>
<path d="M 16 48 L 4 48 L 0 42 L 1 22 L 8 10 L 15 5 L 33 0 L 68 1 L 80 6 L 95 19 L 123 56 L 135 84"/>
<path d="M 137 88 L 136 80 L 142 45 L 158 18 L 167 12 L 184 6 L 211 6 L 227 9 L 246 23 L 254 34 L 255 43 L 240 44 L 199 40 L 183 44 L 172 58 L 169 85 L 165 99"/>
<path d="M 110 99 L 102 97 L 90 102 L 76 116 L 68 134 L 67 153 L 78 173 L 97 189 L 122 196 L 141 197 L 166 191 L 185 181 L 198 169 L 209 145 L 210 121 L 200 107 L 187 101 L 160 98"/>
<path d="M 125 161 L 125 186 L 153 186 L 158 163"/>
<path d="M 140 160 L 140 182"/>
<path d="M 122 113 L 111 120 L 108 133 L 121 136 L 131 131 L 135 125 L 134 116 L 122 111"/>
<path d="M 177 111 L 169 113 L 159 122 L 157 138 L 168 143 L 185 140 L 187 137 L 185 128 L 176 121 L 167 120"/>
<path d="M 125 124 L 124 129"/>
<path d="M 175 128 L 174 134"/>
<path d="M 78 164 L 75 163 L 70 194 L 65 237"/>
</g>
</svg>
