<svg width="256" height="256" xmlns="http://www.w3.org/2000/svg">
<g stroke="black" fill="transparent" stroke-width="4">
<path d="M 40 159 L 23 151 L 9 133 L 7 115 L 11 105 L 15 101 L 35 93 L 84 91 L 89 96 L 92 111 L 90 127 L 70 151 L 51 162"/>
<path d="M 9 109 L 2 101 L 1 92 L 5 84 L 18 83 L 22 92"/>
<path d="M 63 88 L 61 73 L 69 65 L 77 64 L 84 78 L 83 89"/>
<path d="M 92 135 L 113 128 L 192 120 L 210 132 L 216 146 L 220 176 L 210 185 L 139 202 L 120 203 L 96 199 L 76 194 L 64 183 L 58 174 L 54 156"/>
<path d="M 78 200 L 78 223"/>
<path d="M 119 195 L 121 234"/>
<path d="M 151 204 L 160 229"/>
<path d="M 201 184 L 206 215"/>
<path d="M 188 113 L 184 104 L 184 87 L 202 48 L 232 10 L 245 2 L 254 0 L 254 10 L 237 47 L 224 85 L 207 116 L 200 125 L 199 121"/>
<path d="M 182 87 L 204 103 L 212 105 L 213 101"/>
<path d="M 192 64 L 208 77 L 220 82"/>
<path d="M 215 41 L 231 54 L 235 52"/>
<path d="M 231 17 L 243 30"/>
<path d="M 6 138 L 6 138"/>
<path d="M 17 140 L 2 155 L 0 162"/>
<path d="M 25 144 L 13 163"/>
<path d="M 67 125 L 116 124"/>
<path d="M 78 133 L 111 143"/>
<path d="M 40 133 L 44 134 L 46 130 L 42 130 L 41 134 L 44 133"/>
<path d="M 40 133 L 40 133"/>
<path d="M 40 133 L 50 147"/>
<path d="M 28 145 L 26 135 L 28 127 L 47 117 L 68 121 L 81 131 L 82 136"/>
<path d="M 21 117 L 25 127"/>
</g>
</svg>
