<svg width="256" height="256" xmlns="http://www.w3.org/2000/svg">
<g stroke="black" fill="transparent" stroke-width="4">
<path d="M 57 74 L 48 98 L 57 94 L 65 80 L 60 76 L 55 76"/>
<path d="M 82 67 L 69 82 L 60 104 L 61 112 L 74 111 L 80 105 L 84 93 L 82 84 L 75 72"/>
<path d="M 103 67 L 87 81 L 80 100 L 83 116 L 91 119 L 101 115 L 108 102 L 108 80 L 105 72 L 97 71"/>
<path d="M 130 66 L 119 78 L 112 101 L 113 118 L 121 123 L 135 121 L 144 109 L 145 101 L 142 76 L 137 66 L 131 63 L 124 65"/>
<path d="M 160 62 L 149 80 L 145 114 L 150 129 L 155 133 L 166 131 L 180 100 L 180 84 L 170 68 L 157 66 L 151 69"/>
<path d="M 172 66 L 171 49 L 185 25 L 219 5 L 237 2 L 249 4 L 194 68 L 173 86"/>
<path d="M 169 123 L 196 164 L 212 180 L 199 179 L 180 167 L 169 155 L 160 134"/>
<path d="M 57 101 L 41 102 L 32 98 L 18 85 L 7 67 L 0 42 L 0 28 L 6 14 L 17 3 L 3 26 L 16 21 L 7 44 L 21 46 L 18 64 L 26 63 L 28 67 L 22 82 L 33 78 L 31 89 L 47 84 L 50 91"/>
<path d="M 194 80 L 173 102 L 169 118 L 181 132 L 196 132 L 212 125 L 224 111 L 224 102 L 220 94 L 206 85 L 190 83 L 186 85"/>
<path d="M 210 96 L 209 104"/>
<path d="M 203 117 L 203 122"/>
<path d="M 193 99 L 192 113"/>
<path d="M 248 0 L 225 24 L 255 17"/>
<path d="M 196 179 L 188 167 L 186 156 L 208 171"/>
</g>
</svg>
