<svg width="256" height="256" xmlns="http://www.w3.org/2000/svg">
<g stroke="black" fill="transparent" stroke-width="4">
<path d="M 1 112 L 2 97 L 8 79 L 27 48 L 61 10 L 74 2 L 85 0 L 132 12 L 154 26 L 178 48 L 195 71 L 206 95 L 210 114 L 216 104 L 233 91 L 242 87 L 251 91 L 255 97 L 254 105 L 241 121 L 221 126 L 213 116"/>
<path d="M 216 114 L 190 120 L 155 117 L 105 121 L 50 114 L 0 113"/>
<path d="M 7 119 L 9 131 L 16 139 L 21 140 L 27 133 L 26 122 L 20 116 L 14 117"/>
<path d="M 59 119 L 61 128 L 67 133 L 75 134 L 75 130 L 65 121"/>
<path d="M 104 120 L 110 131 L 120 135 L 125 129 L 117 121"/>
<path d="M 148 120 L 151 126 L 162 128 L 167 118 L 161 118"/>
<path d="M 233 100 L 234 98"/>
<path d="M 251 108 L 251 108"/>
<path d="M 249 110 L 235 110"/>
</g>
</svg>
