<svg width="256" height="256" xmlns="http://www.w3.org/2000/svg">
<g stroke="black" fill="transparent" stroke-width="4">
<path d="M 249 159 L 240 149 L 215 137 L 180 128 L 139 125 L 123 129 L 93 144 L 34 191 L 34 186 L 26 180 L 0 174 L 18 198 L 42 220 L 31 231 L 14 255 L 35 250 L 72 225 L 99 242 L 132 253 L 191 254 L 205 251 L 239 236 L 254 216 L 255 205 L 205 204 L 190 200 L 228 172 L 253 159 L 254 167 L 250 174 L 240 166 L 236 178 L 233 180 L 229 176 L 226 178 L 214 198 L 205 189 L 202 189 L 202 194 L 202 201 L 211 195 L 215 202 L 221 202 L 242 181 L 243 194 L 251 193 L 253 199"/>
<path d="M 93 142 L 94 111 L 97 93 L 127 0 L 173 138"/>
</g>
</svg>
