<svg width="256" height="256" xmlns="http://www.w3.org/2000/svg">
<g stroke="black" fill="transparent" stroke-width="4">
<path d="M 0 49 L 9 44 L 36 41 L 54 48 L 56 57 L 52 73 L 34 107 L 4 115 L 0 102 L 0 51"/>
<path d="M 42 36 L 41 19 L 51 8 L 81 6 L 90 13 L 90 27 L 113 8 L 139 1 L 145 5 L 151 17 L 179 17 L 198 25 L 209 35 L 211 43 L 207 47 L 248 64 L 255 73 L 255 79 L 247 87 L 239 90 L 211 91 L 215 101 L 214 112 L 181 116 L 171 128 L 148 129 L 140 121 L 126 128 L 103 128 L 100 126 L 92 131 L 77 131 L 74 125 L 59 128 L 52 116 L 45 116 L 38 104"/>
<path d="M 11 60 L 12 70 L 15 71"/>
<path d="M 30 58 L 31 68"/>
<path d="M 5 45 L 5 32 L 9 28 L 12 28 L 17 41"/>
<path d="M 25 36 L 26 27 L 35 21 L 41 33"/>
<path d="M 20 76 L 19 77"/>
<path d="M 20 77 L 22 82"/>
<path d="M 16 84 L 30 82"/>
<path d="M 102 126 L 99 145 L 102 147 L 108 131 L 108 121"/>
<path d="M 123 134 L 123 131"/>
<path d="M 123 128 L 134 153 L 142 146 L 141 131"/>
</g>
</svg>
