<svg width="256" height="256" xmlns="http://www.w3.org/2000/svg">
<g stroke="black" fill="transparent" stroke-width="4">
<path d="M 61 106 L 47 76 L 45 59 L 46 35 L 60 10 L 58 14 L 57 9 L 45 34 L 15 35 L 7 23 L 5 3 L 1 12 L 0 6 L 4 2"/>
<path d="M 13 33 L 12 64 L 27 101 L 67 124 L 76 126 L 98 120 L 126 107 L 150 89 L 164 71 L 168 53 L 167 37 L 157 21 L 147 12 L 134 11 L 103 25 L 86 36 L 74 50 L 63 82 L 64 95 L 99 94 L 124 84 L 137 66 L 141 52 L 141 35 L 137 31 L 104 41 L 88 53 L 86 70 L 96 78 L 105 78 L 114 67 L 115 56 L 102 55 L 85 65"/>
<path d="M 42 65 L 39 70 L 31 70 L 17 62"/>
<path d="M 34 50 L 34 55"/>
<path d="M 22 46 L 23 54"/>
<path d="M 72 123 L 111 116 L 253 120 L 255 117 L 253 116 L 213 105 L 164 103 L 138 99"/>
</g>
</svg>
