<svg width="256" height="256" xmlns="http://www.w3.org/2000/svg">
<g stroke="black" fill="transparent" stroke-width="4">
<path d="M 183 136 L 136 135 L 100 147 L 75 164 L 63 185 L 61 220 L 66 231 L 75 240 L 94 245 L 127 244 L 161 235 L 192 219 L 205 203 L 208 192 L 208 172 L 206 162 L 199 151 L 174 138 L 146 136"/>
<path d="M 128 135 L 127 107 L 137 0"/>
<path d="M 198 152 L 223 133 L 236 150 L 251 159"/>
<path d="M 200 208 L 222 197 L 241 213 L 251 217"/>
<path d="M 171 233 L 188 225 L 200 224 L 224 248 L 241 255"/>
<path d="M 76 156 L 64 140 L 57 136 L 34 156"/>
<path d="M 62 193 L 44 177 L 33 173 L 5 198"/>
<path d="M 64 227 L 48 221 L 32 220 L 4 253"/>
<path d="M 112 183 L 107 178 L 98 185 L 98 177"/>
<path d="M 156 179 L 154 171 L 152 174 L 144 171 L 144 169 L 151 168 L 156 174 L 155 181 L 149 175 L 149 166 L 150 172 L 147 177 L 146 169 L 150 167 L 154 175 L 153 181 L 149 183 L 146 178 L 146 170 L 151 170 L 152 179 L 149 173 L 150 182 L 146 168 L 148 171 L 150 176 L 147 174"/>
<path d="M 107 183 L 101 174 L 105 171 L 107 180 L 99 181 L 98 176 L 102 172 L 107 176 L 107 183 L 102 187 L 99 178 L 101 175 L 102 182 L 98 173 L 103 185 L 100 173 L 103 177 L 103 181 L 99 177 L 103 182 L 103 185 L 100 183 L 99 178 L 102 177 L 105 187 L 103 189 L 101 185 L 99 176 L 101 177 L 102 185 L 99 184 L 98 178"/>
<path d="M 120 207 L 118 209 L 119 215 L 125 219 L 133 214 L 137 206 L 136 215 L 129 219 L 118 209 L 125 218 L 140 205"/>
<path d="M 210 181 L 226 172 L 250 195"/>
<path d="M 57 205 L 30 198 L 0 224"/>
</g>
</svg>
