<svg width="256" height="256" xmlns="http://www.w3.org/2000/svg">
<g stroke="black" fill="transparent" stroke-width="4">
<path d="M 147 125 L 120 127 L 109 117 L 104 103 L 104 85 L 114 57 L 116 36 L 102 17 L 88 7 L 74 3 L 46 3 L 33 12 L 18 29 L 5 54 L 0 71 L 0 88 L 4 104 L 13 117 L 28 129 L 45 132 L 57 127 L 65 114 L 67 97 L 54 82 L 47 79 L 41 80"/>
<path d="M 64 115 L 88 99 L 101 99 L 104 105"/>
<path d="M 75 111 L 90 118 L 106 135 L 125 147"/>
<path d="M 134 125 L 127 122 L 121 100 L 123 64 L 127 52 L 148 21 L 160 11 L 184 2 L 207 0 L 224 7 L 232 13 L 235 25 L 232 66 L 229 79 L 220 81 L 219 58 L 213 76 L 207 82 L 205 55 L 203 49 L 196 47 L 186 48 L 177 59 L 173 74 L 176 82 L 210 98 L 221 109 L 226 129 L 216 175 L 221 179 L 250 180 L 255 192 L 252 196 L 241 205 L 210 209 L 149 191 L 114 187 L 104 169 L 109 151 L 118 143"/>
<path d="M 196 17 L 197 23 L 202 26 L 206 23 L 200 15 L 195 25 L 203 25 L 205 13"/>
</g>
</svg>
