<svg width="256" height="256" xmlns="http://www.w3.org/2000/svg">
<g stroke="black" fill="transparent" stroke-width="4">
<path d="M 65 45 L 64 37 L 68 25 L 84 7 L 92 2 L 101 0 L 124 1 L 135 7 L 144 26 L 149 60 L 149 121 L 154 136 L 173 161 L 172 166"/>
<path d="M 64 50 L 24 54 L 4 60 L 0 66 L 10 72 L 35 70 L 73 73 L 84 78 L 104 104 L 111 119 L 120 143 L 131 160 L 142 200"/>
<path d="M 87 45 L 85 48 L 110 46"/>
<path d="M 81 49 L 89 38 L 101 36 L 113 40 L 116 44 L 116 50"/>
<path d="M 154 82 L 155 126 L 160 147 L 195 186 L 210 220"/>
<path d="M 112 125 L 123 162 L 163 255"/>
<path d="M 3 68 L 22 80 L 82 85 L 88 88"/>
</g>
</svg>
