<svg width="256" height="256" xmlns="http://www.w3.org/2000/svg">
<g stroke="black" fill="transparent" stroke-width="4">
<path d="M 85 11 L 65 17 L 50 30 L 41 48 L 42 66 L 50 75 L 73 85 L 93 85 L 103 79 L 114 65 L 116 44 L 111 34 L 91 22"/>
<path d="M 88 24 L 90 13 L 100 3 L 125 0 L 137 4 L 148 14 L 148 31 L 136 38 L 109 37"/>
<path d="M 68 14 L 52 4 L 34 2 L 17 6 L 2 14 L 0 27 L 3 32 L 11 38 L 32 41 L 49 41 L 52 39"/>
<path d="M 45 78 L 53 122 L 59 132 L 72 142 L 91 151 L 108 155 L 182 156 L 248 135 L 255 123 L 255 113 L 251 106 L 234 91 L 167 67 L 113 68"/>
<path d="M 75 140 L 48 174 L 47 180 L 52 186 L 73 181 L 107 146"/>
<path d="M 115 153 L 100 181 L 102 189 L 110 195 L 131 191 L 142 178 L 145 158"/>
<path d="M 179 153 L 189 180 L 200 189 L 208 192 L 218 186 L 222 173 L 218 161 L 210 153"/>
<path d="M 223 144 L 241 175 L 247 177 L 255 162 L 250 145 L 242 137 L 232 136"/>
<path d="M 74 29 L 71 35"/>
<path d="M 86 29 L 89 37"/>
<path d="M 61 48 L 66 59 L 72 63 L 88 64 L 94 52"/>
<path d="M 83 89 L 63 119 L 56 136"/>
<path d="M 135 70 L 102 115 L 86 147"/>
<path d="M 172 77 L 147 107 L 122 152"/>
<path d="M 205 84 L 165 146 L 161 157"/>
<path d="M 239 94 L 211 128 L 195 158"/>
</g>
</svg>
