<svg width="256" height="256" xmlns="http://www.w3.org/2000/svg">
<g stroke="black" fill="transparent" stroke-width="4">
<path d="M 1 88 L 0 130 L 6 200 L 26 177 L 42 164"/>
<path d="M 12 90 L 33 109 L 54 123 L 102 99 L 158 93 L 193 92 L 213 96 L 237 105 L 250 116 L 255 133 L 250 161 L 235 174 L 208 186 L 194 188 L 131 171 L 78 163 L 48 168"/>
<path d="M 231 169 L 222 171 L 197 155 L 166 147"/>
<path d="M 229 116 L 223 116"/>
<path d="M 133 139 L 133 139"/>
<path d="M 173 91 L 151 69 L 117 17 L 101 0"/>
<path d="M 170 95 L 193 15 L 206 3"/>
<path d="M 172 78 L 175 38 L 185 6"/>
<path d="M 166 72 L 146 11"/>
<path d="M 165 69 L 145 29 L 134 18 L 122 12"/>
</g>
</svg>
