<svg width="256" height="256" xmlns="http://www.w3.org/2000/svg">
<g stroke="black" fill="transparent" stroke-width="4">
<path d="M 46 22 L 16 41 L 2 59 L 1 74 L 12 78 L 18 76"/>
<path d="M 45 23 L 43 1"/>
<path d="M 53 1 L 57 3 L 64 19"/>
<path d="M 44 0 L 57 10 L 60 18"/>
<path d="M 59 15 L 85 9 L 86 29"/>
<path d="M 83 28 L 91 46 L 107 56 L 121 61 L 200 63 L 228 70 L 238 80 L 244 94 L 255 164 L 247 165 L 248 149 L 236 115 L 236 137 L 230 160 L 220 154 L 225 126 L 216 114 L 198 109 L 157 108 L 68 93 L 65 93 L 64 97 L 64 154 L 62 164 L 55 156 L 47 153 L 47 101 L 26 107 L 29 149 L 3 148 L 21 96 L 20 70"/>
<path d="M 33 39 L 40 39"/>
<path d="M 19 48 L 19 48"/>
<path d="M 8 56 L 15 64"/>
<path d="M 6 62 L 8 68"/>
<path d="M 11 65 L 11 65"/>
<path d="M 100 61 L 104 71 L 105 91"/>
<path d="M 148 60 L 147 90"/>
<path d="M 195 67 L 186 92"/>
<path d="M 175 65 L 177 91 L 170 112"/>
<path d="M 87 46 L 77 98"/>
<path d="M 222 78 L 213 111"/>
<path d="M 238 90 L 228 116"/>
<path d="M 71 27 L 71 27"/>
<path d="M 74 37 L 63 75 L 58 111"/>
</g>
</svg>
