<svg width="256" height="256" xmlns="http://www.w3.org/2000/svg">
<g stroke="black" fill="transparent" stroke-width="4">
<path d="M 31 109 L 18 94 L 21 75 L 39 59 L 60 55 L 75 59 L 92 72 L 97 88 L 92 104 L 77 116 L 62 119 L 36 118 L 21 110 L 8 125 L 14 127 L 36 120 L 36 136 L 38 141 L 43 143 L 57 133 L 71 116 L 70 112"/>
<path d="M 47 61 L 41 26 L 26 2 L 16 1 L 8 10 L 1 21 L 1 31"/>
<path d="M 77 74 L 76 43 L 71 18 L 61 9 L 51 13 L 49 20"/>
<path d="M 89 105 L 106 95 L 117 96 L 128 102 L 133 110 L 135 121 L 132 130 L 120 135 L 110 134 L 98 126 L 93 119 L 91 107"/>
<path d="M 135 111 L 153 101 L 173 95 L 210 101 L 234 114 L 250 131 L 254 138 L 255 153 L 241 169 L 223 173 L 211 173 L 186 166 L 150 150 L 135 139 L 131 131 L 129 136"/>
<path d="M 117 143 L 102 152 L 89 169 L 101 157 L 109 154 L 113 189 L 116 193 L 121 192"/>
<path d="M 134 152 L 145 189"/>
<path d="M 130 93 L 108 103 L 109 51"/>
<path d="M 124 104 L 129 92"/>
<path d="M 139 112 L 154 96"/>
<path d="M 121 96 L 113 45"/>
<path d="M 125 101 L 134 67"/>
<path d="M 156 105 L 163 164"/>
<path d="M 176 106 L 182 156"/>
<path d="M 189 108 L 205 174"/>
<path d="M 217 118 L 226 173"/>
<path d="M 235 135 L 234 152"/>
</g>
</svg>
