<svg width="256" height="256" xmlns="http://www.w3.org/2000/svg">
<g stroke="black" fill="transparent" stroke-width="4">
<path d="M 88 44 L 88 54 L 85 37 L 87 20 L 91 17 L 112 18 L 127 27 L 134 39 L 134 49 L 114 57 L 81 55"/>
<path d="M 85 55 L 86 88 L 92 112 L 99 130 L 105 132 L 137 131 L 145 128 L 154 119 L 157 110 L 155 86 L 144 65 L 135 56"/>
<path d="M 135 54 L 143 45 L 162 33 L 185 6 L 189 5 L 208 7 L 208 23 L 205 41 L 225 40 L 244 46 L 244 52 L 237 59 L 211 77 L 213 80 L 255 93 L 236 100 L 190 106 L 219 117 L 213 119 L 154 119"/>
<path d="M 82 60 L 75 49 L 36 11 L 26 31 L 26 68 L 43 64 L 51 65 L 50 67 L 0 88 L 48 103 L 20 108 L 17 110 L 20 111 L 79 115 L 74 152 L 94 149 L 103 143"/>
<path d="M 83 23 L 84 7 L 104 20"/>
<path d="M 108 16 L 130 0 L 122 16"/>
<path d="M 100 40 L 103 55"/>
<path d="M 110 43 L 112 53"/>
</g>
</svg>
