<svg width="256" height="256" xmlns="http://www.w3.org/2000/svg">
<g stroke="black" fill="transparent" stroke-width="4">
<path d="M 71 69 L 66 100 L 39 172 L 35 190 L 36 209 L 38 212 L 52 215 L 87 211 L 101 191 L 127 109 L 131 83 L 129 66 L 126 58 L 120 56 L 82 52 L 77 52 L 73 64"/>
<path d="M 112 152 L 126 136 L 154 92 L 173 73 L 179 74 L 200 93 L 202 107 L 180 136 L 148 168 L 131 179 L 99 185"/>
<path d="M 45 142 L 28 87 L 22 85 L 10 91 L 2 106 L 0 137 L 8 160 L 23 180 L 40 169"/>
<path d="M 83 38 L 83 56 L 101 57 L 119 48 L 126 32 L 121 19 L 105 11 L 97 11 L 88 21 L 81 36 L 80 50 L 83 55"/>
<path d="M 83 20 L 83 6 L 86 0 L 91 2 L 93 9"/>
<path d="M 116 4 L 130 6 L 130 16 L 122 21"/>
<path d="M 157 96 L 184 121"/>
<path d="M 184 76 L 169 99"/>
<path d="M 195 83 L 193 96 L 180 117"/>
<path d="M 8 115 L 18 116 L 35 110 L 28 113 L 3 117"/>
<path d="M 12 84 L 13 112"/>
<path d="M 24 79 L 30 113"/>
<path d="M 48 211 L 49 232 L 39 255"/>
<path d="M 52 224 L 56 244"/>
<path d="M 97 32 L 100 41 L 113 36"/>
</g>
</svg>
