<svg width="256" height="256" xmlns="http://www.w3.org/2000/svg">
<g stroke="black" fill="transparent" stroke-width="4">
<path d="M 73 77 L 48 75 L 41 78 L 23 129 L 21 161 L 27 167 L 38 173 L 85 181 L 120 181 L 155 172 L 174 157 L 181 141 L 181 128 L 168 103 L 134 81 L 102 72 L 66 72 L 53 75"/>
<path d="M 76 75 L 75 88 L 85 147 L 87 193 L 81 121 L 82 78 L 88 193"/>
<path d="M 128 94 L 137 145 L 139 176 L 128 128 L 127 74 L 132 94 L 134 175 L 130 81 L 142 130 L 148 182 L 142 128 L 142 102 L 142 142 L 149 184"/>
<path d="M 31 83 L 29 57 L 18 34"/>
<path d="M 11 13 L 4 7 L 0 14 L 3 24 L 7 29 L 18 32 L 20 21 L 17 6 L 12 2 L 3 0"/>
<path d="M 47 122 L 44 127 L 46 120"/>
<path d="M 172 92 L 184 152 L 185 137 L 181 116 L 171 99 L 167 120 L 167 165 L 167 90 L 168 122 L 175 147 L 175 117 L 172 108 L 174 129"/>
<path d="M 198 191 L 205 200 L 235 212"/>
<path d="M 203 169 L 255 181"/>
<path d="M 205 109 L 210 107 L 245 104"/>
<path d="M 71 65 L 69 52 L 69 39 L 73 31 L 96 15 L 116 10 L 128 16 L 152 91"/>
<path d="M 153 29 L 153 29"/>
<path d="M 153 29 L 134 25 L 136 13"/>
</g>
</svg>
