<svg width="256" height="256" xmlns="http://www.w3.org/2000/svg">
<g stroke="black" fill="transparent" stroke-width="4">
<path d="M 120 28 L 109 6 L 98 1 L 82 0 L 78 2 L 62 28 L 52 36 L 0 38 L 33 52 L 68 53 L 69 66 L 62 80 L 63 99 L 71 108 L 90 116 L 116 121 L 164 123 L 196 121 L 216 113 L 232 103 L 253 76 L 255 62 L 244 54 L 151 43 L 130 36 L 121 25"/>
<path d="M 89 21 L 86 26 L 86 23 L 88 21 L 87 27"/>
<path d="M 122 120 L 116 138 L 88 161"/>
<path d="M 100 149 L 114 176"/>
<path d="M 171 116 L 165 152"/>
<path d="M 161 152 L 140 177"/>
<path d="M 165 150 L 180 179"/>
<path d="M 165 152 L 158 186"/>
</g>
</svg>
