<svg width="256" height="256" xmlns="http://www.w3.org/2000/svg">
<g stroke="black" fill="transparent" stroke-width="4">
<path d="M 93 216 L 76 221 L 41 221 L 24 215 L 6 198 L 1 183 L 0 164 L 13 152 L 37 150 L 54 157 L 63 168 L 39 145 L 31 134 L 28 120 L 30 97 L 40 82 L 55 73 L 68 70 L 92 73 L 105 85 L 106 103 L 105 156 L 95 212 L 97 234 L 109 253 L 127 255 L 139 251 L 156 228 L 164 191 L 164 115 L 160 66 L 153 47 L 147 39 L 132 41 L 121 54 L 113 72 L 109 102"/>
<path d="M 123 64 L 124 80"/>
<path d="M 137 67 L 136 82"/>
<path d="M 119 121 L 121 129 L 131 135 L 142 135 L 150 126"/>
<path d="M 127 36 L 126 23 L 103 6 L 83 0 L 74 5 L 70 13 L 70 28 L 77 34 L 83 36 L 95 35 L 100 30 L 96 22"/>
<path d="M 148 41 L 150 29 L 157 20 L 168 12 L 186 7 L 199 11 L 202 23 L 195 39 L 181 37 L 179 33 L 180 27"/>
<path d="M 166 102 L 172 93 L 185 84 L 203 76 L 219 75 L 231 85 L 236 105 L 233 120 L 225 130 L 211 137 L 173 140 L 195 140 L 201 144 L 222 181 L 225 205 L 221 213 L 212 216 L 195 216 L 183 211 L 176 204"/>
</g>
</svg>
