<svg width="256" height="256" xmlns="http://www.w3.org/2000/svg">
<g stroke="black" fill="transparent" stroke-width="4">
<path d="M 40 37 L 18 36 L 0 51 L 0 62 L 6 67 L 27 69 L 37 67"/>
<path d="M 25 37 L 25 37"/>
<path d="M 23 45 L 25 45"/>
<path d="M 34 37 L 46 24 L 57 19 L 66 19 L 90 31 L 111 34 L 143 16 L 154 24 L 160 43 L 185 7 L 201 0 L 217 23 L 221 48 L 230 53 L 244 52 L 252 59 L 255 86 L 245 99 L 235 106 L 138 105 L 128 149 L 113 149 L 106 149 L 98 108 L 92 104 L 62 99 L 55 149 L 29 149 L 27 146 L 34 124 L 30 104 L 29 102 L 15 101 L 11 97 L 3 67"/>
</g>
</svg>
