<svg width="256" height="256" xmlns="http://www.w3.org/2000/svg">
<g stroke="black" fill="transparent" stroke-width="4">
<path d="M 6 130 L 0 82 L 0 57 L 3 48 L 7 49 L 16 61 L 45 88 L 84 67 L 129 64 L 142 69 L 146 42 L 170 0 L 192 71 L 199 147 L 196 167 L 179 192 L 126 214 L 106 217 L 80 214 L 56 193 L 28 137"/>
<path d="M 66 128 L 60 134 L 59 144 L 65 144 L 69 140 L 69 134 L 63 133"/>
<path d="M 138 106 L 129 114 L 127 123 L 131 125 L 138 121 L 139 111"/>
<path d="M 109 160 L 109 160"/>
<path d="M 113 161 L 45 192 L 4 221"/>
<path d="M 129 169 L 116 174 L 85 200 L 65 224 L 51 246"/>
<path d="M 128 171 L 110 201 L 91 255"/>
<path d="M 105 176 L 144 147 L 192 128"/>
<path d="M 135 174 L 177 156 L 240 153"/>
</g>
</svg>
