<svg width="256" height="256" xmlns="http://www.w3.org/2000/svg">
<g stroke="black" fill="transparent" stroke-width="4">
<path d="M 136 95 L 111 88 L 68 87 L 31 95 L 15 104 L 5 135 L 2 171 L 22 180 L 56 182 L 144 170 L 171 162 L 179 156 L 184 128 L 178 118 L 163 108 L 120 97"/>
<path d="M 183 118 L 210 98"/>
<path d="M 34 93 L 14 77 L 6 64 L 4 54 L 13 41 L 35 25 L 64 17 L 74 21 L 77 28 L 73 46 L 49 84"/>
<path d="M 65 17 L 71 4 L 80 0 L 85 4 L 84 20"/>
<path d="M 27 27 L 1 15 L 0 28 L 4 46"/>
<path d="M 42 51 L 31 52 L 26 58 L 27 62 L 40 63 L 54 57 L 52 53 L 42 52"/>
<path d="M 33 56 L 34 64 L 44 67 L 46 62 L 42 53"/>
<path d="M 22 40 L 21 49"/>
<path d="M 55 32 L 55 37"/>
<path d="M 42 177 L 40 206 L 44 233 L 42 237 L 1 236"/>
<path d="M 86 175 L 82 190 L 79 235 L 77 239 L 59 239"/>
<path d="M 133 164 L 126 193 L 131 240 L 103 248"/>
<path d="M 168 174 L 168 219 L 176 244 L 156 255"/>
<path d="M 51 110 L 41 112 L 36 120 L 35 127 L 39 130 L 46 128 L 50 118 L 45 114 L 40 115 L 33 123 L 37 129 L 53 123 L 59 115 L 59 108 L 55 105 L 43 105 L 29 115 L 24 130 L 31 134 L 47 126 L 51 117 L 50 113 L 45 112 L 31 122 L 28 130 L 40 131 L 49 125 L 62 110 L 57 107 L 47 113 L 40 121 L 41 127 L 50 122"/>
<path d="M 85 133 L 72 144 L 66 156 L 69 163 L 74 163 L 84 156 L 91 144 L 84 143 L 73 152 L 71 160 L 79 164 L 88 156 L 93 143 L 87 140 L 79 143 L 76 150 L 82 155 L 98 148 L 101 140 L 91 137 L 77 139"/>
</g>
</svg>
