<svg width="256" height="256" xmlns="http://www.w3.org/2000/svg">
<g stroke="black" fill="transparent" stroke-width="4">
<path d="M 120 17 L 83 16 L 65 22 L 55 30 L 51 38 L 52 58 L 62 70 L 78 81 L 105 92 L 124 95 L 159 93 L 181 87 L 199 77 L 215 65 L 220 56 L 223 44 L 220 35 L 211 22 L 195 12 L 155 1 L 116 0 L 88 6 L 64 15 L 49 23 L 39 33"/>
<path d="M 89 63 L 92 78"/>
<path d="M 166 67 L 169 75"/>
<path d="M 48 34 L 23 34 L 7 43 L 0 53"/>
<path d="M 41 48 L 22 60 L 19 65 L 20 71"/>
<path d="M 54 65 L 47 67 L 42 74 L 41 82 L 47 86"/>
<path d="M 221 57 L 243 74 L 248 82"/>
<path d="M 229 46 L 255 58"/>
<path d="M 229 34 L 249 40 L 253 45"/>
<path d="M 85 86 L 76 105 L 77 119"/>
<path d="M 71 115 L 63 128 L 62 136 L 62 145 L 68 156 L 71 132 L 79 124 L 83 125 L 92 143 L 93 138 L 86 124 L 67 112"/>
<path d="M 183 86 L 183 105 L 167 127 L 158 135 L 153 145 L 155 147 L 165 126"/>
</g>
</svg>
