<svg width="256" height="256" xmlns="http://www.w3.org/2000/svg">
<g stroke="black" fill="transparent" stroke-width="4">
<path d="M 136 78 L 128 75 L 104 57 L 79 33 L 35 0 L 95 107 L 63 116 L 13 141 L 3 147 L 5 148 L 46 147 L 124 128 L 251 134"/>
<path d="M 137 77 L 218 92 L 255 95"/>
<path d="M 34 11 L 25 34 L 39 27 L 42 53 L 51 54 L 63 50 L 60 73 L 62 75 L 77 69 L 72 94 L 83 94 L 81 105 L 85 105 L 92 115 L 64 106 L 69 115 L 70 120 L 68 121 L 44 106 L 47 125 L 31 121 L 33 131 L 15 126 L 20 139 L 5 133 L 0 133 L 2 135"/>
<path d="M 106 78 L 108 85 L 114 87 L 109 81 L 96 81 L 107 86 L 101 81 L 94 83 L 95 89 L 99 90 L 104 86 L 99 85 L 100 89 L 106 84 L 106 81 L 101 79 L 101 84 L 106 84"/>
</g>
</svg>
