<svg width="256" height="256" xmlns="http://www.w3.org/2000/svg">
<g stroke="black" fill="transparent" stroke-width="4">
<path d="M 73 51 L 32 20 L 21 20 L 1 38 L 1 45 L 32 77 L 47 88"/>
<path d="M 135 57 L 139 44 L 139 26 L 145 15 L 164 1 L 173 0 L 176 4 L 176 12 L 170 30 L 165 60"/>
<path d="M 157 79 L 151 78 L 118 54 L 93 56 L 72 64 L 66 69 L 45 90 L 35 112 L 37 123 L 51 136 L 103 169 L 111 173 L 126 172 L 154 158 L 174 138 L 182 121 L 185 98 L 165 73 L 158 69"/>
<path d="M 89 76 L 83 84"/>
<path d="M 125 96 L 125 96"/>
<path d="M 141 86 L 144 100"/>
<path d="M 101 128 L 116 104 L 113 101 L 92 104 L 85 108 L 91 120 L 101 130 L 80 129"/>
<path d="M 102 132 L 118 140 L 145 144"/>
<path d="M 83 161 L 74 161 L 48 179 L 81 204 L 103 215 L 141 224 L 173 227 L 178 221 L 175 198 L 182 177 L 171 154 L 166 150 L 161 153"/>
<path d="M 84 167 L 91 181 L 103 189 L 120 195 L 128 195 L 145 183 L 147 175 L 142 174"/>
<path d="M 127 195 L 126 197 L 119 199 L 114 203 L 114 209 L 125 213 L 135 212 L 137 209 L 131 196 L 124 195"/>
<path d="M 48 181 L 35 183 L 33 192 L 75 229 L 98 244 L 112 250 L 169 255"/>
</g>
</svg>
