<svg width="256" height="256" xmlns="http://www.w3.org/2000/svg">
<g stroke="black" fill="transparent" stroke-width="4">
<path d="M 19 59 L 6 71 L 2 86 L 3 94 L 12 98 L 22 97 L 60 85"/>
<path d="M 2 88 L 1 104 L 4 110 L 13 113 L 54 105 L 64 97 L 65 92 L 61 91"/>
<path d="M 3 70 L 6 49 L 17 35 L 48 21 L 69 18 L 96 21 L 122 36 L 130 44 L 132 52"/>
<path d="M 118 38 L 132 33 L 161 40 L 185 60 L 196 78 L 203 107 L 200 164 L 208 176 L 216 180"/>
<path d="M 58 100 L 73 106 L 97 107 L 116 116 L 144 155 L 166 193 L 175 202 L 191 204 L 212 200 L 215 194"/>
<path d="M 208 178 L 226 162 L 241 142 L 247 138 L 252 141 L 255 145 L 253 164 L 246 192 L 250 218 L 228 219 L 196 202"/>
<path d="M 76 48 L 72 45 L 69 48 L 70 57 L 72 58 L 80 54 L 83 46"/>
<path d="M 102 25 L 118 4 L 132 0 L 141 8 L 163 41"/>
<path d="M 136 84 L 172 112 L 176 120 L 172 122 L 152 118 L 131 110"/>
</g>
</svg>
