<svg width="256" height="256" xmlns="http://www.w3.org/2000/svg">
<g stroke="black" fill="transparent" stroke-width="4">
<path d="M 63 88 L 51 101 L 42 99 L 40 94 L 47 86 L 50 68 L 65 51 L 71 51 L 78 62"/>
<path d="M 70 93 L 70 107 L 59 119 L 61 123 L 76 125 L 81 122 L 82 113 L 98 106 L 95 85 L 82 70"/>
<path d="M 68 60 L 48 56 L 39 49 L 28 35 L 15 5 L 76 6 L 118 27 L 135 40 L 141 50"/>
<path d="M 98 79 L 119 87 L 138 103 L 157 131 L 170 172 L 176 164 L 180 151 L 177 129 L 144 61 L 138 53"/>
<path d="M 156 70 L 199 60 L 216 52"/>
<path d="M 122 37 L 131 31 L 189 17 L 203 18 L 231 28 L 244 6 L 255 1"/>
<path d="M 222 53 L 236 22 L 244 15 L 254 14 L 255 8"/>
<path d="M 38 110 L 27 127 L 13 131 L 0 144"/>
<path d="M 65 103 L 50 114 L 48 131 L 31 133 L 22 138 L 14 165"/>
<path d="M 50 110 L 45 113 L 40 120 L 43 146 L 31 158 L 20 188 L 28 190 L 41 186 L 57 170"/>
<path d="M 62 77 L 67 81 L 68 77 L 64 75"/>
<path d="M 126 51 L 102 64"/>
<path d="M 45 28 L 72 35 L 93 47"/>
<path d="M 150 92 L 184 160"/>
</g>
</svg>
