<svg width="256" height="256" xmlns="http://www.w3.org/2000/svg">
<g stroke="black" fill="transparent" stroke-width="4">
<path d="M 195 59 L 247 53 L 252 51 L 254 41 L 247 38 L 195 39 L 190 17 L 181 2 L 158 0 L 139 5 L 130 12 L 127 23 L 129 90 L 127 110 L 123 118 L 113 126 L 97 131 L 43 133 L 19 139 L 0 148 L 3 159 L 21 183 L 56 190 L 96 191 L 192 176 L 197 163 L 193 118 L 195 57"/>
<path d="M 194 50 L 226 48"/>
<path d="M 156 177 L 155 225 L 207 223"/>
<path d="M 102 191 L 105 244 L 157 247"/>
</g>
</svg>
