<svg width="256" height="256" xmlns="http://www.w3.org/2000/svg">
<g stroke="black" fill="transparent" stroke-width="4">
<path d="M 64 63 L 60 61 L 52 66 L 27 91 L 2 171 L 2 187 L 9 184 L 26 149 L 31 123 L 40 104"/>
<path d="M 42 101 L 52 86 L 65 77"/>
<path d="M 60 66 L 76 30 L 84 18 L 114 2 L 138 0 L 149 5 L 165 24 L 169 62 L 173 69 L 225 68 L 245 78 L 252 88 L 252 115 L 247 125 L 237 132 L 225 135 L 174 134 L 141 148 L 116 150 L 105 145 L 96 135 L 69 85"/>
<path d="M 107 146 L 96 175 L 79 205 L 74 209 L 47 209 L 47 215 L 53 221 L 80 226 L 100 217 L 126 182 L 133 152 L 152 148 L 154 157 L 132 209 L 130 223 L 106 240 L 118 247 L 141 247 L 156 234 L 173 203 L 180 153 L 190 145 L 207 139 L 206 159 L 197 218 L 179 229 L 176 239 L 188 249 L 209 250 L 225 235 L 226 198 L 231 174 L 230 142 L 237 153 L 241 185 L 234 243 L 240 245 L 255 227 L 253 130 L 244 99"/>
<path d="M 241 89 L 247 76 L 255 70"/>
<path d="M 104 14 L 99 15 L 95 29 L 103 31 L 110 18 L 109 15 L 101 15 L 100 26 L 111 23 L 97 24"/>
</g>
</svg>
