<svg width="256" height="256" xmlns="http://www.w3.org/2000/svg">
<g stroke="black" fill="transparent" stroke-width="4">
<path d="M 91 102 L 106 63 L 117 52 L 165 36 L 185 36 L 207 40 L 230 52 L 251 85 L 255 107 L 251 115 L 243 119 L 189 123 L 189 119 L 235 145 L 246 160 L 244 169 L 209 179 L 156 180 L 139 176 L 99 149 L 90 126"/>
<path d="M 88 98 L 57 40 L 47 40 L 29 49 L 13 80 L 1 116 L 1 165 L 12 181 L 29 190 L 38 190 L 46 182 L 66 145 L 80 135 L 93 132 L 96 123"/>
<path d="M 22 69 L 63 89"/>
<path d="M 9 110 L 42 114"/>
<path d="M 7 157 L 37 146"/>
<path d="M 137 115 L 141 119 L 167 131 L 167 135 L 150 152 L 136 138 L 129 116"/>
<path d="M 184 61 L 182 65 L 184 74 L 196 83 L 208 81 L 213 71 L 212 64 L 193 56 L 185 57 L 184 62"/>
<path d="M 187 66 L 197 76"/>
<path d="M 172 25 L 165 11 L 155 0 L 105 18 L 99 27 L 117 55"/>
<path d="M 170 22 L 173 32"/>
<path d="M 191 62 L 198 73"/>
</g>
</svg>
