<svg width="256" height="256" xmlns="http://www.w3.org/2000/svg">
<g stroke="black" fill="transparent" stroke-width="4">
<path d="M 63 90 L 34 90 L 23 93 L 7 102 L 0 111 L 1 126 L 15 147 L 27 155 L 49 160 L 78 160 L 94 154 L 102 150 L 111 134 L 112 108 L 106 99 L 99 96 L 76 95 L 64 90"/>
<path d="M 90 94 L 92 38 L 89 24 L 98 25 L 120 36 L 137 35 L 144 27 L 142 19 L 128 12 L 119 12 L 90 20 L 92 0 L 96 5 L 100 20"/>
<path d="M 61 106 L 40 109 L 65 118 L 40 130 L 72 129"/>
<path d="M 51 163 L 52 200 L 58 228 L 56 248"/>
<path d="M 56 248 L 80 243 L 59 252 L 77 255"/>
</g>
</svg>
