<svg width="256" height="256" xmlns="http://www.w3.org/2000/svg">
<g stroke="black" fill="transparent" stroke-width="4">
<path d="M 36 66 L 46 49 L 58 41 L 75 35 L 101 35 L 148 45 L 159 62 L 160 74"/>
<path d="M 37 65 L 50 78 L 101 87 L 143 89 L 162 86 L 170 84 L 173 76"/>
<path d="M 62 50 L 63 25 L 68 12 L 74 6 L 77 5 L 82 13 L 87 43"/>
<path d="M 112 50 L 118 22 L 125 17 L 133 19 L 137 25 L 135 50"/>
<path d="M 44 58 L 18 1 L 8 32 L 0 90 L 1 103 L 10 102"/>
<path d="M 157 61 L 197 42 L 255 20 L 208 97 L 201 114"/>
<path d="M 68 84 L 55 103 L 73 124"/>
<path d="M 150 88 L 160 110 L 133 129"/>
<path d="M 73 38 L 74 47 L 76 45 L 76 30 L 75 26 L 74 31 L 74 49 L 75 39 L 72 21 L 73 45 L 75 40"/>
<path d="M 124 34 L 122 48 L 126 38 L 125 57 L 124 43"/>
<path d="M 39 65 L 79 73 L 122 78 L 150 78 L 161 76"/>
<path d="M 159 66 L 170 75 L 174 81"/>
</g>
</svg>
