<svg width="256" height="256" xmlns="http://www.w3.org/2000/svg">
<g stroke="black" fill="transparent" stroke-width="4">
<path d="M 46 40 L 40 50 L 20 64 L 4 65 L 1 51 L 11 33 L 30 24 L 50 27 L 60 33 L 70 47 L 114 165 L 121 163 L 136 152 L 150 146 L 156 146 L 160 150 L 158 178 L 149 193 L 128 215 L 97 228 L 74 233 L 39 224 L 36 204 L 44 186 L 62 166 L 67 155 L 63 135 L 45 107 L 40 53 L 36 43"/>
<path d="M 10 26 L 6 15 L 10 1 L 16 0 L 25 11 L 31 30"/>
<path d="M 24 44 L 26 40 L 50 34 L 55 44 L 40 50 L 35 40 L 41 35"/>
<path d="M 66 97 L 56 87 L 56 82 L 66 72 L 73 77 L 62 100 L 53 101 L 53 94"/>
<path d="M 81 137 L 70 128 L 85 124 L 81 148 L 66 147 L 66 139"/>
<path d="M 88 232 L 85 247 L 88 255"/>
<path d="M 101 249 L 107 227"/>
<path d="M 143 203 L 145 209 L 155 215 L 139 230 L 134 230 L 127 224 L 131 211"/>
<path d="M 48 225 L 59 248 L 73 229"/>
<path d="M 53 181 L 71 176 L 74 181 L 68 198 L 59 179"/>
<path d="M 115 155 L 130 156 L 110 177 L 110 163 L 113 161"/>
<path d="M 113 203 L 112 195 L 141 194 L 127 206 L 109 206 L 109 202"/>
<path d="M 5 63 L 4 62"/>
</g>
</svg>
