<svg width="256" height="256" xmlns="http://www.w3.org/2000/svg">
<g stroke="black" fill="transparent" stroke-width="4">
<path d="M 36 70 L 28 94 L 12 111 L 53 116"/>
<path d="M 34 69 L 48 47 L 51 35 L 60 35 L 73 14 L 77 14 L 81 20 L 99 6 L 117 0 L 123 12 L 151 11 L 157 22 L 192 18 L 192 33 L 226 36 L 227 51 L 223 57 L 246 65 L 240 84 L 243 90 L 242 102 L 227 117 L 244 120 L 255 127 L 236 136 L 178 136 L 164 132 L 118 126 L 77 124 L 63 118 L 61 112"/>
<path d="M 44 63 L 52 64 L 63 81 L 67 94 L 67 114 L 64 118"/>
<path d="M 43 88 L 45 89"/>
<path d="M 15 110 L 1 98"/>
<path d="M 5 113 L 0 113"/>
<path d="M 103 122 L 98 142 L 83 144"/>
<path d="M 181 125 L 183 129 L 175 147 L 195 156"/>
<path d="M 189 160 L 172 161"/>
<path d="M 125 57 L 135 60"/>
<path d="M 114 83 L 129 83"/>
<path d="M 92 56 L 102 55"/>
<path d="M 141 95 L 156 96"/>
</g>
</svg>
