<svg width="256" height="256" xmlns="http://www.w3.org/2000/svg">
<g stroke="black" fill="transparent" stroke-width="4">
<path d="M 184 70 L 150 64 L 108 64 L 96 67 L 80 74 L 75 82 L 74 95 L 79 106 L 107 116 L 152 121 L 188 119 L 216 108 L 224 101 L 226 92 L 220 80 L 192 60 L 167 53"/>
<path d="M 244 34 L 229 33 L 205 39 L 200 54 L 206 67 L 213 72 L 231 74 L 240 74 L 252 66 L 255 49 L 250 38 L 242 29 L 226 22"/>
<path d="M 91 125 L 87 149 L 89 170"/>
<path d="M 132 116 L 123 161"/>
<path d="M 159 126 L 157 154"/>
<path d="M 184 118 L 185 163"/>
<path d="M 221 45 L 221 45"/>
<path d="M 219 45 L 218 47"/>
<path d="M 239 46 L 239 48"/>
<path d="M 241 58 L 231 65 L 220 63"/>
<path d="M 69 79 L 56 88 L 42 106 L 25 145 L 15 155"/>
<path d="M 70 80 L 62 84 L 55 103 L 15 158 L 0 171"/>
<path d="M 65 75 L 56 79 L 46 98 L 34 142 L 28 149 L 11 160"/>
<path d="M 65 74 L 55 81 L 47 93 L 27 151 L 9 158"/>
<path d="M 146 5 L 125 2 L 120 8 L 119 23 L 126 34 L 133 35 L 143 22 L 145 5 L 140 0"/>
<path d="M 136 36 L 132 53"/>
<path d="M 130 53 L 117 81"/>
<path d="M 134 50 L 138 79"/>
<path d="M 148 35 L 115 40"/>
</g>
</svg>
