<svg width="256" height="256" xmlns="http://www.w3.org/2000/svg">
<g stroke="black" fill="transparent" stroke-width="4">
<path d="M 35 75 L 25 73 L 1 55 L 1 42 L 13 33 L 36 23 L 52 19 L 77 17 L 106 1 L 118 0 L 122 7 L 123 24 L 120 35 L 114 46 L 89 59"/>
<path d="M 64 20 L 71 6 L 82 3 L 82 8"/>
<path d="M 51 38 L 64 35"/>
<path d="M 50 35 L 66 35"/>
<path d="M 37 72 L 9 160 L 9 185 L 16 207 L 25 221 L 44 230 L 69 230 L 100 224 L 145 207 L 165 195 L 180 181 L 185 164 L 180 163 L 148 165 L 133 161 L 93 90 L 92 57"/>
<path d="M 63 98 L 64 139 L 70 152 L 82 153 L 90 139 L 93 114"/>
<path d="M 75 183 L 63 205 L 47 251 L 56 255 L 87 255 L 91 252 L 99 219"/>
<path d="M 11 160 L 29 155 L 64 155 L 65 160 L 52 190 L 36 216 L 27 220"/>
<path d="M 26 214 L 25 235 L 28 240 L 57 238"/>
<path d="M 24 99 L 0 129 L 5 139"/>
<path d="M 25 155 L 25 145 L 6 141 L 5 134 L 8 126 L 19 120 L 30 118 L 41 122 L 38 137 L 29 143 L 21 144"/>
<path d="M 30 115 L 36 107 L 41 109 L 40 122 L 35 131"/>
</g>
</svg>
