<svg width="256" height="256" xmlns="http://www.w3.org/2000/svg">
<g stroke="black" fill="transparent" stroke-width="4">
<path d="M 45 45 L 37 51 L 32 65 L 31 86 L 35 101 L 47 119 L 64 124 L 90 114 L 105 102 L 116 86 L 116 67 L 105 49 L 81 36 L 53 35 L 40 41 L 29 50 L 42 27 L 52 15 L 68 5 L 71 7 L 69 18 L 72 20 L 99 11 L 118 11 L 123 16 L 121 29 L 127 35"/>
<path d="M 132 40 L 135 53 L 128 76 L 131 90 L 138 104 L 137 114 L 125 126 L 103 126"/>
<path d="M 101 126 L 77 144"/>
<path d="M 65 154 L 49 151 L 34 158 L 25 155 L 1 127 L 0 115 L 1 88 L 7 60 L 35 32 L 57 22"/>
<path d="M 134 87 L 153 83 L 182 83 L 207 89 L 226 102 L 236 127 L 239 154 L 236 176 L 229 192 L 218 202 L 213 204 L 208 201 L 201 186 L 198 159 L 192 143 L 182 137 L 166 135 L 127 138 L 118 175 L 110 185 L 102 188 L 98 183 L 94 170 L 92 138"/>
<path d="M 216 92 L 230 78 L 240 53 L 238 38 L 226 23 L 225 13 L 233 0 L 236 5 L 230 18 L 237 11 L 254 6 L 237 22"/>
<path d="M 233 27 L 240 21 L 254 17 L 255 20 L 242 30"/>
<path d="M 56 65 L 57 63"/>
<path d="M 74 57 L 76 56"/>
<path d="M 57 82 L 77 72 L 87 70"/>
<path d="M 75 71 L 65 73 L 62 76 L 68 78 L 77 73 L 77 70 L 71 71 L 63 81"/>
<path d="M 47 103 L 106 86"/>
</g>
</svg>
