<svg width="256" height="256" xmlns="http://www.w3.org/2000/svg">
<g stroke="black" fill="transparent" stroke-width="4">
<path d="M 184 105 L 181 95 L 100 53 L 74 55 L 104 142 L 118 171"/>
<path d="M 104 137 L 73 131 L 52 122 L 48 118"/>
<path d="M 108 146 L 63 133 L 44 121"/>
<path d="M 46 111 L 49 82 L 45 75 L 35 67 L 34 102 L 2 92 L 0 95 L 9 114 L 21 123 L 45 125"/>
<path d="M 164 87 L 170 59 L 168 48"/>
<path d="M 172 88 L 176 58 L 173 46"/>
<path d="M 162 46 L 142 29 L 155 37 L 145 32 L 138 15 L 140 8 L 150 20 L 160 26 L 171 0 L 174 8 L 172 51"/>
<path d="M 126 76 L 126 76"/>
<path d="M 108 94 L 105 95 L 109 94 L 107 91 L 105 92 L 106 97 L 109 92"/>
<path d="M 127 74 L 132 75 L 126 74 L 125 78"/>
<path d="M 120 168 L 146 194 L 168 207 L 232 225 L 244 226 L 246 220"/>
<path d="M 190 103 L 245 166 L 253 190 L 255 218"/>
<path d="M 182 104 L 154 135 L 137 180 L 139 181"/>
<path d="M 206 126 L 206 126"/>
<path d="M 217 156 L 217 156"/>
<path d="M 230 185 L 205 217"/>
<path d="M 243 186 L 218 226"/>
<path d="M 208 128 L 208 128"/>
<path d="M 220 137 L 192 166 L 178 192 L 175 203"/>
<path d="M 250 225 L 249 225"/>
</g>
</svg>
