<svg width="256" height="256" xmlns="http://www.w3.org/2000/svg">
<g stroke="black" fill="transparent" stroke-width="4">
<path d="M 123 67 L 120 63 L 111 63 L 83 78 L 69 95 L 63 114 L 67 131 L 79 146 L 99 156 L 122 158 L 150 149 L 166 135 L 177 110 L 175 91 L 161 68 L 148 58 L 136 53 L 117 53 L 98 62 L 88 72 L 86 70"/>
<path d="M 67 98 L 54 74 L 50 54 L 58 29 L 75 16 L 83 15 L 89 20 L 102 57 L 115 30 L 131 11 L 147 2 L 168 1 L 176 11 L 176 21 L 166 44 L 158 57 L 154 59"/>
<path d="M 87 92 L 87 92"/>
<path d="M 136 83 L 136 83"/>
<path d="M 97 99 L 92 101 L 91 95 L 87 96 L 92 95 L 94 90"/>
<path d="M 150 82 L 143 87"/>
<path d="M 98 129 L 128 133 L 150 123"/>
<path d="M 116 165 L 116 165"/>
<path d="M 116 165 L 116 165"/>
<path d="M 119 160 L 111 165 L 103 175 L 99 187 L 98 202 L 100 208 L 111 222 L 130 225 L 142 219 L 155 207 L 165 184 L 164 168 L 159 161 L 148 156 L 132 158"/>
<path d="M 92 210 L 52 204 L 25 189 L 11 170 L 2 135"/>
<path d="M 118 219 L 99 255"/>
<path d="M 144 218 L 145 227 L 161 238"/>
<path d="M 98 214 L 98 214"/>
<path d="M 87 209 L 96 215 L 114 220"/>
<path d="M 152 248 L 175 254"/>
<path d="M 0 140 L 5 148 L 33 155 L 58 189 L 89 210 L 107 214 L 106 205"/>
<path d="M 99 181 L 50 153"/>
<path d="M 176 178 L 180 180 L 188 175 L 210 147"/>
<path d="M 119 50 L 152 23 L 151 31 L 136 60"/>
<path d="M 75 80 L 65 63 L 70 53 L 76 52 L 79 56 L 86 71"/>
</g>
</svg>
