<svg width="256" height="256" xmlns="http://www.w3.org/2000/svg">
<g stroke="black" fill="transparent" stroke-width="4">
<path d="M 181 116 L 170 115 L 164 105 L 178 79 L 190 73 L 202 72 L 215 78 L 219 84 L 223 99 L 223 116 L 219 123 L 206 129 L 186 130 L 181 123 L 180 113"/>
<path d="M 166 90 L 184 88 L 186 95 L 183 99 L 172 102 L 161 100 L 158 88 L 174 84"/>
<path d="M 195 86 L 192 83 L 195 77 L 204 77 L 206 86 L 190 93 L 179 93 L 180 88 L 191 82"/>
<path d="M 192 93 L 255 95 L 236 107 L 218 112 L 213 112 L 197 100"/>
<path d="M 163 111 L 101 110 L 69 114 L 44 121 L 1 143 L 96 140 L 121 134 L 169 115 L 178 115"/>
<path d="M 108 112 L 103 56 L 103 1 L 105 0 L 110 8 L 115 29 L 115 73 L 120 99 L 116 119"/>
<path d="M 111 116 L 60 60 L 43 48 L 28 45 L 50 62 L 84 109 L 111 119 L 114 117 L 112 114"/>
<path d="M 58 133 L 49 187 L 55 173"/>
<path d="M 95 129 L 106 175"/>
<path d="M 124 128 L 139 147 L 166 174 L 172 178 L 171 170"/>
</g>
</svg>
