<svg width="256" height="256" xmlns="http://www.w3.org/2000/svg">
<g stroke="black" fill="transparent" stroke-width="4">
<path d="M 78 126 L 76 109 L 64 69 L 63 44 L 72 25 L 86 7 L 99 0 L 135 1 L 145 10 L 155 32 L 157 67 L 151 99 L 145 110 L 131 122"/>
<path d="M 117 38 L 113 41 L 113 70 L 119 71 L 136 50 L 139 41 L 138 37 L 134 36 L 120 37"/>
<path d="M 93 38 L 87 43 L 85 50 L 87 70 L 98 68 L 102 43 L 98 40"/>
<path d="M 78 127 L 38 159 L 23 166 L 4 166 L 2 170 L 0 201 L 3 203 L 14 196 L 27 181 L 54 167 L 63 158 L 63 169 L 46 209 L 33 254 L 41 255 L 60 248 L 65 202 L 81 163 L 91 225 L 105 250 L 109 253 L 114 249 L 126 229 L 126 216 L 110 169 L 131 220 L 150 249 L 155 195 L 147 181 L 173 231 L 206 254 L 200 195 L 193 183 L 174 161 L 178 159 L 211 168 L 230 166 L 241 148 L 240 130 L 235 125 L 223 121 L 140 122 L 127 118 L 124 113"/>
</g>
</svg>
