<svg width="256" height="256" xmlns="http://www.w3.org/2000/svg">
<g stroke="black" fill="transparent" stroke-width="4">
<path d="M 118 128 L 128 121 L 137 107 L 143 90 L 144 66 L 135 47 L 126 37 L 113 26 L 101 22 L 68 25 L 47 37 L 31 62 L 26 89 L 30 101 L 52 135 L 61 139 L 89 138 L 111 132 L 114 127"/>
<path d="M 81 91 L 100 89 L 115 93 L 114 98 L 91 107 L 106 110 L 107 114 L 81 120"/>
<path d="M 120 65 L 114 68"/>
<path d="M 68 66 L 68 70"/>
<path d="M 65 130 L 48 131 L 37 136 L 16 153 L 10 162 L 2 183 L 0 197 L 0 225 L 7 238 L 11 235 L 29 195 L 62 136"/>
<path d="M 124 115 L 135 118 L 149 129 L 161 148 L 183 219 L 178 221 L 166 213 L 128 155 L 120 128 L 125 182 L 144 230 L 134 234 L 88 231 L 65 236 L 55 221 L 51 205 L 51 187 L 58 166 L 61 144"/>
<path d="M 75 231 L 35 241 L 23 251 L 27 255 L 62 253 L 100 233"/>
<path d="M 97 231 L 168 238 L 171 242 L 167 246 L 151 252 L 124 252 L 106 248 L 100 232"/>
<path d="M 26 53 L 28 49"/>
<path d="M 26 66 L 26 33 L 31 15 L 37 12 L 56 23 L 74 9 L 93 5 L 111 6 L 124 14 L 132 0 L 141 30 L 131 52"/>
<path d="M 72 36 L 54 44 L 41 71 L 35 90 L 35 110 L 42 121 L 59 136 L 80 141 L 101 132 L 130 107 L 135 90 L 135 71 L 127 48 L 122 44 L 101 39 L 78 42"/>
</g>
</svg>
