<svg width="256" height="256" xmlns="http://www.w3.org/2000/svg">
<g stroke="black" fill="transparent" stroke-width="4">
<path d="M 10 178 L 0 140 L 0 117 L 10 103 L 43 76 L 62 65 L 87 57 L 133 52 L 196 53 L 225 68 L 246 96 L 255 133 L 255 167 L 251 184 L 242 199 L 212 218 L 183 228 L 86 229 L 50 216 L 12 193 L 3 184"/>
<path d="M 35 155 L 55 172 L 66 176 L 92 175 L 108 164 L 142 178 L 170 177 L 179 167 L 184 156"/>
<path d="M 98 142 L 108 138 L 106 142"/>
<path d="M 59 99 L 54 99 L 53 104 L 59 107 L 65 105 L 66 101 L 62 99"/>
<path d="M 167 94 L 172 89 L 178 88 L 184 89 L 184 94 L 180 95"/>
<path d="M 48 71 L 36 62 L 30 50 L 30 30 L 36 24 L 71 18 L 84 19 L 93 36 L 91 55 L 88 62 L 65 59 L 62 52 L 70 43 L 49 43 L 61 41 L 56 45 L 61 40 L 86 41 L 80 45 L 66 42 L 76 41 L 77 47 L 71 50 L 65 49 L 55 40 L 69 37 L 72 42 L 53 41 L 56 47"/>
<path d="M 175 45 L 176 12 L 183 4 L 193 0 L 217 2 L 232 19 L 232 31 L 211 38"/>
<path d="M 201 25 L 213 35 L 214 41 L 209 44 L 184 42 L 199 44"/>
<path d="M 64 108 L 57 103 L 55 91 L 77 88 L 81 95 L 80 107 L 68 109 L 50 109 L 44 101 L 46 92 L 66 92 L 72 96 L 75 102 L 70 104 L 67 99 L 67 103 L 61 104 L 48 100 L 45 95 L 51 92 L 58 93 L 68 104 L 70 98"/>
<path d="M 176 99 L 173 89 L 180 87 L 186 88 L 194 92 L 197 99 L 188 101 L 177 92 L 176 86 L 187 85 L 192 88 L 193 94 L 187 95 L 176 92 L 175 85 L 180 82 L 188 89 L 183 95 L 183 107 L 176 109 L 172 102 L 171 92 L 173 87 L 198 84 L 204 86 L 205 93 L 189 96 L 179 90 L 175 82 L 190 82 L 202 87 L 206 98 L 196 99 L 184 89 L 189 85 L 200 85 L 208 97 L 203 101 L 188 98 L 181 92 L 183 88"/>
</g>
</svg>
