<svg width="256" height="256" xmlns="http://www.w3.org/2000/svg">
<g stroke="black" fill="transparent" stroke-width="4">
<path d="M 33 226 L 18 177 L 16 130 L 28 69 L 38 40 L 49 24 L 67 10 L 92 1 L 130 0 L 138 2 L 160 19 L 166 27 L 176 71 L 176 99 L 182 126 L 182 162 L 170 199 L 159 214 L 144 226 L 100 240 L 41 241 L 33 230"/>
<path d="M 49 98 L 53 70 L 60 52 L 79 35 L 98 30 L 135 30 L 145 34 L 150 53 L 147 108 L 163 150 L 168 224"/>
<path d="M 48 97 L 31 161 L 31 187 L 48 234"/>
<path d="M 79 47 L 78 61 L 83 60 L 84 49 L 81 45 L 76 58 L 84 55"/>
<path d="M 128 45 L 128 53 L 130 55 L 131 52 L 129 44 L 126 47 L 126 53"/>
<path d="M 109 72 L 150 76 L 145 80 L 122 80 L 113 84"/>
<path d="M 16 105 L 16 124 L 0 180 L 2 189 L 15 185"/>
<path d="M 176 89 L 211 166 L 209 172 L 187 172"/>
<path d="M 70 240 L 93 242 L 95 249 L 91 255 L 67 254 L 57 248 L 54 243"/>
<path d="M 144 230 L 181 236 L 183 245 L 147 246 L 126 243 L 119 238"/>
</g>
</svg>
