<svg width="256" height="256" xmlns="http://www.w3.org/2000/svg">
<g stroke="black" fill="transparent" stroke-width="4">
<path d="M 166 48 L 132 46 L 100 52 L 52 73 L 29 94 L 21 105 L 6 133 L 0 163 L 9 183 L 20 197 L 41 217 L 72 235 L 105 239 L 167 226 L 204 208 L 231 183 L 252 146 L 255 125 L 248 108 L 239 97 L 210 68 L 185 53 L 165 45 L 155 45 L 124 60"/>
<path d="M 150 137 L 102 141 L 84 147 L 74 155 L 61 172 L 56 190 L 66 206 L 81 217 L 122 217 L 170 204 L 177 200 L 186 187 L 188 169 L 182 148 L 168 143 L 142 142 L 126 146"/>
<path d="M 99 174 L 102 200 L 106 203 L 112 185 L 112 171 L 108 163 L 99 163 L 94 176 L 101 188 L 110 192 L 114 187 L 114 176 L 110 165 L 103 169 L 102 181 L 106 195 L 111 199 L 113 187 L 109 168 L 106 165 L 103 169 L 101 179 L 108 195 L 113 185 L 110 165 L 106 169 L 104 179 L 107 189 L 108 176 L 104 182 L 107 190"/>
<path d="M 142 173 L 139 172 L 137 177 L 137 189 L 141 201 L 144 201 L 148 195 L 152 182 L 149 156 L 143 159 L 140 187 L 143 193 L 150 182 L 149 166 L 145 165 L 140 171 L 139 181 L 144 188 L 151 184 L 152 173 L 149 167 L 144 171 L 143 179 L 145 189 L 152 194 L 155 181 L 152 171 L 150 169 L 146 173 L 146 182 L 152 192"/>
<path d="M 75 108 L 73 125 L 78 130 L 85 127 L 89 119 L 90 113 L 86 108 L 80 110 L 79 123 L 84 124 L 90 118 L 91 111 L 85 108 L 83 114 L 85 117 L 79 122 L 77 133"/>
<path d="M 164 108 L 155 119 L 159 121 L 165 120 L 169 107 L 161 105 L 154 111 L 154 121 L 160 122 L 165 113 L 160 104 L 158 107 L 159 114 L 163 117 L 169 115 L 169 109 L 164 109 L 156 123"/>
<path d="M 170 47 L 202 15 L 224 0 L 225 5 L 213 46 L 211 70"/>
<path d="M 69 60 L 48 27 L 37 16 L 34 16 L 27 27 L 8 79 L 32 55 L 45 89"/>
</g>
</svg>
