<svg width="256" height="256" xmlns="http://www.w3.org/2000/svg">
<g stroke="black" fill="transparent" stroke-width="4">
<path d="M 201 131 L 212 124 L 221 109 L 226 86 L 224 61 L 220 47 L 202 18 L 181 0 L 179 20 L 166 74 L 162 120"/>
<path d="M 156 116 L 159 85 L 153 68 L 143 49 L 115 22 L 92 14 L 88 44 L 93 72 L 128 137 L 128 131"/>
<path d="M 196 132 L 210 139 L 221 149 L 227 159 L 227 176 L 219 189 L 208 196 L 188 200 L 163 195 L 134 179 L 126 166 L 121 147 L 121 131 L 124 124 L 128 123"/>
<path d="M 208 168 L 181 173 L 208 169 L 207 189 L 186 194 L 178 173 L 179 169"/>
<path d="M 198 193 L 198 193"/>
<path d="M 196 187 L 196 187"/>
<path d="M 200 168 L 194 196"/>
<path d="M 200 145 L 205 155"/>
<path d="M 162 144 L 165 163"/>
<path d="M 114 148 L 76 146 L 56 149 L 28 161 L 4 189 L 0 205 L 0 234"/>
<path d="M 171 207 L 176 214 L 169 225 L 157 234 L 141 244 L 100 255 L 46 251 L 17 237 L 0 224"/>
</g>
</svg>
