<svg width="256" height="256" xmlns="http://www.w3.org/2000/svg">
<g stroke="black" fill="transparent" stroke-width="4">
<path d="M 202 20 L 209 5 L 216 16 L 234 5 L 247 4 L 248 17 L 254 29 L 255 42 L 246 58 L 224 68 L 208 68 L 201 64 L 194 51 L 193 40 L 206 16"/>
<path d="M 202 28 L 148 30 L 101 37 L 82 20 L 62 8 L 46 2 L 26 3 L 15 9 L 1 26 L 1 38 L 8 46 L 37 56 L 74 61 L 98 60"/>
<path d="M 19 10 L 18 55"/>
<path d="M 47 0 L 47 52"/>
<path d="M 81 18 L 77 60"/>
<path d="M 94 54 L 112 67 L 117 74 L 120 124 L 133 124 L 144 113 L 150 90 L 149 65 L 159 118 L 167 127 L 177 131 L 188 125 L 192 109 L 193 85 L 185 63 L 199 113 L 206 124 L 211 125 L 215 123 L 221 108 L 221 92 L 214 79 L 230 106 L 237 114 L 240 113 L 242 90 L 238 76 L 230 64 L 220 58"/>
<path d="M 220 23 L 212 27 L 208 39 L 216 40 L 221 36 L 224 26 L 218 21"/>
<path d="M 221 34 L 218 31"/>
<path d="M 247 18 L 241 25 L 238 36 L 244 38 L 250 32 L 252 18 L 248 15"/>
<path d="M 246 30 L 249 34"/>
<path d="M 107 34 L 105 72"/>
<path d="M 144 24 L 140 41"/>
</g>
</svg>
