<svg width="256" height="256" xmlns="http://www.w3.org/2000/svg">
<g stroke="black" fill="transparent" stroke-width="4">
<path d="M 63 199 L 116 208 L 183 207 L 216 195 L 227 185 L 229 179 L 229 174 L 223 168 L 185 159 L 108 156 L 91 159 L 66 169 L 53 180 L 51 186 L 57 193 L 67 198"/>
<path d="M 43 191 L 21 175 L 18 164 L 29 158 L 48 157"/>
<path d="M 8 158 L 3 141 L 9 134 L 21 132 L 27 149"/>
<path d="M 1 134 L 0 123 L 11 113 L 30 112 L 35 116 L 34 123"/>
<path d="M 1 103 L 7 88 L 17 81 L 29 81 L 43 94 L 44 114"/>
<path d="M 20 71 L 33 65 L 56 59 L 83 58 L 87 64 L 75 76 L 54 81"/>
<path d="M 58 44 L 74 39 L 90 41 L 97 45 L 100 52 L 100 57 L 91 60"/>
<path d="M 93 36 L 96 46 L 102 50 L 124 51 L 129 45 L 129 40 L 121 18 L 127 13 L 147 11 L 140 4 L 106 0 L 93 19 L 96 34"/>
<path d="M 79 195 L 66 212 L 65 229"/>
<path d="M 103 198 L 104 222 L 109 222"/>
<path d="M 129 208 L 140 236"/>
<path d="M 110 151 L 120 137 L 135 126"/>
<path d="M 135 143 L 146 136 L 188 124"/>
<path d="M 184 142 L 226 130 L 255 128"/>
<path d="M 189 177 L 189 177"/>
</g>
</svg>
