<svg width="256" height="256" xmlns="http://www.w3.org/2000/svg">
<g stroke="black" fill="transparent" stroke-width="4">
<path d="M 68 93 L 59 133 L 63 163 L 85 202 L 114 220 L 146 224 L 165 222 L 191 212 L 208 201 L 222 164 L 222 146 L 216 117 L 209 99 L 196 88 L 157 71 L 137 70 L 120 74 L 103 72 L 83 83 L 75 95"/>
<path d="M 110 82 L 86 95 L 82 100 L 81 104 L 85 106 L 98 107 L 103 104 L 106 88 L 94 80 L 90 81 L 86 88"/>
<path d="M 78 131 L 79 143 L 92 153 L 99 138 L 97 132 L 89 124 L 78 123 L 78 128"/>
<path d="M 90 178 L 108 183 L 117 183 L 120 167 L 116 163 L 112 161 L 108 163 L 102 173"/>
<path d="M 118 115 L 114 124 L 116 137 L 128 143 L 132 135 L 130 126 L 119 117"/>
<path d="M 144 81 L 132 82 L 129 90 L 142 104 L 157 111 L 161 108 L 164 93 L 164 87 L 155 77"/>
<path d="M 165 126 L 153 149 L 151 132 L 147 132 L 140 140 L 141 148 L 147 156 L 160 162 L 164 160 L 167 151 L 165 134 L 159 126 L 142 115 L 133 115 L 129 120"/>
<path d="M 128 196 L 137 198 L 149 180 L 143 171 L 133 165 L 128 168 L 126 175"/>
<path d="M 162 203 L 158 202 L 162 218 L 175 229 L 183 224 L 187 210 L 184 196 L 165 177"/>
<path d="M 192 174 L 189 189 L 198 189 L 204 176 L 203 169 L 194 154 L 177 140 L 174 149"/>
<path d="M 185 137 L 189 137 L 194 130 L 201 110 L 200 104 L 187 98 L 183 106 L 187 109"/>
<path d="M 116 63 L 123 17 L 137 0 L 141 0 L 146 8 L 148 21 L 150 54 L 146 68"/>
<path d="M 214 97 L 224 89 L 232 86 L 252 94 L 253 98 L 255 117 L 230 125 L 221 121"/>
<path d="M 229 102 L 231 98 L 244 100"/>
<path d="M 237 106 L 245 105 L 252 111"/>
<path d="M 221 201 L 234 221 L 233 226 L 225 230 L 199 221 L 190 203 L 194 203"/>
<path d="M 223 217 L 231 221 L 225 225"/>
<path d="M 215 221 L 229 231 L 237 248"/>
<path d="M 51 108 L 39 100 L 10 98 L 2 106 L 0 120 L 8 137 L 17 145 L 31 146 L 53 139"/>
<path d="M 16 109 L 10 108 L 4 113 L 12 123"/>
<path d="M 31 128 L 26 128 L 13 136 L 10 144"/>
<path d="M 76 188 L 67 189 L 59 198 L 49 217 L 49 229 L 62 240 L 75 237 L 88 216 L 82 209"/>
</g>
</svg>
