<svg width="256" height="256" xmlns="http://www.w3.org/2000/svg">
<g stroke="black" fill="transparent" stroke-width="4">
<path d="M 35 78 L 61 61 L 104 45 L 151 36 L 208 36 L 240 47 L 246 54 L 254 75 L 255 103 L 249 121 L 227 146 L 208 157 L 188 162 L 140 159 L 80 144 L 47 133 L 36 122 L 31 111"/>
<path d="M 166 33 L 156 10 L 142 0 L 106 2 L 60 10 L 54 12 L 54 14 L 80 40 L 84 47"/>
<path d="M 35 77 L 21 67 L 0 57 L 7 82 L 6 96 L 12 102 L 12 132 L 17 130 L 31 110"/>
<path d="M 214 101 L 222 74 L 228 90 L 234 77 L 240 92 L 250 73 L 255 88"/>
<path d="M 212 97 L 210 141 L 218 119 L 231 101 L 236 123 L 242 108 L 243 123 L 248 107"/>
<path d="M 219 53 L 214 55 L 213 50 L 216 55 L 213 56 L 212 54 L 214 52 L 215 55"/>
</g>
</svg>
