<svg width="256" height="256" xmlns="http://www.w3.org/2000/svg">
<g stroke="black" fill="transparent" stroke-width="4">
<path d="M 95 91 L 108 55 L 120 44 L 130 41 L 148 44 L 158 55 L 186 41 L 203 40 L 209 46 L 210 57 L 198 89 L 207 78 L 230 66 L 242 63 L 251 67 L 254 81 L 239 111 L 244 120 L 251 123 L 232 142 L 229 171 L 223 184 L 205 188 L 187 183 L 181 178 L 203 170 L 208 171 L 202 175 L 136 186 L 94 177 L 81 169 L 81 162 L 107 135 L 90 106 L 85 90"/>
<path d="M 99 95 L 76 93"/>
<path d="M 88 84 L 77 48 L 66 25 L 54 14 L 41 12 L 25 20 L 7 41 L 0 67 L 6 86 L 19 97 L 35 103 L 98 81"/>
<path d="M 36 53 L 33 53"/>
<path d="M 18 84 L 39 83"/>
<path d="M 46 18 L 55 0"/>
<path d="M 99 169 L 101 195 L 97 226"/>
<path d="M 225 176 L 217 194 L 216 207 L 222 237"/>
</g>
</svg>
