<svg width="256" height="256" xmlns="http://www.w3.org/2000/svg">
<g stroke="black" fill="transparent" stroke-width="4">
<path d="M 20 135 L 39 128 L 104 122 L 113 104 L 123 53 L 123 43 L 118 29 L 89 1 L 53 6 L 26 14 L 3 40 L 0 50 L 1 76 L 18 125 L 24 127 L 51 121"/>
<path d="M 108 119 L 223 102 L 250 83 L 255 64 L 253 51 L 242 39 L 229 40 L 215 46 L 195 71 L 177 83 L 130 99 L 109 98 L 124 96"/>
<path d="M 223 56 L 223 56"/>
<path d="M 215 57 L 217 56"/>
<path d="M 231 55 L 234 55"/>
<path d="M 209 75 L 223 73 L 242 63"/>
<path d="M 29 18 L 46 14 L 80 13 L 93 19 L 99 28 L 100 45 L 91 64 L 57 96 L 29 101 L 20 77 L 26 56 L 36 44 L 62 27 L 68 28 L 76 36 L 73 50 L 51 72 L 35 72 L 33 64 L 48 51 L 57 48 L 59 50"/>
</g>
</svg>
