<svg width="256" height="256" xmlns="http://www.w3.org/2000/svg">
<g stroke="black" fill="transparent" stroke-width="4">
<path d="M 52 171 L 95 162 L 144 167 L 174 181 L 164 204 L 144 225 L 100 238 L 62 211 L 59 183 L 62 177 L 76 171"/>
<path d="M 158 178 L 183 177 L 192 172 L 196 165 L 195 172 L 208 193"/>
<path d="M 142 172 L 180 111 L 204 141"/>
<path d="M 153 215 L 181 211 L 185 226 L 184 245"/>
<path d="M 74 170 L 58 142 L 39 118 L 0 146"/>
<path d="M 59 199 L 37 179 L 12 208"/>
<path d="M 88 229 L 71 223 L 56 223 L 39 255"/>
<path d="M 121 174 L 118 67 L 104 0"/>
<path d="M 70 179 L 70 199 L 75 183 L 80 177 L 81 196 L 75 203 L 81 184 L 92 177 L 98 177 L 94 197 L 76 207 L 126 193 L 98 228 L 76 227 L 86 209 L 130 188 L 149 184 L 149 189 L 104 232 L 92 212 L 139 189 L 151 197 L 105 223 L 98 189 L 101 179 L 136 175 L 149 185 L 149 192 L 125 213 L 99 220 L 87 191 L 97 178 L 149 178 L 154 181 L 122 220 L 92 223 L 74 211 L 71 198 L 106 176 L 121 175 L 126 199 L 97 217 L 86 206 L 100 199 L 131 199 L 101 202 L 103 192 L 123 179 L 137 176 L 139 185 L 106 212 L 76 209 L 94 196 L 144 181 L 85 193 L 118 177 L 140 174 L 153 176 L 151 188 L 134 209 L 102 225 L 81 210 L 100 174"/>
<path d="M 130 215 L 191 183 L 135 216"/>
<path d="M 157 185 L 157 185"/>
</g>
</svg>
