<svg width="256" height="256" xmlns="http://www.w3.org/2000/svg">
<g stroke="black" fill="transparent" stroke-width="4">
<path d="M 53 65 L 47 61 L 26 63 L 10 72 L 1 81 L 0 93 L 7 100 L 24 104 L 55 101 L 77 84 L 80 72 L 78 66 L 67 60 L 58 58 L 55 63"/>
<path d="M 62 94 L 57 97 L 52 117 L 50 137 L 52 167 L 67 191 L 78 196 L 91 196 L 105 188 L 117 175 L 124 158 L 125 132 L 117 111 L 101 94 L 87 85 L 79 85 L 78 87"/>
<path d="M 127 149 L 138 139 L 142 129 L 142 110 L 137 86 L 139 57 L 150 30 L 172 8 L 187 2 L 211 0 L 234 10 L 245 22 L 253 37 L 254 70 L 250 85 L 227 126 L 208 149 L 188 167 L 170 176 L 150 180 L 132 180 L 116 173"/>
<path d="M 28 79 L 28 79"/>
<path d="M 35 78 L 26 77"/>
<path d="M 48 122 L 38 120 L 27 123 L 15 131 L 11 139"/>
<path d="M 53 138 L 47 134 L 40 137 L 28 154"/>
<path d="M 36 58 L 35 50 L 41 41 L 54 35 L 60 42 L 61 56"/>
</g>
</svg>
