<svg width="256" height="256" xmlns="http://www.w3.org/2000/svg">
<g stroke="black" fill="transparent" stroke-width="4">
<path d="M 226 92 L 221 86 L 208 80 L 179 81 L 115 92 L 79 106 L 65 117 L 59 133 L 63 159 L 77 175 L 100 185 L 114 187 L 168 187 L 203 184 L 219 180 L 231 173 L 242 162 L 252 145 L 254 111 L 250 101 L 234 88 L 206 81"/>
<path d="M 87 100 L 87 71 L 82 46 L 66 10 L 58 2 L 45 1 L 36 11 L 33 20 L 33 46 L 41 64 L 61 101 L 82 126"/>
<path d="M 39 40 L 30 38 L 0 60 L 8 69 L 17 72 L 34 72 L 46 63"/>
<path d="M 47 19 L 52 22"/>
<path d="M 106 114 L 157 100 L 192 101 L 214 110 L 220 115 L 219 118 L 206 124 L 188 127 L 228 134 L 207 142 L 182 146 L 211 145 L 215 149 L 205 154 L 167 160 L 132 160 L 117 155 L 107 137 L 100 110"/>
</g>
</svg>
