<svg width="256" height="256" xmlns="http://www.w3.org/2000/svg">
<g stroke="black" fill="transparent" stroke-width="4">
<path d="M 18 115 L 22 81 L 27 72 L 34 68 L 50 64 L 163 56 L 177 57 L 182 65 L 185 114 L 154 118 L 89 118 L 49 124 L 18 125 L 0 130 L 14 124"/>
<path d="M 203 28 L 190 32 L 180 43 L 176 53 L 176 64 L 180 71 L 194 81 L 208 83 L 241 68 L 246 60 L 247 41 L 239 27 L 228 22 L 216 22 L 196 34"/>
<path d="M 196 57 L 243 49"/>
<path d="M 203 57 L 205 62 L 208 56"/>
<path d="M 219 53 L 230 60 L 232 54"/>
<path d="M 195 34 L 193 42 L 195 45 L 202 44 L 201 37"/>
<path d="M 219 35 L 220 41 L 228 41 L 232 37 L 228 32"/>
<path d="M 181 39 L 180 9 L 210 26"/>
<path d="M 221 14 L 241 0 L 255 25"/>
<path d="M 23 124 L 28 152 L 30 153 L 37 148"/>
<path d="M 64 125 L 67 152 L 71 155"/>
<path d="M 108 120 L 112 139 L 118 135"/>
<path d="M 142 117 L 146 120 L 150 140"/>
<path d="M 31 69 L 32 115 L 35 116 L 43 106"/>
<path d="M 61 72 L 58 102 L 63 110 L 70 101"/>
<path d="M 95 59 L 102 105 L 105 108 L 110 102"/>
<path d="M 131 67 L 142 109 L 145 111"/>
<path d="M 164 76 L 170 113 L 176 122"/>
</g>
</svg>
