<svg width="256" height="256" xmlns="http://www.w3.org/2000/svg">
<g stroke="black" fill="transparent" stroke-width="4">
<path d="M 77 10 L 89 0 L 92 9"/>
<path d="M 75 8 L 53 3 L 29 2 L 19 7 L 7 18 L 0 35 L 2 56 L 7 64 L 23 73 L 36 87 L 38 100 L 31 109 L 11 113 L 1 121 L 1 129 L 15 139 L 38 139 L 88 128 L 111 126 L 148 127 L 171 136 L 171 126"/>
<path d="M 93 8 L 118 25 L 155 78 L 165 86 L 196 85 L 223 65 L 236 49 L 240 78 L 235 89 L 255 93 L 254 100 L 243 116 L 212 130 L 160 131"/>
<path d="M 52 20 L 40 21 L 36 30 L 62 44 L 67 43 L 67 34 L 45 19"/>
<path d="M 47 23 L 53 30 L 43 29 L 43 31 L 47 34 L 47 29 L 52 35 L 57 30 L 57 26 L 52 25"/>
</g>
</svg>
