<svg width="256" height="256" xmlns="http://www.w3.org/2000/svg">
<g stroke="black" fill="transparent" stroke-width="4">
<path d="M 63 47 L 47 49 L 15 61 L 2 73 L 0 85 L 3 89 L 13 93 L 33 94 L 58 88 L 70 82"/>
<path d="M 46 47 L 46 30 L 53 13 L 64 1 L 70 0 L 79 5 L 92 20 L 105 55"/>
<path d="M 70 85 L 83 115 L 88 140 L 89 164 L 86 201 L 88 206 L 94 205 L 98 194 L 104 138 L 113 130 L 118 135 L 121 166 L 113 198 L 113 211 L 117 214 L 124 205 L 129 162 L 136 140 L 141 133 L 150 130 L 194 129 L 195 147 L 184 194 L 185 204 L 190 207 L 196 203 L 201 190 L 206 137 L 211 197 L 216 201 L 223 199 L 231 176 L 228 97"/>
<path d="M 98 47 L 100 54 L 111 65 L 134 76 L 194 80 L 217 73 L 236 73 L 249 80 L 255 92"/>
<path d="M 219 73 L 234 83 L 245 95 L 251 112 L 250 120 L 248 122"/>
<path d="M 231 85 L 242 87 L 250 98 L 253 127 L 251 145"/>
<path d="M 228 85 L 237 89 L 247 102 L 254 122 L 253 133"/>
<path d="M 228 79 L 239 83 L 243 91"/>
<path d="M 57 35 L 59 38 L 62 36 L 58 37 L 59 43 L 66 42 L 69 37"/>
<path d="M 80 34 L 83 42 L 86 38 L 83 35"/>
<path d="M 128 74 L 127 98 L 122 128"/>
<path d="M 149 81 L 143 126"/>
<path d="M 175 84 L 169 130"/>
<path d="M 194 82 L 193 127"/>
</g>
</svg>
