<svg width="256" height="256" xmlns="http://www.w3.org/2000/svg">
<g stroke="black" fill="transparent" stroke-width="4">
<path d="M 7 41 L 24 23 L 49 15 L 72 22 L 76 27 L 79 40 L 73 58 L 66 66 L 57 70 L 34 71 L 14 64 L 6 55 L 0 43 L 9 29"/>
<path d="M 100 34 L 101 26 L 113 15 L 123 9 L 144 7 L 156 15 L 162 23 L 165 45 L 155 55 L 136 61 L 110 64 L 94 61 L 85 55 L 77 43 L 75 30 L 82 20 L 103 11"/>
<path d="M 173 11 L 185 4 L 210 0 L 227 1 L 241 6 L 251 19 L 250 36 L 245 42 L 237 46 L 216 43 L 181 25 L 172 13 L 185 1"/>
<path d="M 224 19 L 231 12 L 227 11 L 232 9"/>
<path d="M 255 24 L 238 33 L 226 28"/>
<path d="M 27 54 L 23 95"/>
<path d="M 50 62 L 48 92"/>
<path d="M 77 68 L 79 86"/>
<path d="M 99 62 L 103 85"/>
<path d="M 129 60 L 135 84"/>
<path d="M 145 73 L 154 62 L 159 75"/>
<path d="M 188 42 L 193 69"/>
<path d="M 224 39 L 224 73"/>
<path d="M 250 44 L 251 56"/>
</g>
</svg>
