<svg width="256" height="256" xmlns="http://www.w3.org/2000/svg">
<g stroke="black" fill="transparent" stroke-width="4">
<path d="M 142 36 L 133 36 L 117 42 L 104 50 L 95 60 L 91 80 L 103 94 L 120 99 L 144 99 L 165 88 L 174 76 L 176 51 L 170 39 L 149 29 L 136 29 L 133 32"/>
<path d="M 115 98 L 108 122 L 108 142 L 115 163 L 119 167 L 127 167 L 136 158 L 142 143 L 146 96"/>
<path d="M 146 100 L 191 77 L 241 59 L 211 84 L 255 75 L 252 80 L 201 111 L 201 113 L 213 114 L 241 109 L 188 139 L 199 141 L 234 137 L 234 140 L 173 164 L 152 167 L 154 163 L 161 161 L 172 163 L 174 172 L 170 175 L 154 173 L 141 164 L 136 157"/>
<path d="M 118 104 L 112 98 L 98 98 L 41 118 L 52 110 L 46 109 L 0 139 L 38 126 L 5 162 L 11 163 L 62 141 L 45 162 L 58 163 L 95 150 L 87 159 L 103 154 L 98 161 L 104 163"/>
<path d="M 106 166 L 101 176 L 100 185 L 103 186 L 108 185 L 112 180 L 115 167"/>
<path d="M 126 170 L 125 176 L 134 179 L 138 171 L 136 161"/>
<path d="M 118 55 L 116 56 L 115 63 L 124 62 L 123 57 L 119 55 L 115 56 L 115 61 L 118 55"/>
<path d="M 142 57 L 141 52 L 147 53 L 144 57 L 142 52 L 145 56 L 145 53"/>
<path d="M 93 77 L 88 69 L 90 50 L 82 33 L 80 1 L 92 6 L 115 31 L 122 35"/>
<path d="M 155 35 L 169 13 L 182 4 L 193 4 L 194 15 L 172 60"/>
<path d="M 126 72 L 126 72"/>
<path d="M 125 71 L 137 71 L 133 80 L 127 79 L 126 70"/>
<path d="M 128 80 L 128 94 L 117 95"/>
<path d="M 130 80 L 132 87 L 139 89 L 153 82"/>
<path d="M 209 195 L 212 187 L 226 189 L 234 199 L 236 212"/>
<path d="M 211 175 L 213 190 L 221 201"/>
</g>
</svg>
