<svg width="256" height="256" xmlns="http://www.w3.org/2000/svg">
<g stroke="black" fill="transparent" stroke-width="4">
<path d="M 71 39 L 50 41 L 45 44 L 41 52 L 41 67 L 53 88 L 71 97 L 81 97 L 96 84 L 98 58 L 91 40 L 66 39"/>
<path d="M 47 45 L 42 49 L 34 49 L 26 43 L 26 22 L 30 13 L 38 12 L 49 26 L 58 47"/>
<path d="M 85 35 L 82 34 L 82 26 L 90 13 L 101 3 L 113 0 L 116 19 L 100 45"/>
<path d="M 59 50 L 59 53"/>
<path d="M 79 50 L 79 52"/>
<path d="M 58 70 L 58 65 L 62 64 L 66 78 L 69 67 L 75 65 L 84 74"/>
<path d="M 56 90 L 45 97 L 37 109 L 33 122 L 32 148 L 45 164 L 64 176 L 93 178 L 105 174 L 118 160 L 127 135 L 128 118 L 123 107 L 102 91 L 74 90"/>
<path d="M 53 164 L 40 165 L 19 179 L 3 204 L 0 251 L 3 255 L 38 240 L 58 226 L 69 204 L 72 167 L 65 157 L 57 152"/>
</g>
</svg>
