<svg width="256" height="256" xmlns="http://www.w3.org/2000/svg">
<g stroke="black" fill="transparent" stroke-width="4">
<path d="M 156 58 L 93 59 L 70 63 L 42 74 L 41 87 L 47 99 L 81 124 L 98 131 L 169 131 L 227 119 L 249 109 L 254 104 L 255 81 L 248 69 L 233 59 L 201 55 L 133 55"/>
<path d="M 209 76 L 211 84"/>
<path d="M 225 76 L 236 77"/>
<path d="M 213 93 L 237 90 L 241 85 L 237 81"/>
<path d="M 156 61 L 135 116 L 134 132 L 145 136 L 145 129"/>
<path d="M 113 67 L 96 125 L 98 130 L 105 127"/>
<path d="M 167 64 L 166 114 L 174 121"/>
<path d="M 132 62 L 124 54 L 73 29 L 43 24 L 25 24 L 14 29 L 2 44 L 1 81 L 8 94 L 19 103 L 51 104 L 82 97 L 119 76 L 131 66 L 156 34 L 180 17 L 215 1 L 231 0 L 240 7 L 241 27 L 230 42 L 197 57 L 139 70 L 123 68 L 120 61"/>
</g>
</svg>
