<svg width="256" height="256" xmlns="http://www.w3.org/2000/svg">
<g stroke="black" fill="transparent" stroke-width="4">
<path d="M 122 13 L 116 7 L 107 7 L 73 27 L 62 43 L 57 58 L 56 71 L 61 77 L 83 77 L 105 65 L 118 53 L 122 31 L 108 4"/>
<path d="M 115 10 L 132 13 L 242 0 L 190 17 L 118 45"/>
<path d="M 83 35 L 80 33 L 76 34 L 73 38 L 73 45 L 79 46 L 88 41 L 93 33 L 90 32 L 81 38 L 91 35 L 77 39 L 93 35 L 83 33 L 86 33 L 72 41 L 70 43 L 76 41"/>
<path d="M 70 77 L 59 78 L 49 86 L 40 103 L 39 113 L 42 121 L 56 125 L 85 121 L 104 111 L 111 99 L 108 85 L 95 75 L 76 72 L 70 75"/>
<path d="M 46 117 L 27 159 L 5 190"/>
<path d="M 95 119 L 119 155 L 142 199"/>
<path d="M 149 193 L 169 172 L 189 164"/>
<path d="M 149 196 L 145 222 L 138 243"/>
<path d="M 143 192 L 135 195 L 117 220 L 96 239"/>
<path d="M 0 188 L 12 212 L 26 231 L 48 250 L 59 255"/>
</g>
</svg>
