<svg width="256" height="256" xmlns="http://www.w3.org/2000/svg">
<g stroke="black" fill="transparent" stroke-width="4">
<path d="M 127 87 L 157 39 L 186 8 L 218 0 L 231 0 L 240 4 L 252 17 L 255 35 L 251 47 L 237 61 L 211 72 L 141 83 L 120 90 L 147 90 L 196 97 L 217 107 L 233 123 L 239 138 L 238 157 L 230 162 L 210 163 L 154 139 L 146 131 L 126 98 L 122 83 L 118 84 L 96 113 L 85 120 L 40 132 L 17 132 L 3 125 L 0 117 L 2 101 L 21 81 L 36 73 L 67 72 L 116 84 L 83 64 L 76 44 L 76 26 L 82 9 L 93 1 L 107 2 L 113 8 L 115 20 L 119 84 L 133 59 L 134 62 L 121 120 L 133 65 L 110 121 L 127 64 L 110 107 L 130 58 L 124 100 L 132 80 L 119 115"/>
<path d="M 126 24 L 126 54 L 129 61 L 138 31 L 145 24"/>
<path d="M 124 106 L 119 113 L 124 94 L 112 125 L 119 109 L 117 123 L 120 114"/>
<path d="M 186 55 L 211 18 L 217 13 L 226 13 L 227 26 L 215 44 L 205 51 L 187 55"/>
<path d="M 212 130 L 197 120 L 179 115 L 170 120 L 167 128 L 169 134 L 189 142 L 210 140 L 217 132 L 212 128"/>
<path d="M 46 91 L 31 95 L 27 110 L 44 117 L 59 111 L 61 107 L 60 100 L 47 93"/>
<path d="M 97 36 L 94 28 L 83 22 L 78 27 L 75 42 L 75 50 L 77 52 L 96 50 L 100 42 L 100 33 L 97 31"/>
</g>
</svg>
