<svg width="256" height="256" xmlns="http://www.w3.org/2000/svg">
<g stroke="black" fill="transparent" stroke-width="4">
<path d="M 255 41 L 250 28 L 242 19 L 212 0 L 199 0 L 193 11 L 192 41 L 184 64 L 176 70 L 153 71 L 149 68 L 138 22 L 129 11 L 117 9 L 106 18 L 100 51 L 93 67 L 89 68 L 84 57 L 88 31 L 86 20 L 78 9 L 63 8 L 57 15 L 55 22 L 54 65 L 45 71 L 28 64 L 11 65 L 0 83 L 0 103 L 5 114 L 31 132 L 67 143 L 94 146 L 152 146 L 164 144 L 178 137 L 191 124 L 203 93 L 212 59 L 224 57 L 235 71 L 246 66 L 248 34"/>
<path d="M 214 14 L 210 14 L 210 21 L 214 22 L 219 18 L 213 14"/>
<path d="M 52 134 L 37 176 L 36 187 L 41 192 L 70 192 L 79 186 L 80 178 L 65 176 L 57 168 L 73 145"/>
<path d="M 158 155 L 150 197 L 154 200 L 170 199 L 185 192 L 185 189 L 178 185 L 173 173 L 175 152"/>
</g>
</svg>
