<svg width="256" height="256" xmlns="http://www.w3.org/2000/svg">
<g stroke="black" fill="transparent" stroke-width="4">
<path d="M 165 85 L 135 83 L 66 91 L 54 99 L 49 107 L 45 126 L 53 141 L 70 148 L 113 148 L 168 139 L 177 134 L 189 119 L 189 107 L 181 90 L 168 84 L 150 82 L 135 96"/>
<path d="M 68 147 L 71 199 L 74 209 L 78 213 L 91 213 L 105 202 L 93 200 L 90 196 L 88 154"/>
<path d="M 164 142 L 182 194 L 190 194 L 201 186 L 203 182 L 199 177 L 186 179 L 183 176 L 170 133"/>
<path d="M 177 133 L 200 157 L 212 153 L 212 159 L 205 164 L 190 166 L 171 139 L 163 140"/>
<path d="M 95 150 L 97 183 L 113 175 L 117 178 L 112 183 L 95 186"/>
<path d="M 206 21 L 153 35 L 149 40 L 147 52 L 160 72 L 177 85 L 203 90 L 224 89 L 234 82 L 235 61 L 229 42 L 217 23 L 188 24 L 158 0 L 156 12 L 164 31"/>
<path d="M 233 32 L 253 31 L 255 34 L 229 52"/>
<path d="M 186 61 L 173 61 L 171 64 L 173 73 L 184 80 L 188 75 L 189 80 L 204 77 L 207 68"/>
<path d="M 197 59 L 201 59"/>
<path d="M 225 54 L 225 55"/>
<path d="M 179 45 L 174 46"/>
<path d="M 56 91 L 44 46 L 38 41 L 11 35 L 0 21"/>
</g>
</svg>
