<svg width="256" height="256" xmlns="http://www.w3.org/2000/svg">
<g stroke="black" fill="transparent" stroke-width="4">
<path d="M 65 17 L 0 17 L 5 84 L 35 91 L 137 98 L 181 105 L 183 99 L 180 53 L 174 29 L 126 22 L 38 21"/>
<path d="M 31 88 L 33 124"/>
<path d="M 151 105 L 154 129"/>
<path d="M 25 33 L 27 45 L 34 55 L 45 55 L 52 48 L 52 38 L 46 32 L 34 29 L 26 32"/>
<path d="M 84 31 L 99 49 L 107 54 L 114 54 L 123 48 L 126 41 L 124 34 L 117 30 L 109 30 L 96 35 L 90 41"/>
<path d="M 52 63 L 49 81 L 55 90 L 76 88 L 83 82 L 83 77 L 78 68 L 68 65 L 59 68 L 54 76"/>
<path d="M 141 71 L 139 86 L 145 94 L 160 93 L 172 82"/>
<path d="M 147 68 L 137 72"/>
<path d="M 170 105 L 173 101 L 175 85 L 170 73 L 153 67 L 140 73"/>
<path d="M 180 60 L 182 48 L 191 25 L 200 13 L 214 2 L 232 1 L 242 7 L 252 21 L 255 34 L 254 54 L 247 71 L 235 83 L 221 90 L 203 92 L 180 83 L 175 76 L 173 68 L 180 54"/>
<path d="M 206 42 L 202 53 L 205 55 L 211 52 L 212 43 L 203 45"/>
<path d="M 220 29 L 223 39 L 227 41 L 234 38 L 235 31"/>
<path d="M 202 72 L 220 69 L 231 63 L 236 54"/>
</g>
</svg>
