<svg width="256" height="256" xmlns="http://www.w3.org/2000/svg">
<g stroke="black" fill="transparent" stroke-width="4">
<path d="M 143 218 L 125 218 L 102 212 L 67 191 L 52 170 L 50 143 L 51 132 L 61 111 L 81 89 L 109 78 L 148 80 L 167 86 L 186 100 L 201 124 L 206 160 L 193 186 L 181 196 L 152 210 L 125 213"/>
<path d="M 103 85 L 107 69 L 103 60 L 110 60"/>
<path d="M 159 85 L 158 62 L 153 63 L 151 58 L 161 55 L 158 59"/>
<path d="M 103 100 L 110 105 L 123 108 L 143 104"/>
<path d="M 99 97 L 101 111"/>
<path d="M 154 98 L 146 110 L 148 117"/>
<path d="M 185 94 L 184 89 L 191 73 L 183 55 L 182 41 L 186 31 L 192 24 L 210 16 L 227 16 L 211 61 L 247 33 L 252 36 L 255 51 L 253 66 L 237 82 L 210 86 L 194 108"/>
<path d="M 74 85 L 61 60 L 76 34 L 78 21 L 65 5 L 35 0 L 37 42 L 7 13 L 2 28 L 0 44 L 5 58 L 26 65 L 38 63 L 71 104"/>
</g>
</svg>
