<svg width="256" height="256" xmlns="http://www.w3.org/2000/svg">
<g stroke="black" fill="transparent" stroke-width="4">
<path d="M 5 53 L 11 67 L 18 72 L 33 59 L 41 66 L 60 65 L 83 70 L 88 68 L 95 58"/>
<path d="M 12 136 L 15 121 L 26 122 L 41 132 L 60 125 L 93 128"/>
<path d="M 9 47 L 120 57 L 126 70 L 125 133 L 73 136 L 0 145"/>
<path d="M 8 41 L 24 22 L 53 6 L 83 2 L 168 0 L 191 5 L 238 23 L 248 31 L 254 52"/>
<path d="M 11 146 L 12 154 L 16 160 L 41 170 L 129 178 L 163 184 L 192 183 L 210 178 L 245 160 L 255 151"/>
<path d="M 155 29 L 155 35 L 165 39 L 179 40 L 178 35 L 157 32 L 155 44 L 158 48 L 167 49 L 168 44 L 164 40"/>
<path d="M 211 47 L 224 51"/>
</g>
</svg>
