<svg width="256" height="256" xmlns="http://www.w3.org/2000/svg">
<g stroke="black" fill="transparent" stroke-width="4">
<path d="M 72 20 L 60 25 L 39 52 L 37 75 L 41 83 L 55 94 L 84 95 L 102 85 L 117 65 L 123 46 L 122 30 L 102 11 L 75 6 L 60 16"/>
<path d="M 52 9 L 3 66 L 1 81 L 13 82 L 31 58 L 46 13"/>
<path d="M 91 0 L 102 1 L 122 14 L 162 59 L 165 69 L 162 70 L 142 70 L 133 65 L 114 43 L 101 7"/>
<path d="M 77 60 L 59 76 L 55 91 L 63 99 L 74 101 L 92 87"/>
<path d="M 64 21 L 71 42"/>
<path d="M 82 16 L 91 34"/>
<path d="M 101 80 L 163 81 L 194 86 L 224 98 L 218 110 L 207 119 L 199 121 L 147 125 L 125 119 L 85 99"/>
<path d="M 216 76 L 223 47 L 234 24 L 243 19 L 250 20 L 255 34 L 241 61 L 215 90"/>
<path d="M 125 107 L 129 135 L 140 150 L 148 151 L 152 148 L 163 113 L 176 144 L 183 152 L 189 153 L 197 146 L 207 109 L 213 100"/>
</g>
</svg>
