<svg width="256" height="256" xmlns="http://www.w3.org/2000/svg">
<g stroke="black" fill="transparent" stroke-width="4">
<path d="M 29 54 L 9 57 L 0 67 L 2 71 L 8 74 L 27 70"/>
<path d="M 3 66 L 24 62"/>
<path d="M 28 57 L 35 42 L 60 28 L 104 26 L 109 12 L 113 8"/>
<path d="M 115 6 L 129 0"/>
<path d="M 131 2 L 125 9 L 124 20 L 126 25 L 130 28 L 192 35 L 212 51 L 215 57 L 232 50 L 250 53 L 255 58 L 254 65 L 235 72 L 250 77 L 253 85 L 250 89 L 236 92 L 194 85 L 137 97 L 98 100 L 55 88 L 31 73"/>
<path d="M 52 40 L 58 39 L 52 41"/>
</g>
</svg>
