<svg width="256" height="256" xmlns="http://www.w3.org/2000/svg">
<g stroke="black" fill="transparent" stroke-width="4">
<path d="M 110 33 L 94 40 L 72 58 L 63 74 L 62 88 L 69 98 L 80 98 L 98 88 L 117 71 L 98 99 L 92 118 L 92 125 L 98 132 L 113 134 L 123 128 L 131 119 L 152 70 L 159 60 L 162 132 L 158 200"/>
<path d="M 103 37 L 111 32 L 149 24 L 182 45 L 193 72 L 201 157 L 212 167 L 245 174 L 255 181"/>
<path d="M 192 42 L 187 41 L 191 36 L 208 26 L 194 80 L 207 68 L 216 65 L 219 68 L 216 97 L 208 128 L 221 116 L 230 113 L 225 145 L 218 165 L 229 158 L 228 173"/>
<path d="M 81 51 L 81 51"/>
<path d="M 72 65 L 66 39 L 69 18 L 86 34 L 95 37 L 98 36 L 103 6 L 107 6 L 120 18 L 127 19 L 142 2 L 149 0 L 153 1 L 165 20"/>
<path d="M 120 37 L 112 36 L 107 41 L 104 53 L 107 58 L 119 61 L 126 56 L 132 46 L 131 35 L 121 32"/>
<path d="M 67 101 L 67 107 L 75 119 L 81 100 L 84 98 L 94 101 L 99 83 L 104 84"/>
<path d="M 47 117 L 20 105 L 0 104 L 15 124 L 36 131 L 37 134 L 17 167 L 14 182 L 21 182 L 55 147 L 56 166"/>
</g>
</svg>
