<svg width="256" height="256" xmlns="http://www.w3.org/2000/svg">
<g stroke="black" fill="transparent" stroke-width="4">
<path d="M 122 116 L 129 106 L 150 97 L 180 91 L 216 91 L 239 104 L 248 116 L 249 125 L 244 135 L 207 165 L 160 175 L 133 176 L 100 166 L 81 150 L 66 117 L 64 84 L 57 63 L 50 62 L 38 75 L 28 78 L 12 78 L 1 68 L 18 47 L 38 36 L 46 28 L 47 12 L 52 4 L 60 0 L 74 2 L 87 13 L 120 57 L 127 106"/>
<path d="M 232 94 L 251 76 L 253 70 L 255 89 L 250 99 L 243 104"/>
<path d="M 69 21 L 64 28 L 66 29 L 71 24 L 72 19 L 69 19"/>
<path d="M 33 47 L 30 51 L 33 48"/>
<path d="M 0 68 L 22 69 L 46 61"/>
</g>
</svg>
