<svg width="256" height="256" xmlns="http://www.w3.org/2000/svg">
<g stroke="black" fill="transparent" stroke-width="4">
<path d="M 220 11 L 219 7 L 210 1 L 174 2 L 157 10 L 139 36 L 128 44 L 106 49 L 46 50 L 42 65 L 38 122"/>
<path d="M 80 45 L 54 45 L 32 59 L 21 79 L 21 114 L 18 121 L 9 123 L 3 120 L 0 105 L 6 101"/>
<path d="M 36 115 L 35 128 L 52 129 L 52 96 L 56 83 L 88 82 L 88 130 L 105 129 L 111 132 L 109 71 L 156 70 L 169 67 L 186 56 L 203 33 L 208 34 L 213 40 L 221 75 L 229 95 L 238 106 L 248 111 L 255 104 L 236 75 L 227 27 L 215 5"/>
<path d="M 193 12 L 191 18 L 193 19 L 195 9 L 189 11 L 188 17 L 192 10 L 187 12"/>
</g>
</svg>
