<svg width="256" height="256" xmlns="http://www.w3.org/2000/svg">
<g stroke="black" fill="transparent" stroke-width="4">
<path d="M 211 18 L 185 41 L 155 56 L 125 66 L 48 77 L 16 76 L 8 70 L 0 52 L 5 36 L 11 29 L 36 18 L 70 15 L 126 26 L 158 36 L 200 54 L 255 71"/>
<path d="M 44 37 L 48 43 L 53 34 L 46 32 L 41 36 L 40 40 L 48 41 L 54 37 L 50 34 L 44 36 L 48 41"/>
<path d="M 214 13 L 217 11 L 218 15 L 214 28 L 214 41 L 243 60 L 250 68"/>
<path d="M 75 14 L 84 5 L 103 0 L 101 14 L 105 16 L 134 6 L 133 20 L 140 20 L 140 24 L 130 39"/>
<path d="M 70 76 L 84 86 L 96 99 L 96 86 L 99 83 L 122 98 L 123 90 L 116 68"/>
<path d="M 58 13 L 68 19"/>
</g>
</svg>
