<svg width="256" height="256" xmlns="http://www.w3.org/2000/svg">
<g stroke="black" fill="transparent" stroke-width="4">
<path d="M 74 79 L 46 78 L 30 80 L 15 87 L 1 96 L 2 105 L 8 112 L 34 128 L 74 137 L 103 135 L 124 119 L 128 107 L 118 81 L 117 54 L 125 40 L 135 32 L 157 31 L 161 26 L 156 12 L 144 3 L 132 0 L 122 5 L 97 79 L 93 81 L 69 80"/>
<path d="M 155 19 L 163 23 L 171 34 L 167 37 L 162 35 L 159 27 L 160 24 L 162 27 L 154 20 L 162 30 L 162 39"/>
<path d="M 64 137 L 66 229 L 63 255 L 70 243"/>
<path d="M 78 139 L 85 155 L 85 161 L 67 190 L 84 209 L 92 226"/>
</g>
</svg>
