<svg width="256" height="256" xmlns="http://www.w3.org/2000/svg">
<g stroke="black" fill="transparent" stroke-width="4">
<path d="M 106 4 L 52 0 L 31 4 L 12 12 L 3 22 L 0 32 L 2 42 L 35 68 L 87 83 L 94 88 L 97 100 L 96 112 L 80 129 L 80 135 L 91 145 L 108 145 L 127 103 L 133 80 L 157 80 L 173 86 L 194 128 L 217 128 L 219 118 L 211 91 L 230 80 L 237 68 L 233 52 L 208 27 L 131 3 L 102 2"/>
<path d="M 1 36 L 86 42"/>
<path d="M 72 11 L 92 18 L 91 28 L 86 32 L 66 30 L 59 23 L 59 14 L 76 12"/>
<path d="M 74 23 L 71 23 L 75 20"/>
<path d="M 235 55 L 255 72 L 248 75 L 233 75 L 230 72"/>
</g>
</svg>
