<svg width="256" height="256" xmlns="http://www.w3.org/2000/svg">
<g stroke="black" fill="transparent" stroke-width="4">
<path d="M 49 76 L 54 154 L 58 145"/>
<path d="M 72 77 L 72 124 L 76 159"/>
<path d="M 81 160 L 92 145 L 117 143 L 145 160 L 162 184 L 164 211 L 156 229 L 146 238 L 119 240 L 69 235 L 56 225 L 51 210 L 50 173 L 53 155 L 65 203 L 75 230 L 73 245 L 82 246 L 88 237 L 93 254 L 102 255 L 106 248 L 108 235"/>
<path d="M 111 240 L 122 255 L 130 251 L 134 234 L 143 250 L 146 243"/>
<path d="M 47 74 L 30 78 L 14 75 L 3 65 L 0 47 L 9 36 L 21 29 L 50 27 L 63 32 L 75 43 L 80 61 L 79 78"/>
<path d="M 58 0 L 53 29"/>
<path d="M 75 4 L 64 38"/>
<path d="M 29 39 L 30 43 L 36 38"/>
<path d="M 36 37 L 33 41"/>
<path d="M 21 62 L 39 64 L 48 57"/>
<path d="M 105 186 L 113 238 L 113 202"/>
<path d="M 116 154 L 128 234 L 128 206"/>
<path d="M 136 163 L 158 251 L 137 215"/>
<path d="M 65 173 L 125 165 L 137 165 L 131 171"/>
<path d="M 71 184 L 167 185 L 164 188 L 148 193"/>
<path d="M 54 204 L 132 204 L 145 206"/>
</g>
</svg>
