<svg width="256" height="256" xmlns="http://www.w3.org/2000/svg">
<g stroke="black" fill="transparent" stroke-width="4">
<path d="M 52 91 L 24 100 L 4 115 L 2 110 L 6 106 L 7 111 L 1 122 L 0 117 L 4 113 L 18 120 L 34 124 L 63 120 L 74 129 L 97 138 L 102 148 L 97 139 L 100 129 L 131 140 L 174 130 L 235 139 L 246 129 L 253 116"/>
<path d="M 236 143 L 238 154"/>
<path d="M 224 136 L 220 155 L 216 160"/>
<path d="M 119 132 L 129 153 L 130 149"/>
<path d="M 252 116 L 255 111 L 248 103 L 211 84 L 127 56 L 111 59 L 90 73 L 54 81 L 43 92"/>
<path d="M 66 85 L 71 89 L 69 94 L 66 89"/>
<path d="M 79 76 L 67 56 L 39 29 L 32 17 L 30 0"/>
<path d="M 79 64 L 70 33 L 70 12"/>
<path d="M 106 57 L 105 45 L 112 6"/>
<path d="M 125 55 L 131 50 L 139 26 L 146 16"/>
<path d="M 153 62 L 160 49 L 168 18"/>
<path d="M 179 76 L 191 40"/>
<path d="M 195 65 L 228 30"/>
</g>
</svg>
