<svg width="256" height="256" xmlns="http://www.w3.org/2000/svg">
<g stroke="black" fill="transparent" stroke-width="4">
<path d="M 184 8 L 138 39 L 123 57"/>
<path d="M 185 9 L 249 45 L 255 67 L 243 72 L 229 72 L 209 58 L 196 57 L 150 73"/>
<path d="M 230 57 L 232 71"/>
<path d="M 232 58 L 240 68"/>
<path d="M 226 41 L 228 43 L 226 42"/>
<path d="M 183 8 L 190 0 L 192 15"/>
<path d="M 193 7 L 193 2 L 194 4 L 195 12"/>
<path d="M 124 53 L 45 53 L 31 57 L 20 67 L 19 87 L 23 91 L 51 100 L 122 97 L 135 92 L 142 77 L 148 73"/>
<path d="M 17 73 L 5 95 L 13 70 L 16 67 L 16 70 L 15 76 L 3 93 L 10 85 L 14 72 L 1 96 L 0 101 L 5 96 L 14 82"/>
<path d="M 43 103 L 28 128"/>
<path d="M 45 100 L 36 134"/>
<path d="M 97 101 L 113 136"/>
<path d="M 109 103 L 120 128 L 134 149"/>
<path d="M 46 110 L 35 137 L 24 146"/>
<path d="M 31 118 L 24 132 L 13 142"/>
</g>
</svg>
