<svg width="256" height="256" xmlns="http://www.w3.org/2000/svg">
<g stroke="black" fill="transparent" stroke-width="4">
<path d="M 55 79 L 19 56 L 15 44 L 16 26 L 25 16 L 40 10 L 68 11 L 82 20 L 90 31 L 86 50 L 87 97 L 114 119 L 162 177 L 190 151 L 215 146 L 223 146 L 237 154 L 252 168 L 255 182 L 246 206 L 239 214 L 225 219 L 211 222 L 210 211 L 227 201 L 232 189 L 233 177 L 228 170 L 207 158 L 188 163 L 165 180 L 137 211 L 122 211 L 105 203 L 97 191 L 96 142 L 82 123 L 59 71 L 55 69 L 40 82"/>
<path d="M 124 207 L 102 239 L 113 243 L 124 243 L 132 238 L 135 219 L 124 206"/>
<path d="M 137 204 L 141 222 L 146 231 L 153 229 L 160 207 L 142 206"/>
<path d="M 98 151 L 125 154 L 129 172 L 129 187 L 122 188 L 111 176 L 111 161 L 103 144"/>
<path d="M 29 28 L 29 34 L 29 27 L 24 37 L 28 35"/>
<path d="M 47 24 L 46 34 L 53 29"/>
<path d="M 87 1 L 96 0 L 96 8 L 93 22 L 85 29"/>
<path d="M 24 9 L 9 0 L 5 0 L 1 6 L 2 25 L 14 37"/>
</g>
</svg>
