<svg width="256" height="256" xmlns="http://www.w3.org/2000/svg">
<g stroke="black" fill="transparent" stroke-width="4">
<path d="M 112 43 L 102 37 L 92 35 L 65 41"/>
<path d="M 44 150 L 66 153 L 81 149"/>
<path d="M 73 41 L 71 39"/>
<path d="M 66 41 L 43 69 L 33 92 L 30 109 L 34 128 L 42 143 L 54 151 L 71 151"/>
<path d="M 106 42 L 121 53 L 131 70 L 135 90 L 132 109 L 124 127 L 112 137 L 93 146 L 66 149"/>
<path d="M 21 89 L 3 74 L 0 61 L 11 43 L 14 42 L 24 50 L 24 32 L 29 21 L 46 15 L 52 15 L 59 21 L 65 10 L 78 1 L 96 1 L 113 5 L 122 12 L 129 22 L 148 27 L 161 37 L 165 49 L 152 71 L 181 87 L 190 100 L 187 114 L 177 123 L 151 131 L 130 133"/>
<path d="M 21 89 L 13 96 L 3 115 L 0 125 L 2 137 L 12 144 L 26 143 L 35 149 L 47 150"/>
<path d="M 57 75 L 59 94"/>
<path d="M 89 73 L 91 91"/>
<path d="M 62 127 L 73 127 L 91 121"/>
<path d="M 105 134 L 167 126 L 196 125 L 241 139 L 255 150"/>
<path d="M 91 105 L 106 100"/>
<path d="M 70 105 L 56 104"/>
<path d="M 65 112 L 55 113"/>
<path d="M 93 109 L 111 109"/>
<path d="M 79 101 L 77 104"/>
<path d="M 75 106 L 75 106"/>
<path d="M 93 148 L 93 152"/>
<path d="M 92 161 L 97 177 L 108 193 L 121 200 L 144 206 L 185 202 L 210 192 L 235 178"/>
<path d="M 167 202 L 174 227 L 176 253"/>
<path d="M 216 195 L 228 212"/>
</g>
</svg>
