<svg width="256" height="256" xmlns="http://www.w3.org/2000/svg">
<g stroke="black" fill="transparent" stroke-width="4">
<path d="M 163 22 L 158 8 L 150 2 L 126 2 L 114 15 L 113 32 L 116 38 L 122 43 L 134 46 L 156 42 L 167 32 L 168 25 L 164 17 L 156 14"/>
<path d="M 142 53 L 141 47 L 124 49 L 107 63 L 100 75 L 94 92 L 94 109 L 106 130 L 129 140 L 157 142 L 171 137 L 180 125 L 181 107 L 176 95 L 152 57 L 139 46 L 134 45"/>
<path d="M 167 73 L 195 68 L 205 43 L 192 29 L 191 23 L 202 13 L 216 11 L 223 14 L 223 19 L 218 26 L 219 39 L 245 31 L 253 32 L 255 59 L 246 74 L 233 75 L 213 65 L 203 65 L 198 69 L 190 87 L 172 90"/>
<path d="M 93 85 L 84 81 L 75 66 L 71 48 L 57 36 L 69 27 L 72 20 L 72 14 L 66 10 L 51 10 L 37 15 L 16 35 L 29 47 L 45 54 L 9 57 L 0 63 L 4 91 L 10 96 L 27 99 L 55 92 L 67 98 L 89 100"/>
<path d="M 128 9 L 127 20"/>
<path d="M 138 11 L 140 19"/>
<path d="M 121 32 L 126 37 L 136 39 L 140 38 L 146 33"/>
<path d="M 124 143 L 124 143"/>
<path d="M 104 133 L 96 136"/>
<path d="M 92 124 L 81 125"/>
<path d="M 93 119 L 83 117"/>
<path d="M 90 113 L 90 113"/>
<path d="M 86 106 L 81 105"/>
<path d="M 175 100 L 185 100"/>
<path d="M 181 110 L 196 111"/>
<path d="M 183 125 L 201 130"/>
<path d="M 186 134 L 191 137"/>
<path d="M 174 139 L 187 156"/>
</g>
</svg>
