<svg width="256" height="256" xmlns="http://www.w3.org/2000/svg">
<g stroke="black" fill="transparent" stroke-width="4">
<path d="M 92 73 L 82 74 L 65 84 L 54 97 L 51 107 L 51 132 L 59 154 L 75 174 L 93 185 L 131 193 L 167 192 L 177 181 L 187 154 L 188 117 L 185 109 L 166 87 L 141 74 L 116 66 L 101 70"/>
<path d="M 54 128 L 65 132 L 107 135 L 191 135 L 192 130"/>
<path d="M 100 93 L 100 97"/>
<path d="M 123 93 L 125 97"/>
<path d="M 70 77 L 67 75 L 63 46 L 72 38 L 102 35 L 109 38 L 115 56 L 113 64"/>
<path d="M 131 67 L 141 48 L 166 44 L 173 53 L 173 73 L 165 83"/>
<path d="M 48 99 L 42 80 L 42 63 L 51 33 L 57 23 L 89 9 L 143 6 L 173 23 L 188 39 L 190 73 L 184 102 L 182 89 L 187 77 L 194 69 L 208 62 L 231 61 L 246 71 L 253 79 L 255 113 L 231 142 L 214 151 L 196 152 L 190 149 L 183 138"/>
<path d="M 33 97 L 23 77 L 9 79 L 1 90 L 1 109 L 14 145 L 37 153 L 52 153 L 60 150 L 64 144 L 65 131"/>
<path d="M 86 58 L 85 71 L 94 71 L 100 66 L 98 62 L 85 62"/>
<path d="M 156 62 L 146 66 L 146 73 L 162 71 L 161 65 L 156 63 L 151 66 L 151 74"/>
<path d="M 87 135 L 92 138 L 127 143 L 151 151 L 167 147 L 171 135"/>
<path d="M 94 137 L 100 135 L 111 143"/>
<path d="M 124 134 L 127 137"/>
<path d="M 134 134 L 136 140 L 141 142"/>
<path d="M 149 134 L 156 144 L 159 140"/>
<path d="M 162 139 L 166 146 L 166 141"/>
<path d="M 45 103 L 33 88 L 26 88 L 23 92 L 24 102 L 31 116 L 38 119 L 44 118"/>
<path d="M 186 94 L 187 89 L 192 84 L 205 78 L 220 78 L 228 83 L 227 94 L 212 121 L 193 125 L 188 120"/>
<path d="M 51 24 L 60 12 L 80 4 L 103 0 L 137 0 L 174 7 L 185 14 L 191 21 L 195 45 L 195 37 L 194 34 L 186 34"/>
</g>
</svg>
