<svg width="256" height="256" xmlns="http://www.w3.org/2000/svg">
<g stroke="black" fill="transparent" stroke-width="4">
<path d="M 84 70 L 68 70 L 58 75 L 48 87 L 45 99 L 47 115 L 51 123 L 65 131 L 77 132 L 89 130 L 108 117 L 112 109 L 113 89 L 104 72 L 90 61 L 75 62 L 67 73"/>
<path d="M 40 80 L 31 83 L 20 93 L 11 114 L 11 123 L 19 135 L 32 142 L 39 140 L 50 120 L 48 98 L 39 88 L 33 86 L 25 88 L 20 97"/>
<path d="M 55 78 L 35 49 L 14 33 L 7 24 L 7 5 L 15 0 L 28 0 L 47 8 L 62 22 L 72 43 L 77 64 L 78 42 L 90 14 L 95 11 L 110 11 L 124 18 L 129 31 L 130 52 L 121 81 L 114 86"/>
<path d="M 113 118 L 140 133 L 171 169 L 149 190 L 134 211 L 129 211"/>
<path d="M 79 133 L 85 150 L 86 170 L 75 177 L 74 184 L 86 229"/>
<path d="M 18 111 L 20 117 L 23 114 L 21 111 L 23 112"/>
<path d="M 16 139 L 16 139"/>
<path d="M 17 137 L 4 158 L 0 173"/>
<path d="M 36 106 L 34 110 L 36 110 L 39 104 L 35 103 L 36 108 L 35 103"/>
<path d="M 113 102 L 113 103"/>
<path d="M 101 121 L 112 144 L 118 167 L 119 198 L 117 215 L 106 247 L 98 255"/>
<path d="M 70 128 L 37 204"/>
</g>
</svg>
