<svg width="256" height="256" xmlns="http://www.w3.org/2000/svg">
<g stroke="black" fill="transparent" stroke-width="4">
<path d="M 95 70 L 77 62 L 66 50 L 61 39 L 63 23 L 69 14 L 89 1 L 132 0 L 149 6 L 157 15 L 160 25 L 156 48 L 137 72"/>
<path d="M 86 39 L 92 32 L 100 31 L 105 35 L 107 45 L 98 46 L 84 40 L 84 35"/>
<path d="M 128 45 L 129 38 L 136 34 L 143 37 L 147 44 L 146 47 L 128 45"/>
<path d="M 137 73 L 147 91 L 159 92 L 180 80 L 195 55 L 207 51 L 226 51 L 237 54 L 246 62 L 255 83 L 243 68 L 227 66 L 215 75 L 207 98 L 185 109 L 175 111 L 154 111 L 136 90"/>
<path d="M 95 72 L 98 84 L 90 87 L 8 92 L 1 99 L 3 112 L 11 119 L 32 122 L 40 144 L 56 147 L 63 140 L 62 133 L 53 124 L 33 114 L 29 105 L 90 102 L 108 96 L 111 90"/>
<path d="M 112 93 L 96 99 L 79 111 L 82 120 L 96 123 L 92 143 L 97 144 L 112 134 L 113 127 L 104 108 L 116 96"/>
<path d="M 118 95 L 132 109 L 133 136 L 142 147 L 164 147 L 171 142 L 172 134 L 147 126 L 138 105 L 130 97"/>
<path d="M 165 103 L 184 97 L 158 102"/>
<path d="M 203 87 L 208 81 L 207 92 L 194 98"/>
</g>
</svg>
