<svg width="256" height="256" xmlns="http://www.w3.org/2000/svg">
<g stroke="black" fill="transparent" stroke-width="4">
<path d="M 50 94 L 64 102 L 86 102 L 141 90 L 154 123 L 160 165 L 153 208 L 147 220 L 133 232 L 123 235 L 75 240 L 58 240 L 50 237 L 39 229 L 27 208 L 22 179 L 22 138 L 36 86 L 61 99"/>
<path d="M 141 86 L 158 86 L 165 90 L 174 113 L 179 138 L 177 177 L 152 213"/>
<path d="M 36 88 L 20 84 L 12 91 L 3 111 L 0 139 L 0 167 L 6 189 L 19 216 L 33 230"/>
<path d="M 49 106 L 50 119"/>
<path d="M 70 115 L 78 131"/>
<path d="M 115 128 L 119 129 L 128 144"/>
<path d="M 143 106 L 145 125"/>
<path d="M 139 175 L 132 198"/>
<path d="M 92 190 L 89 210"/>
<path d="M 51 157 L 41 159 L 35 180"/>
<path d="M 85 152 L 97 159 L 105 169"/>
<path d="M 36 86 L 31 84 L 28 78 L 28 56 L 37 33 L 48 19 L 70 7 L 87 19 L 98 19 L 134 0 L 148 19 L 157 53 L 156 73 L 140 95"/>
<path d="M 88 56 L 61 64 L 81 68 L 99 68 L 100 63 L 91 55"/>
<path d="M 58 32 L 53 39 L 54 53 L 62 58 L 72 58 L 80 53 L 73 24 L 62 23 L 57 26 L 53 33 L 53 41"/>
<path d="M 66 38 L 66 43"/>
<path d="M 131 20 L 124 19 L 117 22 L 108 35 L 107 42 L 110 49 L 116 52 L 132 51 L 141 43 L 142 32 L 126 24 L 117 25 L 113 31"/>
<path d="M 122 34 L 119 39"/>
<path d="M 71 233 L 68 246 L 46 246 L 64 245 L 53 251 L 51 254 L 54 255 L 68 248 L 81 233"/>
<path d="M 136 228 L 154 227 L 152 231 L 128 240 L 134 235 L 105 235"/>
<path d="M 68 11 L 82 1 L 88 9 L 100 3"/>
</g>
</svg>
