<svg width="256" height="256" xmlns="http://www.w3.org/2000/svg">
<g stroke="black" fill="transparent" stroke-width="4">
<path d="M 73 50 L 73 56"/>
<path d="M 104 43 L 104 49"/>
<path d="M 88 59 L 89 63"/>
<path d="M 73 77 L 88 79"/>
<path d="M 105 112 L 79 112 L 53 104 L 31 87 L 20 72 L 29 54 L 45 36 L 66 18 L 87 10 L 97 10 L 119 19 L 133 37 L 140 57 L 140 71 L 131 90 L 117 102 L 95 113"/>
<path d="M 43 46 L 20 53 L 21 37 L 33 19 L 56 9 L 53 22 L 43 34 L 25 44 L 23 41 L 28 27 L 38 17 L 40 20 L 37 28 L 30 36 L 18 42 L 28 28"/>
<path d="M 127 17 L 111 11 L 109 5 L 138 0 L 145 6 L 147 19 L 113 20 L 123 11 L 134 7 L 139 12 L 139 21 L 133 27 L 132 22 L 140 15 L 153 14 L 155 20"/>
<path d="M 63 107 L 38 121 L 20 147 L 16 158 L 13 191 L 21 231 L 25 236 L 35 243 L 53 248 L 88 248 L 118 238 L 133 222 L 138 195 L 148 173 L 148 137 L 127 105 L 121 102"/>
<path d="M 123 139 L 114 141 L 133 131 L 172 119 L 173 126 L 161 142 L 144 145 L 142 143 L 145 138 L 181 125 L 163 135 L 142 138 L 154 132 L 153 134 L 137 138 L 118 138 L 163 127 L 133 141 L 111 143 L 109 140 L 136 129 L 187 121 L 167 128 L 126 136 L 136 132 L 137 128"/>
<path d="M 18 137 L 0 140 L 19 132 L 92 127 L 69 135 L 33 138 L 46 135 L 80 135 L 67 143 L 41 148 L 21 148 L 18 146 L 22 144 L 39 139 L 33 145 L 20 147 L 26 147"/>
<path d="M 69 230 L 69 243 L 55 249 L 35 251 L 35 238 L 45 233 L 50 239 L 50 246 L 39 255 L 36 252 L 47 238 L 76 231 L 77 233 L 73 239 L 59 241 L 59 232 L 66 230 L 64 234 L 64 231"/>
<path d="M 135 233 L 125 237 L 114 233 L 112 223 L 119 213 L 140 210 L 140 221 L 132 227 L 125 228 L 133 217 L 134 220 L 123 226 L 121 214"/>
<path d="M 113 37 L 114 47 L 100 45 L 112 37 L 121 36 L 121 53 L 115 59 L 108 60 L 107 58 L 107 50 L 110 47 L 102 55 L 82 60"/>
</g>
</svg>
