<svg width="256" height="256" xmlns="http://www.w3.org/2000/svg">
<g stroke="black" fill="transparent" stroke-width="4">
<path d="M 169 23 L 184 20 L 215 20 L 244 30 L 254 38 L 180 41"/>
<path d="M 234 42 L 170 54"/>
<path d="M 169 23 L 156 9 L 137 1 L 116 0 L 102 9 L 87 29 L 57 96 L 0 189"/>
<path d="M 173 56 L 161 72 L 160 106 L 153 143 L 127 194"/>
<path d="M 141 18 L 137 17 L 135 27 L 140 29 L 144 25 L 145 19 L 140 15"/>
<path d="M 141 16 L 142 26"/>
<path d="M 224 28 L 225 30"/>
<path d="M 169 25 L 160 40 L 160 51 L 164 57"/>
<path d="M 108 71 L 93 112 L 45 174"/>
<path d="M 125 66 L 108 109 L 62 194"/>
<path d="M 139 84 L 90 194"/>
<path d="M 143 96 L 120 149 L 114 176"/>
<path d="M 144 92 L 134 141 L 118 193"/>
<path d="M 95 41 L 83 57 L 58 106 L 49 139 L 49 154"/>
<path d="M 117 20 L 90 45 L 73 72 L 64 103 L 61 140"/>
</g>
</svg>
