<svg width="256" height="256" xmlns="http://www.w3.org/2000/svg">
<g stroke="black" fill="transparent" stroke-width="4">
<path d="M 133 43 L 160 59 L 140 73"/>
<path d="M 135 45 L 135 31 L 131 18 L 127 11 L 116 3 L 106 0 L 79 0 L 71 4 L 51 19 L 44 34 L 41 76 L 50 98 L 67 111 L 101 111 L 136 91 L 149 78 L 153 68"/>
<path d="M 49 107 L 40 152 L 38 210 L 39 217 L 42 216 L 59 202"/>
<path d="M 120 103 L 129 137 L 133 194"/>
<path d="M 54 108 L 47 120 L 61 124"/>
<path d="M 129 139 L 154 135 L 174 121 L 176 124 L 164 154 L 151 168 L 139 173"/>
<path d="M 30 152 L 1 140 L 0 150 L 3 157 L 16 175 L 23 177 L 23 174"/>
<path d="M 106 32 L 105 35"/>
<path d="M 37 211 L 38 215"/>
<path d="M 37 210 L 51 222 L 84 221 L 98 212 L 119 182 L 121 189 L 117 198 L 100 217 L 79 226 L 48 228 L 106 226 L 146 201 L 147 193"/>
<path d="M 49 223 L 42 240 L 42 253 L 45 255 L 65 241 L 67 222"/>
</g>
</svg>
