<svg width="256" height="256" xmlns="http://www.w3.org/2000/svg">
<g stroke="black" fill="transparent" stroke-width="4">
<path d="M 93 127 L 83 125 L 71 131 L 68 136 L 69 145 L 76 150 L 90 148 L 100 140 L 97 131"/>
<path d="M 146 127 L 135 126 L 126 130 L 120 138 L 120 147 L 127 156 L 137 157 L 150 147 L 152 139 L 150 133"/>
<path d="M 174 118 L 137 101 L 78 97 L 70 100 L 51 116 L 40 133 L 39 145 L 45 163 L 56 175 L 69 183 L 104 191 L 127 192 L 151 184 L 169 169 L 180 148 L 175 128"/>
<path d="M 166 39 L 155 32 L 132 27 L 108 26 L 79 32 L 59 40 L 46 50 L 21 86 L 13 120 L 14 149 L 21 186 L 36 212 L 74 240 L 97 250 L 120 255 L 153 249 L 184 233 L 208 210 L 221 184 L 228 142 L 226 95 L 217 71 L 195 47 L 179 41 L 166 40"/>
<path d="M 96 72 L 89 73 L 85 65 L 89 61 L 96 60 L 100 63 L 99 68 L 93 70 L 89 68 L 92 64 L 97 64 L 100 71 L 97 75 L 96 71"/>
<path d="M 151 79 L 144 72 L 145 62 L 150 63 L 153 69 L 153 79 L 148 87 L 142 87 L 139 81 L 147 72 L 152 77 L 150 82 L 144 86 L 141 86 L 141 81"/>
<path d="M 198 45 L 198 44"/>
<path d="M 191 42 L 212 16 L 226 6 L 236 3 L 244 33 L 248 69"/>
<path d="M 241 75 L 232 63 L 225 61 L 208 63"/>
<path d="M 69 35 L 44 12 L 28 2 L 18 0 L 10 4 L 0 42"/>
<path d="M 3 65 L 3 65"/>
</g>
</svg>
