<svg width="256" height="256" xmlns="http://www.w3.org/2000/svg">
<g stroke="black" fill="transparent" stroke-width="4">
<path d="M 162 118 L 89 118 L 72 124 L 58 133 L 37 155 L 28 185 L 28 199 L 29 210 L 36 221 L 53 229 L 69 231 L 98 233 L 115 228 L 156 193 L 177 164 L 181 129 L 169 116"/>
<path d="M 168 117 L 161 117 L 153 111 L 154 93 L 157 86 L 170 75 L 193 70 L 206 70 L 211 73 L 219 85 L 221 104 L 210 115 L 189 130 L 179 131 L 170 127 L 159 117"/>
<path d="M 173 63 L 172 45 L 163 34 L 152 28 L 138 26 L 133 26 L 128 32 L 125 58 L 128 79 L 144 91 L 158 97"/>
<path d="M 203 63 L 204 37 L 211 6 L 216 1 L 227 1 L 231 15 L 232 42 L 216 69"/>
<path d="M 200 93 L 197 97 L 199 100"/>
<path d="M 173 98 L 172 102"/>
<path d="M 180 112 L 190 114 L 196 113"/>
<path d="M 22 197 L 9 195 L 4 199 L 0 217 L 1 230 L 16 234 L 37 231 L 44 223 L 44 203 L 36 200 L 20 199"/>
<path d="M 59 201 L 71 191 L 81 187 L 114 188 L 121 197 L 122 232 L 133 235 L 151 231 L 149 249 L 145 255 L 125 255 L 92 246 L 74 234 L 70 193"/>
<path d="M 169 174 L 174 209 L 184 228"/>
</g>
</svg>
