<svg width="256" height="256" xmlns="http://www.w3.org/2000/svg">
<g stroke="black" fill="transparent" stroke-width="4">
<path d="M 86 54 L 99 43 L 112 36 L 136 33 L 177 43 L 192 57 L 192 67 L 189 74 L 175 84 L 147 95 L 127 96 L 94 85 L 88 81 L 82 61 L 85 51"/>
<path d="M 182 45 L 184 26 L 196 8 L 202 5 L 216 6 L 233 12 L 250 23 L 255 34 L 254 42 L 248 50 L 234 61 L 215 65 L 186 65 L 178 58 L 175 41"/>
<path d="M 92 53 L 79 34 L 54 13 L 26 0 L 13 1 L 7 5 L 1 17 L 0 35 L 8 51 L 18 60 L 34 67 L 44 67 L 62 65 L 82 58"/>
<path d="M 29 4 L 24 31 L 13 50"/>
<path d="M 9 21 L 57 34"/>
<path d="M 105 88 L 102 111"/>
<path d="M 109 92 L 119 109"/>
<path d="M 169 88 L 154 113"/>
<path d="M 165 91 L 182 118"/>
<path d="M 232 16 L 229 46 L 234 56"/>
<path d="M 230 38 L 249 34"/>
<path d="M 208 21 L 211 28 L 220 32 L 223 32 L 225 28 L 219 19 L 211 18 L 207 26 L 210 31 L 218 31 L 221 27 L 219 22"/>
</g>
</svg>
