<svg width="256" height="256" xmlns="http://www.w3.org/2000/svg">
<g stroke="black" fill="transparent" stroke-width="4">
<path d="M 51 36 L 39 26 L 30 0 L 20 21 L 22 40"/>
<path d="M 5 43 L 40 45 L 54 43 L 67 35 L 86 14 L 118 8 L 140 8 L 145 28 L 144 60 L 137 77 L 129 83 L 77 87 L 15 77 L 8 72 L 0 59 L 0 49 L 6 43"/>
<path d="M 86 34 L 91 35 L 93 30 L 85 35 L 89 37 L 92 31 L 89 33"/>
<path d="M 145 17 L 157 13 L 235 14 L 247 19 L 253 28 L 255 49 L 240 69 L 216 80 L 194 83 L 136 83"/>
<path d="M 133 86 L 129 110"/>
<path d="M 212 78 L 216 84 L 227 137"/>
<path d="M 130 87 L 126 108"/>
<path d="M 166 80 L 164 110"/>
</g>
</svg>
