<svg width="256" height="256" xmlns="http://www.w3.org/2000/svg">
<g stroke="black" fill="transparent" stroke-width="4">
<path d="M 55 124 L 78 118 L 152 118 L 232 148 L 248 159 L 254 183 L 254 203 L 226 217 L 177 227 L 128 225 L 99 221 L 62 201 L 54 190 L 52 144 L 62 126"/>
<path d="M 62 120 L 55 99 L 54 61 L 58 52 L 70 43 L 96 33 L 104 40 L 113 61 L 114 57 L 115 25 L 104 9 L 80 0 L 66 1 L 43 11 L 24 34 L 12 57 L 0 110 L 3 126 L 21 151 L 43 164 L 60 169"/>
<path d="M 112 196 L 104 201 L 96 213 L 95 234 L 98 240"/>
<path d="M 135 205 L 125 212 L 119 227 L 120 240 L 125 243 L 129 243"/>
<path d="M 180 215 L 168 221 L 167 241 L 173 254 L 181 255 L 184 252"/>
<path d="M 225 167 L 221 168 L 220 171 L 224 173 L 227 169 L 227 166 L 223 165 L 221 169 L 225 169 L 226 166 L 226 162 L 218 160 L 222 159 L 215 163 L 214 166 L 219 171 L 229 174 L 229 166 L 225 164 L 225 166"/>
<path d="M 104 37 L 107 36 L 107 40 L 111 40 L 112 55 L 115 56"/>
<path d="M 110 79 L 110 79"/>
<path d="M 123 65 L 133 94"/>
<path d="M 109 77 L 105 99"/>
<path d="M 99 63 L 84 79"/>
<path d="M 88 192 L 69 198 L 63 212 L 59 244"/>
</g>
</svg>
