<svg width="256" height="256" xmlns="http://www.w3.org/2000/svg">
<g stroke="black" fill="transparent" stroke-width="4">
<path d="M 102 47 L 134 24 L 170 6 L 195 0 L 218 3 L 233 10 L 248 25 L 253 33 L 255 44 L 247 57 L 234 66 L 203 75 L 166 72 L 104 51 L 98 35 L 79 25 L 68 24 L 39 29"/>
<path d="M 25 34 L 25 34"/>
<path d="M 15 40 L 0 57 L 18 67 L 64 78 L 84 78 L 104 73 L 107 104 L 117 118 L 129 111 L 140 94 L 141 117 L 146 120 L 170 90 L 171 119 L 175 123 L 182 123 L 194 114 L 216 86 L 218 112 L 223 117 L 228 116 L 239 94 L 240 65"/>
<path d="M 129 26 L 129 45 L 137 52 L 172 36 L 180 50 L 188 52 L 231 28 L 234 36 L 247 37"/>
<path d="M 199 9 L 188 10 L 172 25 L 169 34 L 178 37 L 194 31 L 204 20 L 204 16 L 198 11 L 186 10"/>
<path d="M 220 30 L 199 47 L 195 56 L 205 61 L 223 55 L 225 46 L 210 38"/>
<path d="M 42 43 L 44 49 L 49 50 L 59 45 L 50 41 L 43 43"/>
<path d="M 41 32 L 24 37 L 12 46"/>
</g>
</svg>
