<svg width="256" height="256" xmlns="http://www.w3.org/2000/svg">
<g stroke="black" fill="transparent" stroke-width="4">
<path d="M 24 34 L 20 27 L 20 16 L 25 9 L 35 7 L 43 9 L 51 23 L 52 16 L 60 9 L 83 8 L 87 12 L 89 25 L 93 17 L 103 9 L 124 8 L 136 14 L 138 25 L 135 29 L 136 24 L 142 21 L 164 21 L 173 25 L 180 34 L 181 49 L 176 55 L 172 52 L 183 53 L 188 56 L 188 74 L 173 79 L 152 78 L 140 72 L 140 64 L 144 69 L 144 78 L 141 82 L 133 85 L 116 84 L 108 80 L 100 71 L 101 61 L 94 74 L 81 80 L 70 80 L 59 71 L 56 64 L 56 55 L 66 53 L 68 59 L 63 66 L 53 71 L 38 72 L 32 57 L 32 48 L 36 47 L 39 53 L 37 60 L 28 64 L 15 63 L 2 51 L 1 37 L 21 27 L 25 38"/>
<path d="M 180 33 L 181 26 L 190 16 L 221 2 L 243 0 L 252 6 L 254 11 L 255 26 L 252 37 L 246 43 L 235 47 L 204 47 L 177 39"/>
<path d="M 234 7 L 230 8 L 228 12 L 234 13 L 234 6"/>
<path d="M 250 30 L 237 36 L 219 28"/>
<path d="M 35 67 L 37 104"/>
<path d="M 53 68 L 61 81 L 65 110 L 68 110"/>
<path d="M 142 83 L 143 107"/>
<path d="M 166 74 L 166 103"/>
</g>
</svg>
