<svg width="256" height="256" xmlns="http://www.w3.org/2000/svg">
<g stroke="black" fill="transparent" stroke-width="4">
<path d="M 46 158 L 34 112 L 33 85 L 40 73 L 51 62 L 73 54 L 90 54 L 108 64 L 129 81 L 139 93 L 152 125 L 163 139 L 171 146 L 182 147 L 191 142 L 208 96 L 214 70 L 215 39 L 223 36 L 239 37 L 245 54 L 245 77 L 241 93 L 234 109 L 212 142 L 209 163 L 200 178 L 196 181 L 168 190 L 120 189 L 106 183 L 89 155 L 72 154 L 49 159 L 45 156 L 44 148"/>
<path d="M 118 88 L 64 87 L 53 100 L 51 117 L 58 126 L 73 132 L 98 131 L 121 124 L 129 115 L 132 104 L 131 99 L 126 94 L 99 92 L 79 105 L 70 116 L 69 123 L 91 126 L 97 121 L 99 108 L 88 105"/>
<path d="M 222 34 L 203 17 L 181 16 L 156 26 L 136 45"/>
<path d="M 128 34 L 128 39 L 132 42 L 142 43 L 135 42"/>
<path d="M 240 33 L 231 22 L 232 10 L 240 3 L 252 2"/>
<path d="M 255 4 L 251 4 L 250 0 L 247 1 L 243 9"/>
<path d="M 221 56 L 226 67"/>
<path d="M 244 45 L 236 50 L 241 54"/>
<path d="M 224 76 L 230 83 L 252 85"/>
<path d="M 64 151 L 56 152 L 68 189 L 78 203 L 90 208 L 14 209 L 6 216 L 2 227 L 0 244 L 45 244 L 74 229 L 125 210 L 163 200 L 204 183 L 236 156 L 240 138 L 237 126"/>
</g>
</svg>
