<svg width="256" height="256" xmlns="http://www.w3.org/2000/svg">
<g stroke="black" fill="transparent" stroke-width="4">
<path d="M 51 6 L 39 5 L 21 16 L 9 32 L 7 43 L 12 52 L 21 55 L 39 54 L 53 47"/>
<path d="M 49 49 L 28 81 L 24 99 L 22 135 L 29 148 L 42 158 L 52 163 L 68 166 L 80 162 L 90 153 L 104 132 L 116 92 L 117 55 L 109 26 L 96 8 L 84 3 L 69 0 L 56 0 L 45 5"/>
<path d="M 114 85 L 120 70 L 134 49 L 142 50 L 151 70 L 159 71 L 170 39 L 186 38 L 202 8 L 219 22 L 224 22 L 235 10 L 239 9 L 245 32 L 254 44 L 254 54 L 240 87 L 233 90 L 230 88 L 231 85 L 237 86 L 241 96 L 240 107 L 235 112 L 212 113 L 202 107 L 199 120 L 190 123 L 184 122 L 174 114 L 168 128 L 157 134 L 152 133 L 143 121 L 139 132 L 130 132 L 113 120 L 109 108"/>
<path d="M 40 71 L 24 80 L 19 90 L 19 96 L 29 98 L 52 82"/>
<path d="M 33 105 L 21 126 L 21 133 L 26 135 L 40 131 L 56 108"/>
<path d="M 19 36 L 19 36"/>
<path d="M 20 36 L 24 34"/>
<path d="M 41 19 L 39 22 L 41 23 L 46 19"/>
<path d="M 0 48 L 14 47 L 24 40"/>
<path d="M 44 143 L 41 141 L 35 146 L 28 165 L 31 174 L 43 175"/>
<path d="M 57 152 L 56 169 L 63 176 L 72 173 L 81 153"/>
</g>
</svg>
