<svg width="256" height="256" xmlns="http://www.w3.org/2000/svg">
<g stroke="black" fill="transparent" stroke-width="4">
<path d="M 15 20 L 0 34 L 21 33"/>
<path d="M 5 11 L 5 5 L 11 1 L 33 0 L 45 5 L 52 14 L 54 34 L 36 86 L 31 114 L 35 123 L 42 129 L 59 132 L 106 103 L 126 95 L 138 76 L 145 36 L 155 21 L 176 4 L 182 21 L 177 38 L 185 47 L 186 95 L 181 111 L 185 124 L 243 202 L 250 216"/>
<path d="M 1 8 L 4 27"/>
<path d="M 30 13 L 29 14"/>
<path d="M 8 39 L 2 94 L 4 141 L 18 173 L 40 197 L 61 206 L 90 213 L 137 213 L 185 210 L 235 228 L 251 230 L 255 226"/>
</g>
</svg>
