<svg width="256" height="256" xmlns="http://www.w3.org/2000/svg">
<g stroke="black" fill="transparent" stroke-width="4">
<path d="M 117 80 L 111 73 L 96 68 L 57 67 L 38 74 L 19 94 L 12 116 L 11 172 L 16 188 L 32 209 L 40 226 L 53 239 L 70 245 L 126 248 L 149 243 L 173 233 L 210 206 L 234 172 L 239 147 L 239 118 L 235 109 L 223 90 L 210 79 L 160 59 L 139 57 L 134 63"/>
<path d="M 63 41 L 54 42 L 40 52 L 7 86 L 19 83 L 57 55 L 0 127 L 4 129 L 13 125 L 30 104 L 43 82 L 18 132 L 5 167 L 4 172 L 12 167 L 40 119 L 7 209 L 27 175 L 19 240 L 44 209 L 48 225 L 67 228 L 82 247 L 88 248 L 95 247 L 117 234 L 126 233 L 140 239 L 157 221 L 161 232 L 164 233 L 189 213 L 197 213 L 204 219 L 210 220 L 220 175 L 228 165 L 234 131 L 243 96 L 245 73 L 218 72 L 215 77 L 191 55 L 178 50 L 125 47 L 87 38 L 55 38"/>
<path d="M 72 105 L 82 106 L 87 103 L 93 94 L 94 88 L 87 101 L 75 98 L 72 102 L 78 103 L 85 94"/>
<path d="M 162 91 L 162 91"/>
<path d="M 152 88 L 168 93 L 171 93 L 170 88 L 154 88 L 150 99 L 155 106 L 159 106 L 166 104 L 172 95 L 173 86 L 163 85 L 156 88 L 154 91 L 158 91 L 155 97"/>
<path d="M 80 164 L 98 201 L 114 162 L 145 198 L 163 162"/>
<path d="M 72 166 L 77 161 L 88 159 L 179 160 L 175 158 L 115 162 L 44 162"/>
<path d="M 200 70 L 230 33 L 243 21 L 254 17 L 254 42 L 244 102"/>
<path d="M 20 76 L 16 72 L 13 48 L 13 0 L 59 34 L 74 48"/>
</g>
</svg>
