<svg width="256" height="256" xmlns="http://www.w3.org/2000/svg">
<g stroke="black" fill="transparent" stroke-width="4">
<path d="M 71 70 L 98 56 L 128 49 L 166 47 L 192 54 L 216 68 L 230 88 L 245 118 L 244 128 L 237 134 L 215 139 L 70 140 L 56 138 L 43 132 L 16 131 L 1 137 L 1 125 L 18 114 L 8 92 L 36 104 L 49 104 L 77 67"/>
<path d="M 138 89 L 139 94 L 131 116 L 133 121 L 156 119 L 157 96"/>
<path d="M 207 89 L 207 93 L 214 94 L 214 89 L 203 91"/>
<path d="M 223 120 L 231 124 L 239 124"/>
<path d="M 140 48 L 137 33 L 125 21 L 97 9 L 72 7 L 115 4 L 134 12 L 155 0 L 166 16 L 180 9 L 199 6 L 209 19 L 246 15 L 253 17 L 255 21 L 233 28 L 191 35 L 171 44 L 169 52"/>
</g>
</svg>
