<svg width="256" height="256" xmlns="http://www.w3.org/2000/svg">
<g stroke="black" fill="transparent" stroke-width="4">
<path d="M 57 8 L 39 6 L 23 15 L 8 32 L 0 49 L 33 42 L 53 44 L 43 115 L 24 112 L 16 123 L 19 127 L 43 131 L 57 126 L 65 118 L 74 102 L 76 75 L 80 62 L 89 48 L 161 60 L 152 108 L 140 124 L 131 119 L 121 119 L 117 131 L 120 137 L 163 135 L 172 128 L 177 116 L 180 75 L 185 61 L 209 76 L 217 93 L 231 114 L 241 115 L 246 113 L 254 104 L 255 88 L 251 79 L 226 65 L 216 55 L 181 46 L 171 37 L 170 28 L 166 24 L 92 3 L 73 2 L 53 9"/>
<path d="M 40 15 L 31 20 L 30 29 L 36 32 L 43 30 L 44 15 L 39 13"/>
<path d="M 63 4 L 94 52"/>
<path d="M 89 0 L 115 34 L 126 57"/>
<path d="M 128 25 L 147 55"/>
<path d="M 151 24 L 177 66"/>
<path d="M 171 39 L 196 71"/>
<path d="M 214 54 L 235 104"/>
<path d="M 241 72 L 243 84 L 255 113"/>
</g>
</svg>
