<svg width="256" height="256" xmlns="http://www.w3.org/2000/svg">
<g stroke="black" fill="transparent" stroke-width="4">
<path d="M 110 64 L 99 65 L 70 86 L 64 94 L 57 120 L 57 139 L 64 146 L 87 148 L 104 144 L 123 126 L 128 112 L 128 97 L 119 80 L 103 68"/>
<path d="M 165 84 L 146 86 L 134 93 L 125 103 L 116 118 L 114 129 L 115 137 L 121 144 L 152 146 L 158 144 L 169 132 L 176 113 L 175 94 L 157 79"/>
<path d="M 255 88 L 245 79 L 224 78 L 214 80 L 199 88 L 174 120 L 173 142 L 184 145 L 207 146 L 213 143 L 222 128 L 227 94 L 214 78"/>
<path d="M 60 80 L 46 0"/>
<path d="M 48 94 L 0 43"/>
<path d="M 63 98 L 65 109 L 68 110"/>
<path d="M 89 94 L 92 103"/>
<path d="M 68 118 L 72 131 L 87 147 L 93 145 L 93 133"/>
<path d="M 110 137 L 86 221"/>
<path d="M 153 139 L 154 164 L 180 212"/>
<path d="M 113 150 L 122 221"/>
<path d="M 181 135 L 185 174 L 201 227"/>
</g>
</svg>
