<svg width="256" height="256" xmlns="http://www.w3.org/2000/svg">
<g stroke="black" fill="transparent" stroke-width="4">
<path d="M 89 50 L 70 45 L 55 45 L 29 51 L 16 61 L 0 87 L 20 82 L 22 101 L 27 107 L 38 98 L 51 76 L 64 97 L 75 103 L 85 94 L 93 74 L 91 93 L 102 116 L 115 126 L 130 131 L 144 128 L 157 117 L 158 94 L 175 114 L 180 115 L 185 106 L 185 82 L 201 106 L 210 113 L 222 101 L 225 89 L 253 102 L 253 95 L 229 60 L 208 46 L 186 42 L 166 47 L 149 58 L 154 48 L 150 26 L 137 14 L 109 0 L 97 7 L 89 26 L 89 53 L 92 61 L 95 57"/>
<path d="M 116 16 L 116 21"/>
<path d="M 132 22 L 131 26"/>
<path d="M 112 44 L 116 51 L 124 55 L 131 56 L 133 52"/>
</g>
</svg>
