<svg width="256" height="256" xmlns="http://www.w3.org/2000/svg">
<g stroke="black" fill="transparent" stroke-width="4">
<path d="M 135 154 L 75 157 L 52 153 L 21 138 L 8 121 L 0 96 L 2 74 L 25 34 L 29 10 L 39 1 L 60 1 L 73 7 L 91 24 L 95 34 L 94 45 L 117 50 L 179 54 L 187 22 L 194 12 L 204 6 L 225 9 L 239 17 L 250 32 L 255 78 L 246 103 L 233 122 L 200 146 L 138 163 L 126 164 L 117 160"/>
<path d="M 116 120 L 106 117 L 93 107 L 92 92 L 100 87 L 116 88 L 125 100 L 123 111 L 111 119 L 112 140 L 101 141 L 72 132 L 122 150 L 132 150 L 143 145"/>
<path d="M 49 78 L 46 96 L 52 77 L 54 75 L 55 80 L 49 99"/>
<path d="M 57 82 L 50 91 L 52 78 L 49 84"/>
<path d="M 177 97 L 169 120 L 176 88 L 174 110 L 178 93"/>
<path d="M 78 135 L 70 150 L 92 140 L 85 153 L 87 158 L 101 151 L 105 141 L 106 157 L 111 160 L 116 158 L 121 154 L 122 143"/>
</g>
</svg>
