<svg width="256" height="256" xmlns="http://www.w3.org/2000/svg">
<g stroke="black" fill="transparent" stroke-width="4">
<path d="M 111 57 L 81 57 L 38 67 L 14 77 L 2 90 L 1 105 L 10 122 L 28 133 L 65 142 L 115 142 L 159 130 L 237 89 L 254 75 L 252 69 L 234 57 L 198 48 L 135 48 L 94 55"/>
<path d="M 69 59 L 69 135 L 74 151 L 78 156"/>
<path d="M 96 59 L 93 115 L 96 137 L 91 136 L 94 128 L 85 125 L 88 114 L 85 110 L 99 90 L 83 82 L 80 70"/>
<path d="M 149 48 L 140 104 L 140 138 L 143 132"/>
<path d="M 171 44 L 172 120"/>
<path d="M 162 61 L 143 67 L 170 67 L 148 89 L 172 95 L 141 114 L 139 117 L 145 115"/>
<path d="M 223 57 L 212 63 L 209 69 L 216 66 L 215 55"/>
<path d="M 146 49 L 127 24 L 115 14 L 96 9 L 79 9 L 64 17 L 64 31 L 76 40 L 110 55"/>
<path d="M 154 46 L 157 42 L 158 29 L 155 4 L 151 0 L 120 29 L 118 35 L 120 42"/>
</g>
</svg>
