<svg width="256" height="256" xmlns="http://www.w3.org/2000/svg">
<g stroke="black" fill="transparent" stroke-width="4">
<path d="M 198 42 L 245 44 L 255 60 L 231 58 L 198 52 L 193 39"/>
<path d="M 199 55 L 211 61 L 226 61 L 245 55 L 242 51"/>
<path d="M 200 37 L 188 7 L 176 0 L 167 3 L 153 21 L 151 41 L 156 71 L 145 109 L 137 119 L 126 124 L 17 125 L 7 135 L 3 155 L 10 164 L 29 171 L 113 174 L 129 170 L 145 158 L 150 143 L 161 122 L 199 90 L 202 55"/>
<path d="M 84 177 L 79 197"/>
<path d="M 63 174 L 54 195"/>
<path d="M 53 194 L 40 201"/>
<path d="M 54 194 L 71 213"/>
<path d="M 46 189 L 48 205"/>
<path d="M 81 190 L 81 217"/>
<path d="M 85 192 L 104 204"/>
<path d="M 91 197 L 95 207"/>
<path d="M 88 112 L 87 98 L 50 53 L 24 31 L 0 17 L 31 46 L 45 65 L 44 68 L 24 75 L 1 80 L 46 101 L 39 109 L 9 124 L 8 130 L 49 155 L 55 161 L 54 173"/>
</g>
</svg>
