<svg width="256" height="256" xmlns="http://www.w3.org/2000/svg">
<g stroke="black" fill="transparent" stroke-width="4">
<path d="M 138 64 L 53 223 L 71 226 L 115 209 L 142 186 L 101 154 L 50 106 L 77 95 L 111 87 L 138 71"/>
<path d="M 188 110 L 118 125 L 34 152 L 15 165 L 0 182 L 70 184 L 145 155 L 203 143 L 209 134 L 210 124 L 205 116 L 196 112"/>
<path d="M 203 113 L 219 90 L 225 73 L 233 37 L 230 17"/>
<path d="M 213 145 L 235 165 L 243 185 L 248 209"/>
<path d="M 185 134 L 185 130"/>
<path d="M 190 125 L 190 125"/>
<path d="M 190 119 L 190 118"/>
<path d="M 252 209 L 252 209"/>
<path d="M 254 210 L 252 221 L 239 215 L 240 203 L 244 199 L 247 209 L 246 212"/>
<path d="M 222 29 L 224 0 L 229 3 L 231 19 L 227 28 L 222 31 L 217 6 L 224 6"/>
</g>
</svg>
