<svg width="256" height="256" xmlns="http://www.w3.org/2000/svg">
<g stroke="black" fill="transparent" stroke-width="4">
<path d="M 79 135 L 75 139 L 70 198 L 72 216 L 92 219 L 102 210 L 109 198 L 111 174 L 98 143 L 120 139 L 164 139 L 160 219 L 165 230 L 178 236 L 190 235 L 198 230 L 212 208 L 212 186 L 192 142 L 198 140 L 210 146 L 235 175 L 253 188 L 254 166 L 249 148 L 234 135 L 200 121 L 192 85 L 185 76 L 172 69 L 159 69 L 152 76 L 151 112 L 128 70 L 120 64 L 111 64 L 104 81 L 103 117 L 91 114 L 76 103 L 66 88 L 61 28 L 55 11 L 42 2 L 23 1 L 15 5 L 3 27 L 1 63 L 20 66 L 33 61 L 50 75 L 60 94 L 69 137"/>
<path d="M 13 28 L 16 32 L 25 34 L 30 28 L 29 23"/>
</g>
</svg>
