<svg width="256" height="256" xmlns="http://www.w3.org/2000/svg">
<g stroke="black" fill="transparent" stroke-width="4">
<path d="M 28 46 L 0 0 L 55 38 L 64 40 L 75 41 L 93 23 L 108 17 L 105 26 L 89 45 L 106 64 L 108 70 L 88 97 L 50 90 L 29 77 L 19 64 L 24 57 L 35 54"/>
<path d="M 66 72 L 64 76 L 69 76 L 66 73 L 64 75 L 68 76 L 66 76"/>
<path d="M 57 60 L 62 61 L 58 59"/>
<path d="M 74 60 L 72 66 L 76 67 L 72 61"/>
<path d="M 108 65 L 172 72 L 212 81 L 217 89 L 208 93 L 185 93 L 169 101 L 145 103 L 109 92 L 98 92"/>
<path d="M 208 79 L 218 64 L 246 57 L 255 60 L 250 72 L 233 91 L 216 100 L 213 89"/>
<path d="M 109 89 L 104 99 L 104 113 L 122 93"/>
<path d="M 124 97 L 121 127 L 140 96"/>
</g>
</svg>
