<svg width="256" height="256" xmlns="http://www.w3.org/2000/svg">
<g stroke="black" fill="transparent" stroke-width="4">
<path d="M 170 43 L 169 38 L 158 30 L 125 21 L 99 24 L 85 34 L 75 54 L 74 75 L 80 89 L 94 104 L 111 111 L 142 114 L 153 110 L 169 97 L 178 78 L 178 64 L 173 52 L 161 40"/>
<path d="M 102 19 L 88 5 L 75 0 L 72 16 L 79 31"/>
<path d="M 137 26 L 145 15 L 161 4 L 175 6 L 177 23 L 166 53"/>
<path d="M 173 78 L 172 75 L 144 65 L 123 62 L 79 64 L 72 72"/>
<path d="M 144 86 L 146 80 L 144 78 L 135 81 L 134 91 L 142 93 L 146 91 L 146 82"/>
<path d="M 101 76 L 97 78 L 98 83 L 108 90 L 108 75"/>
<path d="M 112 32 L 104 32 L 104 40 L 109 37 L 105 36 L 104 39 L 107 40 L 110 39 L 108 35 L 101 34"/>
<path d="M 143 41 L 142 38 L 139 40 L 139 47 L 143 48 L 143 43 L 136 43 L 141 48 L 144 47 L 141 44 L 137 45 L 143 48"/>
<path d="M 72 67 L 77 99 L 74 125"/>
<path d="M 180 78 L 170 118 L 157 149"/>
<path d="M 74 107 L 23 108 L 1 115"/>
<path d="M 172 146 L 166 167 L 159 179 L 126 196 L 0 202"/>
<path d="M 166 158 L 168 152 L 160 123"/>
<path d="M 50 129 L 51 138"/>
<path d="M 30 96 L 24 104 L 19 121 L 35 133 L 46 133 L 50 142 L 62 146 L 66 146 L 72 139 L 71 120 L 55 101"/>
<path d="M 127 187 L 113 166 L 95 159 L 87 165 L 57 171 L 56 181 L 57 185 L 97 197"/>
<path d="M 2 129 L 22 147 L 26 171"/>
<path d="M 21 195 L 14 228 L 28 252 L 34 254 L 42 207"/>
</g>
</svg>
