<svg width="256" height="256" xmlns="http://www.w3.org/2000/svg">
<g stroke="black" fill="transparent" stroke-width="4">
<path d="M 161 2 L 140 0 L 124 2 L 82 21 L 64 39 L 60 63 L 67 81 L 91 101 L 99 103 L 119 103 L 142 96 L 162 86 L 173 78 L 184 63 L 186 47 L 185 34 L 180 25 L 167 13 L 142 12"/>
<path d="M 95 50 L 95 52"/>
<path d="M 151 41 L 149 41"/>
<path d="M 88 83 L 98 91 L 105 92 L 124 90 L 148 79 L 154 68"/>
<path d="M 173 33 L 184 22 L 196 14 L 213 14 L 240 21"/>
<path d="M 184 48 L 208 42 L 227 40 L 245 46 L 255 53"/>
<path d="M 183 67 L 198 61 L 210 61 L 226 67 L 244 83"/>
<path d="M 72 49 L 54 38 L 33 32 L 14 38 L 8 44"/>
<path d="M 62 65 L 46 58 L 33 57 L 13 61 L 0 74"/>
<path d="M 66 77 L 47 78 L 27 85 L 22 89 L 17 101"/>
<path d="M 88 103 L 80 115 L 79 129 L 87 141 L 97 145 L 107 142 L 111 134 L 110 128 L 99 125 L 99 116 L 107 107 L 117 103"/>
<path d="M 175 79 L 183 88 L 184 96 L 176 125 L 164 127 L 155 123 L 157 114 L 172 101 L 168 88"/>
</g>
</svg>
