<svg width="256" height="256" xmlns="http://www.w3.org/2000/svg">
<g stroke="black" fill="transparent" stroke-width="4">
<path d="M 4 2 L 0 23 L 41 39 L 54 50 L 63 65 L 62 71 L 55 75 L 18 79 L 16 94 L 59 88 L 100 88 L 196 95 L 254 104 L 249 101"/>
<path d="M 3 0 L 12 5 L 72 19 L 77 18 L 84 10 L 96 9 L 102 14 L 100 25 L 212 28 L 234 32 L 244 36 L 241 37"/>
<path d="M 131 61 L 100 66 L 98 73 L 105 74 L 99 78 L 101 84 L 110 84 L 108 88 L 112 89 L 135 80 L 157 79"/>
<path d="M 3 26 L 5 41 L 18 31 L 19 44 L 24 36 L 27 37 L 27 48 L 36 40 L 40 49 L 45 44 L 48 53 L 51 50 L 49 56"/>
<path d="M 27 77 L 32 65 L 35 69 L 40 63 L 43 71 L 48 62"/>
</g>
</svg>
