<svg width="256" height="256" xmlns="http://www.w3.org/2000/svg">
<g stroke="black" fill="transparent" stroke-width="4">
<path d="M 51 62 L 40 56 L 21 56 L 9 62 L 3 72 L 5 83 L 14 92 L 34 98 L 50 97"/>
<path d="M 52 57 L 57 43 L 68 35 L 78 31 L 99 31 L 110 38 L 119 59 L 163 56 L 194 66 L 204 72 L 226 93 L 228 114 L 225 122 L 201 136 L 133 141 L 98 128 L 61 99 L 51 94"/>
<path d="M 72 106 L 61 138"/>
<path d="M 91 124 L 86 158 L 88 162"/>
<path d="M 187 142 L 216 157"/>
<path d="M 213 136 L 240 149"/>
<path d="M 221 80 L 255 51"/>
<path d="M 68 29 L 59 14 L 59 0 L 66 2 L 83 24"/>
<path d="M 98 25 L 97 15 L 103 8 L 109 4 L 120 5 L 121 18 L 111 31"/>
<path d="M 6 56 L 2 62 L 6 61 L 7 55 L 2 54 L 0 60 L 5 61 L 6 56 L 2 58 L 4 61"/>
<path d="M 78 49 L 87 51 L 83 48 L 82 53 L 80 51"/>
<path d="M 126 87 L 131 96 L 141 93 L 136 91"/>
<path d="M 184 85 L 196 93 L 194 88 L 185 92"/>
<path d="M 169 110 L 167 117 L 158 117"/>
<path d="M 89 109 L 89 109"/>
<path d="M 84 83 L 109 73"/>
<path d="M 142 67 L 142 67"/>
<path d="M 142 67 L 172 85 L 182 97"/>
<path d="M 184 106 L 184 106"/>
<path d="M 143 119 L 143 119"/>
<path d="M 143 119 L 103 105"/>
</g>
</svg>
