<svg width="256" height="256" xmlns="http://www.w3.org/2000/svg">
<g stroke="black" fill="transparent" stroke-width="4">
<path d="M 103 29 L 78 18 L 55 19 L 30 42 L 30 68 L 45 74 L 67 75 L 77 70 L 86 54 L 90 66 L 138 131 L 147 115 L 159 106 L 192 93 L 232 94 L 249 107 L 252 115 L 252 121 L 247 125 L 213 134 L 161 143 L 139 142"/>
<path d="M 110 24 L 136 66 L 148 80 L 171 95"/>
<path d="M 167 97 L 169 85 L 181 61 L 190 97 L 199 90 L 214 58 L 223 51 L 228 56 L 231 85 L 236 83 L 253 60 L 255 71 L 248 96"/>
<path d="M 177 97 L 171 62 L 170 73 L 162 48 L 155 51 L 152 25 L 134 28 L 115 40 L 144 0 L 136 3 L 105 35"/>
<path d="M 108 39 L 108 39"/>
<path d="M 108 39 L 108 39"/>
<path d="M 56 48 L 54 44 L 53 50"/>
<path d="M 40 75 L 24 76 L 12 86 L 0 105 L 11 102 L 12 111 L 18 112 L 47 99 L 51 99 L 54 103 L 76 54"/>
</g>
</svg>
