<svg width="256" height="256" xmlns="http://www.w3.org/2000/svg">
<g stroke="black" fill="transparent" stroke-width="4">
<path d="M 28 75 L 26 71 L 32 49 L 48 21 L 78 2 L 106 2 L 117 6 L 129 15 L 143 36 L 151 65 L 151 112 L 249 112 L 254 119 L 255 138 L 250 187 L 238 212 L 220 229 L 203 239 L 189 243 L 116 242 L 90 234 L 73 224 L 61 214 L 45 192 L 38 175 L 33 152 L 28 84"/>
<path d="M 39 67 L 28 70 L 9 85 L 1 96 L 3 101 L 25 103 L 51 100 L 67 95 L 79 86 L 78 77 L 62 65 L 52 61 L 41 62"/>
<path d="M 89 36 L 93 45 L 99 42 L 98 39 L 90 38"/>
<path d="M 136 153 L 139 164 L 155 181 L 184 195 L 205 198 L 222 193"/>
<path d="M 187 159 L 189 167 L 203 179 L 232 191"/>
<path d="M 215 156 L 215 159 L 225 167 L 247 170"/>
</g>
</svg>
