<svg width="256" height="256" xmlns="http://www.w3.org/2000/svg">
<g stroke="black" fill="transparent" stroke-width="4">
<path d="M 123 26 L 121 24 L 124 16 L 141 2 L 158 3 L 178 22 L 181 39 L 176 48 L 161 64 L 146 67"/>
<path d="M 125 8 L 115 2 L 103 0 L 83 23 L 79 36 L 76 72 L 70 89 L 62 98 L 48 98 L 31 88 L 24 80 L 9 54 L 4 53 L 0 59 L 1 71 L 7 80 L 17 93 L 34 103 L 102 104 L 110 98 L 114 89"/>
<path d="M 4 69 L 15 68"/>
<path d="M 7 53 L 7 59"/>
<path d="M 110 49 L 112 52 L 109 50"/>
<path d="M 113 90 L 113 132 L 118 145 L 126 142 L 127 115 L 132 135 L 138 142 L 143 132 L 145 114 L 228 113 L 232 141 L 239 128 L 239 118 L 254 144 L 255 74 L 253 57 L 245 54 L 188 53"/>
</g>
</svg>
