<svg width="256" height="256" xmlns="http://www.w3.org/2000/svg">
<g stroke="black" fill="transparent" stroke-width="4">
<path d="M 0 106 L 7 87 L 21 72 L 38 65 L 58 63 L 87 63 L 120 69 L 147 91 L 170 102 L 196 109 L 225 103 L 238 91 L 247 76 L 254 78 L 255 102 L 250 169 L 251 205 L 243 204 L 208 159 L 200 156 L 184 157 L 146 169 L 123 171 L 77 171 L 52 164 L 34 154 L 9 129 L 7 103 L 10 81"/>
<path d="M 94 64 L 95 51 L 115 23 L 141 0 L 149 8 L 146 27 L 171 13 L 185 20 L 182 38 L 188 44 L 201 42 L 200 62 L 189 83 L 173 103"/>
<path d="M 110 182 L 127 200 L 135 218 L 160 218 L 166 193 L 163 165 L 158 154"/>
<path d="M 50 144 L 71 131 L 89 108 L 94 81 L 85 67 L 76 60"/>
<path d="M 46 98 L 55 90"/>
</g>
</svg>
