<svg width="256" height="256" xmlns="http://www.w3.org/2000/svg">
<g stroke="black" fill="transparent" stroke-width="4">
<path d="M 12 91 L 39 112 L 40 108 L 31 86"/>
<path d="M 38 88 L 33 82 L 22 89"/>
<path d="M 36 87 L 16 92"/>
<path d="M 42 83 L 35 82 L 28 74 L 25 67 L 26 52 L 38 45 L 50 44 L 59 53 L 64 76 L 60 110 L 61 130 L 75 145 L 104 160"/>
<path d="M 13 98 L 2 74 L 0 42 L 3 30 L 13 14 L 23 6 L 37 1 L 51 0 L 63 8 L 73 22 L 78 42 L 82 94 L 95 119 L 103 124 L 127 126 L 152 115 L 165 114"/>
<path d="M 94 161 L 121 170 L 162 171"/>
<path d="M 14 46 L 13 57 L 16 57 L 17 48"/>
<path d="M 120 165 L 109 206"/>
<path d="M 114 203 L 102 206 L 91 215 L 88 221"/>
<path d="M 110 202 L 134 255"/>
<path d="M 111 205 L 97 238"/>
<path d="M 156 168 L 156 168"/>
</g>
</svg>
