<svg width="256" height="256" xmlns="http://www.w3.org/2000/svg">
<g stroke="black" fill="transparent" stroke-width="4">
<path d="M 188 42 L 190 34 L 184 17 L 173 5 L 162 0 L 150 1 L 126 16 L 116 16 L 104 7 L 94 4 L 85 5 L 77 11 L 65 27 L 54 59 L 53 74 L 111 75 L 192 65 L 193 52 L 187 43"/>
<path d="M 155 23 L 146 34 L 146 49 L 163 53 L 169 43 L 169 32 L 161 25 L 152 25"/>
<path d="M 159 44 L 153 37"/>
<path d="M 87 33 L 75 27 L 73 50 L 79 59 L 91 60 L 102 52 L 100 40 L 90 32 L 84 31 L 74 36"/>
<path d="M 85 49 L 76 44 L 82 46 L 79 43 L 78 45 L 88 49 L 84 46 L 77 47"/>
<path d="M 139 69 L 114 69"/>
<path d="M 52 78 L 51 74 L 47 73 L 39 87 L 44 132 L 38 176"/>
<path d="M 204 58 L 193 72 L 190 86 L 200 120 L 203 187 L 198 190 L 176 202 L 149 209 L 75 207 L 21 192 L 25 183 L 41 168"/>
<path d="M 45 132 L 16 109 L 0 81 L 3 79 L 8 82 L 13 72 L 18 69 L 19 83 L 19 75 L 27 71 L 33 82 L 30 94 L 43 113"/>
<path d="M 214 113 L 203 124 L 205 126 L 236 122 L 247 117 L 254 108 L 254 96 L 243 97 L 249 90 L 249 79 L 244 78 L 239 83 L 231 70 L 225 66 L 224 80 L 219 75 L 210 80 L 201 120"/>
<path d="M 187 212 L 190 212"/>
</g>
</svg>
