<svg width="256" height="256" xmlns="http://www.w3.org/2000/svg">
<g stroke="black" fill="transparent" stroke-width="4">
<path d="M 144 104 L 138 98 L 112 95 L 94 100 L 75 113 L 61 139 L 49 198 L 82 198 L 86 179 L 97 167 L 105 165 L 121 165 L 134 170 L 138 177 L 140 195 L 160 189 L 159 127 L 180 98 L 194 50 L 200 43 L 211 39 L 222 38 L 239 44 L 251 40 L 255 32 L 254 25 L 228 16 L 216 16 L 211 7 L 203 0 L 192 10 L 182 11 L 170 32 L 155 77 L 140 110"/>
<path d="M 71 125 L 61 115 L 45 111 L 22 150 L 7 153"/>
<path d="M 231 26 L 230 28 L 236 31 L 238 25 L 233 25"/>
<path d="M 250 34 L 254 41 L 254 36"/>
<path d="M 166 40 L 166 46 L 183 56 L 184 71 L 177 79 L 151 85"/>
<path d="M 178 95 L 161 104 L 150 120 L 153 123"/>
<path d="M 114 102 L 108 102 L 107 106 L 117 117 L 116 128 L 91 139 L 68 139 L 58 148 L 58 159"/>
<path d="M 74 179 L 84 174 L 91 155 L 103 148 L 112 169"/>
<path d="M 131 151 L 132 144 L 146 128 L 156 126 L 161 138 L 141 151 L 138 159 L 147 168 L 155 161 L 160 163"/>
<path d="M 183 18 L 188 26 L 199 29"/>
</g>
</svg>
