<svg width="256" height="256" xmlns="http://www.w3.org/2000/svg">
<g stroke="black" fill="transparent" stroke-width="4">
<path d="M 191 69 L 207 90 L 253 104 L 254 108 L 240 127 L 223 137 L 182 150"/>
<path d="M 249 99 L 243 104 L 241 113 L 253 112 L 255 105 L 252 103"/>
<path d="M 182 89 L 173 90 L 168 101 L 173 106 L 184 105 L 185 94 L 181 85"/>
<path d="M 189 63 L 177 20 L 170 24 L 154 57 L 130 11 L 120 0 L 100 62 L 94 58 L 78 36 L 64 24 L 47 14 L 45 54 L 51 66 L 36 66 L 15 73 L 2 84 L 2 87 L 8 88 L 45 88 L 21 105 L 0 114 L 2 117 L 67 126 L 52 136 L 9 150 L 42 155 L 38 168 L 104 168 L 96 171 L 89 179 L 93 185 L 115 186 L 118 184 L 119 174 L 123 182 L 131 187 L 142 183 L 143 176 L 159 187 L 170 188 L 169 158 L 183 146"/>
<path d="M 178 98 L 178 98"/>
</g>
</svg>
