<svg width="256" height="256" xmlns="http://www.w3.org/2000/svg">
<g stroke="black" fill="transparent" stroke-width="4">
<path d="M 7 16 L 30 3 L 51 0 L 66 7 L 93 45 L 103 52 L 131 57 L 184 58 L 226 66 L 236 71 L 245 89 L 251 108 L 249 120 L 230 124 L 230 105 L 223 89 L 217 101 L 201 152 L 186 152 L 186 120 L 183 111 L 179 111 L 170 123 L 164 152 L 158 155 L 142 147 L 142 140 L 148 118 L 148 105 L 135 105 L 127 114 L 126 153 L 101 157 L 105 105 L 96 102 L 89 112 L 86 145 L 70 149 L 66 138 L 66 115 L 78 93 L 80 67 L 49 32 L 3 29 L 0 22 L 13 12"/>
<path d="M 48 2 L 63 11 L 66 24"/>
<path d="M 74 13 L 75 55"/>
<path d="M 89 38 L 89 61"/>
<path d="M 219 67 L 239 89 L 247 105"/>
<path d="M 237 67 L 250 118"/>
<path d="M 244 88 L 255 144"/>
<path d="M 234 86 L 240 154"/>
<path d="M 218 61 L 229 118 L 231 144"/>
<path d="M 228 114 L 236 145"/>
<path d="M 18 17 L 21 20 L 23 15 L 18 16"/>
<path d="M 58 2 L 65 5 L 69 13 L 70 37 L 69 16 L 86 59 L 83 60 L 79 39 L 87 54"/>
<path d="M 1 28 L 29 28 L 47 20"/>
</g>
</svg>
