<svg width="256" height="256" xmlns="http://www.w3.org/2000/svg">
<g stroke="black" fill="transparent" stroke-width="4">
<path d="M 62 37 L 38 37 L 18 41 L 6 51 L 1 65 L 7 74 L 17 78 L 64 76"/>
<path d="M 44 47 L 43 50 L 42 48"/>
<path d="M 15 61 L 20 66 L 31 61"/>
<path d="M 64 36 L 87 4 L 93 0 L 93 11 L 78 35"/>
<path d="M 78 36 L 93 58 L 102 79 L 117 155"/>
<path d="M 64 75 L 58 110 L 47 133"/>
<path d="M 41 134 L 52 139"/>
<path d="M 40 131 L 36 150 L 37 167 L 44 192 L 55 204"/>
<path d="M 57 171 L 61 192 L 76 217 L 14 213 L 1 222 L 1 229 L 6 237 L 34 240 L 112 229"/>
<path d="M 117 148 L 123 168 L 139 193 L 169 221 L 205 240 L 250 250"/>
<path d="M 113 227 L 154 239 L 195 245 L 255 240"/>
</g>
</svg>
