<svg width="256" height="256" xmlns="http://www.w3.org/2000/svg">
<g stroke="black" fill="transparent" stroke-width="4">
<path d="M 255 106 L 241 93 L 207 90 L 180 69 L 146 60 L 129 61 L 118 69 L 114 80 L 114 104 L 118 110 L 129 110 L 162 98 L 219 110 L 236 110 L 240 104"/>
<path d="M 143 60 L 140 42 L 120 30 L 81 28 L 50 34 L 51 28 L 65 19 L 62 18 L 35 18 L 11 28 L 17 13 L 33 4 L 54 0 L 90 4 L 116 15 L 129 26 L 140 40 L 143 56"/>
<path d="M 130 120 L 124 128 L 112 133 L 66 135 L 52 124 L 42 103 L 33 111 L 33 123 L 15 98 L 16 76 L 1 108 L 0 128 L 15 150 L 26 158 L 46 164 L 77 164 L 94 161 L 114 152 L 130 138 L 135 120"/>
<path d="M 231 111 L 231 135 L 253 129 L 247 107"/>
<path d="M 155 102 L 156 113 L 153 118"/>
<path d="M 167 99 L 170 112 L 167 122"/>
<path d="M 181 103 L 183 121"/>
<path d="M 196 105 L 199 122"/>
<path d="M 211 112 L 212 124"/>
</g>
</svg>
