<svg width="256" height="256" xmlns="http://www.w3.org/2000/svg">
<g stroke="black" fill="transparent" stroke-width="4">
<path d="M 148 6 L 133 1 L 111 1 L 91 7 L 75 17 L 60 38 L 54 51 L 53 89 L 56 115"/>
<path d="M 133 2 L 160 3 L 172 13 L 179 31 L 179 73 L 172 106 L 164 121 L 151 134 L 129 147 L 107 156 L 90 156 L 74 150 L 61 136 L 53 119 L 51 96"/>
<path d="M 96 37 L 117 42 L 123 49 L 125 61 L 131 45 L 142 35 L 157 34 L 164 38"/>
<path d="M 107 40 L 96 44 L 89 52 L 71 93 L 70 114"/>
<path d="M 156 33 L 163 58 L 163 70 L 155 121"/>
<path d="M 177 76 L 185 62 L 196 53 L 204 51 L 208 55 L 208 85 L 205 96 L 195 112 L 183 119"/>
<path d="M 57 65 L 54 55 L 46 56 L 40 65 L 41 76 L 52 107 L 65 107"/>
<path d="M 107 68 L 101 81 L 110 67 L 109 61"/>
<path d="M 138 63 L 137 79 L 140 67"/>
<path d="M 92 103 L 96 121 L 101 125 L 109 125 L 117 124 L 129 115 L 134 102"/>
<path d="M 81 153 L 67 179 L 63 195 L 65 220 L 78 234"/>
<path d="M 137 143 L 155 180 L 153 200 L 144 219 L 123 233 L 96 235 L 81 229 L 66 213"/>
<path d="M 155 167 L 235 99"/>
<path d="M 74 168 L 53 152 L 5 99 L 3 109 L 7 110 L 14 106 L 19 93 L 18 84 L 8 83 L 3 86 L 0 100"/>
<path d="M 235 85 L 229 101 L 228 113 L 232 116 L 236 114 L 245 105 L 239 82"/>
<path d="M 83 232 L 64 234 L 48 240 L 43 245 L 43 255"/>
<path d="M 136 225 L 136 225"/>
</g>
</svg>
