<svg width="256" height="256" xmlns="http://www.w3.org/2000/svg">
<g stroke="black" fill="transparent" stroke-width="4">
<path d="M 158 97 L 132 88 L 85 86 L 21 97 L 5 104 L 1 110 L 110 112 L 137 105 L 148 99 L 151 92"/>
<path d="M 153 94 L 149 89 L 150 77 L 159 69 L 172 66 L 181 73 L 189 95 L 188 102 L 184 105 L 159 106 L 154 101 L 152 84"/>
<path d="M 184 85 L 179 87 L 178 95 L 187 98"/>
<path d="M 164 66 L 162 70 L 166 75 L 175 77 L 177 74"/>
<path d="M 70 86 L 61 69 L 52 37 L 51 11 L 55 4 L 61 0 L 67 1 L 70 5 L 76 29 L 80 83"/>
<path d="M 78 111 L 67 140 L 64 183 L 68 199 L 78 202 L 88 194 L 96 160 L 96 121 L 92 106"/>
<path d="M 186 78 L 255 64 L 187 93"/>
</g>
</svg>
