<svg width="256" height="256" xmlns="http://www.w3.org/2000/svg">
<g stroke="black" fill="transparent" stroke-width="4">
<path d="M 65 76 L 61 65 L 60 45 L 68 22 L 92 5 L 118 0 L 129 3 L 138 9 L 134 16 L 142 35 L 142 62 L 139 78"/>
<path d="M 78 42 L 84 39 L 92 42"/>
<path d="M 110 40 L 119 39 L 125 42"/>
<path d="M 92 54 L 96 59 L 101 60 L 116 51"/>
<path d="M 60 73 L 57 85 L 39 88 L 25 99 L 22 105 L 33 109 L 6 145 L 18 148 L 20 153 L 0 180 L 1 183 L 13 185 L 15 189 L 2 217 L 1 232 L 7 233 L 20 228 L 37 210 L 40 194 L 34 168 L 47 132 L 42 114 L 55 104 L 49 114 L 60 121 L 54 145 L 69 152 L 58 180 L 61 186 L 73 192 L 70 215 L 74 220 L 96 223 L 99 226 L 112 221 L 99 202 L 104 177 L 83 158 L 88 137 L 74 115 L 75 107 L 82 100 L 86 105 L 102 112 L 96 127 L 120 131 L 123 135 L 118 148 L 138 157 L 129 174 L 130 183 L 153 195 L 164 222 L 176 229 L 186 232 L 194 229 L 197 222 L 176 196 L 173 186 L 176 171 L 172 163 L 140 141 L 138 137 L 144 121 L 142 118 L 132 111 L 112 104 L 123 97 L 135 95 L 141 101 L 166 109 L 162 123 L 189 141 L 189 151 L 212 169 L 224 195 L 239 189 L 255 175 L 254 172 L 238 162 L 237 158 L 245 142 L 246 136 L 209 110 L 198 95 L 154 79 L 139 65"/>
</g>
</svg>
