<svg width="256" height="256" xmlns="http://www.w3.org/2000/svg">
<g stroke="black" fill="transparent" stroke-width="4">
<path d="M 49 75 L 55 43 L 53 1 L 62 4 L 84 21 L 95 19 L 138 19 L 151 23 L 172 0 L 178 21 L 180 41 L 192 68 L 203 107 L 204 171 L 197 187 L 181 204 L 166 215 L 150 220 L 88 220 L 54 215 L 37 207 L 28 197 L 23 183 L 21 132 L 32 89 L 42 67 L 46 61 L 51 60"/>
<path d="M 99 91 L 105 65 L 113 61 L 114 66 L 109 87 L 109 106 L 104 86"/>
<path d="M 132 59 L 126 81 L 128 84 L 142 88 L 145 88 L 152 78 L 155 59 L 145 53 L 136 58 L 134 65"/>
<path d="M 74 51 L 70 60 L 68 73 L 80 82 L 84 82 L 90 77 L 97 59 L 93 52 L 83 49 L 79 50 L 74 59"/>
<path d="M 80 63 L 80 65"/>
<path d="M 139 67 L 139 72 L 140 69"/>
<path d="M 37 94 L 21 95 L 12 110 L 3 134 L 0 163 L 2 171 L 13 187 L 16 188 L 19 183 L 37 145 L 39 131 L 39 117 L 34 96 L 25 89"/>
<path d="M 196 82 L 194 82 L 190 90 L 187 107 L 195 183 L 212 162 L 220 138 L 220 103 L 211 83 L 207 83"/>
<path d="M 79 212 L 80 248"/>
<path d="M 137 223 L 134 255"/>
</g>
</svg>
