<svg width="256" height="256" xmlns="http://www.w3.org/2000/svg">
<g stroke="black" fill="transparent" stroke-width="4">
<path d="M 63 0 L 49 6 L 43 17 L 41 37 L 51 51 L 62 56 L 83 57 L 102 45 L 108 35 L 108 24 L 95 8 L 83 1 L 66 0 L 51 14 L 45 29 L 44 42 L 56 55 L 74 58 L 93 48 L 102 36 L 102 24 L 95 15 L 85 8 L 67 7 L 54 18 L 50 30 L 50 40 L 65 55 L 77 58 L 92 53 L 104 44 L 109 28 L 107 23 L 93 13 L 84 9 L 64 9 L 55 19 L 53 34 L 58 44 L 68 51 L 87 53 L 95 48 L 105 37 L 105 29 L 96 17 L 81 9 L 67 9 L 58 18 L 53 28 L 53 41 L 64 54 L 77 59 L 94 49 L 99 41 L 99 30 L 88 22 L 67 20"/>
<path d="M 191 12 L 179 12 L 163 27 L 160 46 L 166 61 L 182 69 L 200 70 L 217 61 L 225 51 L 228 38 L 223 27 L 212 17 L 195 9 L 181 9 L 165 22 L 161 48 L 170 58 L 186 63 L 197 61 L 214 52 L 220 44 L 221 35 L 206 22 L 193 19 L 179 19 L 168 26 L 163 33 L 163 46 L 171 59 L 182 67 L 199 69 L 213 63 L 221 53 L 223 38 L 219 32 L 211 24 L 191 18 L 179 25 L 174 32 L 173 46 L 179 58 L 189 66 L 207 67 L 219 54 L 220 37 L 210 26 L 201 21 L 181 19 L 170 39 L 170 46 L 176 56 L 184 63 L 197 66 L 207 62 L 219 48 L 220 34 L 216 26 L 203 18 L 189 16 L 180 16 L 168 30 L 167 41 L 171 49"/>
<path d="M 103 95 L 171 99 L 124 92 L 99 93 L 99 99 L 113 116 L 136 127 L 153 127 L 171 112 L 175 103 L 144 96 L 107 96 L 101 105 L 109 107 L 174 111 L 159 113 L 143 109 L 118 109 L 112 119 L 137 123 L 161 123 L 137 124 L 135 146 L 127 157 L 98 169 L 49 171 L 16 152 L 7 139 L 2 129 L 0 111 L 9 92"/>
<path d="M 134 156 L 153 166 L 188 173 L 216 173 L 233 163 L 246 151 L 251 141 L 255 119 L 255 81"/>
</g>
</svg>
