<svg width="256" height="256" xmlns="http://www.w3.org/2000/svg">
<g stroke="black" fill="transparent" stroke-width="4">
<path d="M 13 123 L 5 110 L 0 93 L 4 62 L 10 52 L 17 43 L 40 32 L 50 36 L 55 47 L 49 36 L 50 22 L 55 11 L 70 1 L 85 0 L 105 5 L 118 21 L 128 57 L 135 107 L 170 154 L 181 189 L 179 203 L 175 206 L 167 204 L 129 144 L 118 133 L 107 128"/>
<path d="M 58 54 L 54 53 L 53 57 L 68 95 L 64 118 L 60 121 L 23 117 L 17 119 L 14 127"/>
<path d="M 72 42 L 77 54 L 87 59 L 94 52 L 93 43 L 84 38 L 77 42"/>
<path d="M 65 119 L 74 168 L 73 183 L 68 201 L 49 216 L 46 224 L 57 236 L 66 238 L 83 228 L 88 214 L 84 200 L 78 200 L 56 223"/>
<path d="M 99 205 L 91 204 L 78 224 L 74 246 L 86 255 L 107 247 L 111 239 L 111 232 L 101 214 L 92 208 L 77 205"/>
<path d="M 94 215 L 119 209 L 130 199 L 135 185 L 133 166"/>
<path d="M 98 108 L 95 116 L 96 124 L 104 146 L 116 169 L 140 195 L 166 211"/>
</g>
</svg>
