<svg width="256" height="256" xmlns="http://www.w3.org/2000/svg">
<g stroke="black" fill="transparent" stroke-width="4">
<path d="M 63 35 L 2 51 L 18 47 L 65 46 L 62 25 L 63 13 L 79 3 L 96 0 L 119 2 L 144 18 L 156 29 L 161 48 L 161 62 L 133 91 L 152 137 L 155 153 L 154 170 L 138 198 L 119 217 L 107 224 L 68 229 L 44 228 L 22 217 L 4 196 L 0 183 L 2 164 L 11 150 L 65 105 L 76 91 L 72 75 L 61 57 L 61 44 L 64 39"/>
<path d="M 94 24 L 88 25 L 87 29 L 90 27"/>
<path d="M 108 123 L 105 158 L 93 191 L 85 201 L 75 201 L 65 196 L 57 179 L 56 170 L 64 152 L 85 125 L 94 107"/>
<path d="M 29 225 L 22 224 L 4 241 L 48 228 L 38 250 L 38 253 L 50 255 L 78 243 L 89 231 L 91 224"/>
<path d="M 86 111 L 59 122 L 37 139 L 32 150 L 32 179 L 35 191 L 54 199 L 67 199 L 85 194 L 92 186 L 93 180"/>
</g>
</svg>
