<svg width="256" height="256" xmlns="http://www.w3.org/2000/svg">
<g stroke="black" fill="transparent" stroke-width="4">
<path d="M 171 12 L 161 6 L 146 3 L 102 5 L 58 28 L 35 47 L 15 75 L 9 91 L 7 107 L 17 134 L 40 165 L 57 176 L 77 183 L 122 185 L 133 183 L 184 162 L 213 139 L 224 115 L 226 94 L 222 79 L 204 43 L 177 14 L 163 5 L 172 11 L 179 23 L 193 32 L 203 50 L 226 75 L 240 76 L 253 65 L 255 57 L 251 38 L 233 14 L 219 6 L 194 1 L 160 0"/>
<path d="M 96 10 L 82 5 L 43 5 L 23 12 L 1 28 L 0 34 L 4 43 L 23 52 L 41 51 L 70 34"/>
<path d="M 126 103 L 108 92 L 93 89 L 78 94 L 70 104 L 78 130 L 106 144 L 119 144 L 136 137 L 139 132 L 132 110 L 121 104"/>
<path d="M 98 117 L 97 113 L 93 115 L 92 121 L 97 124 L 99 118 L 95 117"/>
<path d="M 114 131 L 109 125 L 108 129 L 112 129 L 110 125 L 109 128"/>
<path d="M 95 50 L 95 50"/>
<path d="M 104 44 L 102 49 L 102 46"/>
<path d="M 158 53 L 154 52 L 153 56 L 154 52 L 155 55"/>
</g>
</svg>
