<svg width="256" height="256" xmlns="http://www.w3.org/2000/svg">
<g stroke="black" fill="transparent" stroke-width="4">
<path d="M 55 64 L 40 80 L 31 102 L 32 119 L 38 125 L 44 127 L 58 125 L 79 115 L 94 100 L 102 87 L 102 69 L 90 58 L 73 59 L 64 65"/>
<path d="M 59 75 L 50 83 L 51 91 L 54 91 L 56 80 L 53 86 L 53 93 L 57 85 L 55 93"/>
<path d="M 75 73 L 74 84 L 77 83 L 80 74 L 76 81 L 77 85 L 80 84 L 81 78 L 78 79"/>
<path d="M 84 51 L 89 41 L 117 15 L 137 2 L 150 1 L 150 5 L 143 14 L 94 60"/>
<path d="M 60 63 L 31 37 L 14 31 L 1 33 L 5 46 L 21 67 L 39 81 L 41 82 L 41 78"/>
<path d="M 88 111 L 136 85 L 175 70 L 201 64 L 234 64 L 245 68 L 254 77 L 255 88 L 251 98 L 240 110 L 224 118 L 196 123 L 148 125 L 66 114"/>
<path d="M 107 126 L 106 145 L 111 156 L 118 148 L 122 139 L 122 128 L 119 125 L 116 127"/>
<path d="M 141 121 L 142 143 L 148 150 L 155 148 L 159 140 L 158 127 L 154 123"/>
<path d="M 189 123 L 193 143 L 198 148 L 203 144 L 205 138 L 205 130 L 199 123"/>
<path d="M 215 115 L 233 136 L 243 139 L 247 134 L 247 127 L 241 117 L 232 113 L 220 113"/>
<path d="M 107 153 L 105 144"/>
<path d="M 114 152 L 116 141"/>
<path d="M 151 147 L 149 135"/>
<path d="M 194 136 L 197 148"/>
<path d="M 240 128 L 247 140"/>
<path d="M 47 114 L 57 115 L 63 107 L 62 113 L 49 117 L 50 114 L 47 113 L 44 116 L 50 113 L 43 116 L 45 113 L 42 113 L 38 119 L 44 116 L 38 122 L 50 114 L 49 117 L 59 113"/>
<path d="M 88 59 L 103 41 L 125 24 L 98 50"/>
<path d="M 45 67 L 11 37 L 48 66 L 44 59 L 32 49 L 26 46 L 28 49 L 42 65"/>
</g>
</svg>
