<svg width="256" height="256" xmlns="http://www.w3.org/2000/svg">
<g stroke="black" fill="transparent" stroke-width="4">
<path d="M 56 51 L 58 70 L 69 85 L 80 91 L 95 92 L 113 85 L 123 73 L 124 59 L 117 51 L 97 45 L 68 45 L 29 53"/>
<path d="M 75 82 L 67 99 L 33 151 L 37 172 L 50 187 L 76 194 L 102 190 L 130 175 L 143 164 L 151 152 L 150 129 L 140 115 L 118 100 L 87 90"/>
<path d="M 146 157 L 203 132 L 220 119 L 225 103 L 220 58 L 222 48 L 241 92 L 255 144 L 253 166 L 247 174 L 238 177 L 146 180"/>
<path d="M 155 139 L 163 158 L 176 167 L 188 169"/>
<path d="M 197 146 L 206 160 L 231 175"/>
<path d="M 228 136 L 252 134"/>
<path d="M 222 97 L 240 91"/>
<path d="M 72 114 L 126 111 L 129 114"/>
<path d="M 60 131 L 58 133 L 61 134 L 138 132"/>
<path d="M 40 147 L 137 151 L 135 154"/>
<path d="M 47 174 L 116 173 L 118 169"/>
<path d="M 0 99 L 64 121"/>
<path d="M 134 107 L 177 89"/>
<path d="M 60 189 L 28 220 L 44 216"/>
<path d="M 106 189 L 118 206 L 142 220"/>
<path d="M 46 40 L 54 0 L 59 19 L 71 36"/>
<path d="M 96 41 L 118 22 L 134 15 L 134 31 L 123 53"/>
<path d="M 66 64 L 45 68 L 44 74 L 56 80 L 73 80 L 79 76"/>
<path d="M 70 56 L 66 53 L 68 50 L 74 49 L 77 51 L 75 57"/>
<path d="M 101 59 L 94 56 L 94 51 L 100 51 L 103 53 L 101 60"/>
<path d="M 73 120 L 135 114 L 118 118"/>
<path d="M 40 138 L 128 136"/>
<path d="M 46 150 L 60 154 L 124 154 L 107 163"/>
<path d="M 42 177 L 59 173 L 104 175"/>
<path d="M 175 139 L 177 161 L 187 171 L 190 165"/>
<path d="M 196 132 L 214 153 L 240 164"/>
<path d="M 225 117 L 232 121 L 245 120"/>
<path d="M 201 101 L 231 93 L 238 88"/>
<path d="M 222 74 L 241 65"/>
</g>
</svg>
