<svg width="256" height="256" xmlns="http://www.w3.org/2000/svg">
<g stroke="black" fill="transparent" stroke-width="4">
<path d="M 93 61 L 83 14 L 86 0 L 116 32 L 123 33 L 140 28 L 160 35 L 173 44 L 193 42 L 211 63 L 219 66 L 224 64 L 230 49 L 230 7 L 244 20 L 254 45 L 254 66 L 246 91"/>
<path d="M 219 79 L 233 88 L 242 102 L 239 108 L 229 113 L 210 117 L 171 119 L 116 102 L 104 104 L 96 110"/>
<path d="M 132 53 L 136 46 L 144 46 L 149 51 L 145 55 L 139 56 L 132 53"/>
<path d="M 94 37 L 57 46 L 45 53 L 0 119"/>
<path d="M 133 106 L 133 127"/>
<path d="M 165 85 L 165 85"/>
</g>
</svg>
