<svg width="256" height="256" xmlns="http://www.w3.org/2000/svg">
<g stroke="black" fill="transparent" stroke-width="4">
<path d="M 88 72 L 45 65 L 18 54 L 0 41 L 32 76 L 56 93 L 74 100 L 104 101"/>
<path d="M 151 67 L 194 62 L 255 44 L 230 72 L 211 87 L 171 105 L 151 108"/>
<path d="M 86 72 L 78 56 L 79 37 L 86 20 L 101 2 L 123 1 L 135 9 L 146 22 L 157 48 L 169 108 L 166 138 L 161 147 L 150 151 L 137 151 L 118 139 L 101 114 L 95 75"/>
<path d="M 104 30 L 105 23 L 96 28 L 93 45 L 101 44 L 104 25 L 97 13 L 93 9 L 90 11"/>
<path d="M 133 27 L 131 17 L 125 17 L 122 23 L 121 38 L 127 50 L 140 53 L 144 40 L 143 25 L 138 18 L 134 17"/>
<path d="M 151 90 L 155 84 L 155 71 L 151 64 L 142 61 L 136 64 L 132 71 L 133 95 L 141 105 L 149 106 L 157 90 L 155 69 L 146 68 L 140 71"/>
<path d="M 104 71 L 102 70 L 98 81 L 102 103 L 108 108 L 113 109 L 120 97 L 121 79 L 116 70 L 108 71 L 102 87"/>
<path d="M 143 126 L 140 119 L 125 117 L 117 125 L 117 143 L 131 149 L 142 145 L 146 140 L 149 119 L 142 113 L 135 113"/>
<path d="M 164 135 L 167 121 L 162 117 L 156 117 L 147 126 L 146 147 L 153 154 L 158 154 L 162 149 L 165 123 L 158 114"/>
<path d="M 118 149 L 117 167 L 122 180 L 147 204 L 160 208 L 166 207 L 176 192 L 179 172 L 160 148 L 144 146"/>
<path d="M 163 176 L 158 173 L 157 180 L 161 181"/>
</g>
</svg>
