<svg width="256" height="256" xmlns="http://www.w3.org/2000/svg">
<g stroke="black" fill="transparent" stroke-width="4">
<path d="M 39 89 L 7 59 L 5 61 L 0 105 L 7 157 L 30 134 L 46 124 L 93 148 L 123 158 L 163 163 L 191 161 L 232 139 L 255 118 L 216 111 L 155 84 L 244 49 L 231 38 L 216 31 L 198 30 L 158 33 L 102 51 L 71 66 L 43 85 L 35 86"/>
<path d="M 242 54 L 240 72 L 230 74 L 220 69 L 207 81 L 195 83 L 190 80 L 184 85 L 178 82 L 187 94 L 205 85 L 210 94 L 225 94 L 228 100 L 243 101 L 250 115"/>
<path d="M 118 50 L 133 1 L 136 0 L 152 34"/>
<path d="M 186 46 L 186 46"/>
<path d="M 189 49 L 190 46 L 187 44 L 196 46 L 197 43 L 195 43 L 192 44 L 195 45"/>
</g>
</svg>
