<svg width="256" height="256" xmlns="http://www.w3.org/2000/svg">
<g stroke="black" fill="transparent" stroke-width="4">
<path d="M 91 27 L 91 27"/>
<path d="M 89 27 L 74 34 L 63 45 L 55 69 L 60 82 L 73 87 L 78 105 L 83 111 L 109 112 L 126 126 L 137 129 L 165 121 L 200 123 L 236 104 L 249 91 L 254 78 L 250 48 L 245 40 L 234 34 L 214 13 L 199 4 L 175 8 L 139 0 L 126 1 L 81 20 L 72 28 L 69 39"/>
<path d="M 78 26 L 78 22 L 73 19 L 53 19 L 25 32 L 11 49 L 7 63 L 7 77 L 13 86 L 26 93 L 43 95 L 55 89 L 62 77 L 56 69"/>
<path d="M 24 42 L 21 49 L 26 47 L 24 44 L 21 48"/>
<path d="M 49 49 L 46 52 L 48 56 L 50 48 L 46 46 L 44 51"/>
<path d="M 38 19 L 27 16 L 8 25 L 0 36 L 26 30"/>
<path d="M 69 29 L 80 31 L 83 41 L 75 47 L 64 46"/>
<path d="M 55 17 L 42 26 L 43 30 L 52 29 L 53 35 L 58 36 L 72 27"/>
<path d="M 105 114 L 100 131 L 99 149 L 100 160 L 106 167 L 114 159 L 119 144 L 121 124 L 118 115"/>
<path d="M 135 124 L 132 143 L 136 154 L 140 155 L 148 139 L 150 124 L 147 115"/>
<path d="M 175 127 L 176 151 L 180 164 L 185 170 L 195 147 L 195 132 L 192 122"/>
<path d="M 212 120 L 209 121 L 208 133 L 213 151 L 220 158 L 228 151 L 229 119 L 218 103"/>
</g>
</svg>
