<svg width="256" height="256" xmlns="http://www.w3.org/2000/svg">
<g stroke="black" fill="transparent" stroke-width="4">
<path d="M 52 155 L 40 148"/>
<path d="M 43 148 L 8 161 L 35 168 L 90 172 L 174 172 L 191 164 L 201 151 L 205 131 L 205 87 L 217 74 L 230 68 L 236 61 L 237 53 L 224 44 L 223 23 L 235 9 L 255 0"/>
<path d="M 205 37 L 196 23 L 195 6 L 200 1 L 221 1"/>
<path d="M 215 38 L 210 35 L 192 37 L 185 43 L 182 60 L 177 60 L 154 34 L 136 19 L 117 12 L 92 11 L 51 18 L 25 34 L 14 47 L 4 76 L 0 112 L 2 122 L 80 150 L 96 158 L 138 162 L 148 155 L 155 146 L 164 130 L 167 118 L 167 98 L 156 65 L 139 49 L 130 45 L 109 42 L 76 44 L 43 59 L 38 68 L 36 84 L 52 105 L 77 116 L 96 116 L 110 97 L 111 89 L 107 84 L 87 80"/>
<path d="M 215 45 L 208 50 L 206 48"/>
</g>
</svg>
