<svg width="256" height="256" xmlns="http://www.w3.org/2000/svg">
<g stroke="black" fill="transparent" stroke-width="4">
<path d="M 80 145 L 76 140 L 71 140 L 61 146 L 56 151 L 55 164 L 66 175 L 75 178 L 83 177 L 90 171 L 96 154 L 95 146 L 87 138"/>
<path d="M 103 153 L 104 158 L 115 162 L 143 163 L 176 153 L 186 143 L 191 131 L 190 105 L 185 91 L 175 78 L 162 69 L 147 64 L 117 64 L 102 67 L 90 73 L 74 92 L 68 113 L 70 125"/>
<path d="M 62 102 L 46 80 L 36 74 L 0 83"/>
<path d="M 77 63 L 68 53 L 61 35 L 46 34 L 34 40"/>
<path d="M 110 57 L 95 15 L 86 11 L 67 12"/>
<path d="M 156 53 L 158 25 L 132 0"/>
<path d="M 208 108 L 209 113 L 217 114 L 255 105 L 246 163"/>
<path d="M 175 156 L 219 191 L 220 196 L 214 230"/>
<path d="M 154 166 L 165 196 L 170 225 L 160 237 L 149 245"/>
<path d="M 131 166 L 127 218 L 118 245"/>
</g>
</svg>
