<svg width="256" height="256" xmlns="http://www.w3.org/2000/svg">
<g stroke="black" fill="transparent" stroke-width="4">
<path d="M 131 167 L 127 143"/>
<path d="M 129 161 L 145 161"/>
<path d="M 174 167 L 174 148"/>
<path d="M 174 169 L 184 169"/>
<path d="M 110 135 L 168 149 L 178 148 L 190 132 L 194 116 L 193 101 L 186 85 L 177 71 L 149 62 L 135 64 L 115 77 L 106 98 L 105 128 L 108 141 L 119 152"/>
<path d="M 119 152 L 95 150 L 71 141 L 38 114 L 34 106 L 37 93 L 41 85 L 57 75 L 55 73 L 0 59 L 27 52 L 62 51"/>
<path d="M 62 51 L 103 51 L 105 57 L 99 72 L 76 92 L 72 109 L 87 119 L 117 121"/>
<path d="M 162 62 L 162 30 L 165 22 L 197 1 L 205 0 L 215 12 L 219 29 L 209 46 L 183 72 L 177 73"/>
<path d="M 213 41 L 246 41 L 252 36 L 254 12 L 246 9 L 231 8 L 220 13"/>
<path d="M 192 90 L 197 83 L 207 80"/>
<path d="M 199 95 L 231 84"/>
<path d="M 194 23 L 199 23 L 197 27 L 192 24"/>
</g>
</svg>
