<svg width="256" height="256" xmlns="http://www.w3.org/2000/svg">
<g stroke="black" fill="transparent" stroke-width="4">
<path d="M 14 35 L 34 13 L 55 2 L 81 0 L 87 3 L 95 13 L 98 27 L 97 50 L 78 101 L 72 132 L 73 163 L 77 170 L 84 174 L 107 176 L 114 173 L 126 161 L 163 109 L 187 91"/>
<path d="M 13 40 L 15 45 L 27 47 L 45 34 L 60 31 L 62 68 L 48 114 L 41 152 L 41 200 L 50 220 L 58 228 L 73 237 L 92 243 L 118 243 L 131 238 L 172 203 L 191 167 L 197 136 L 200 96 L 210 76"/>
<path d="M 127 197 L 177 125"/>
<path d="M 134 206 L 157 183 L 170 154 L 179 124"/>
<path d="M 16 37 L 6 43 L 0 53 L 15 40"/>
<path d="M 47 22 L 50 17"/>
<path d="M 11 255 L 38 228 L 53 224 L 68 225 L 98 240 L 119 244 L 176 230 L 213 231"/>
</g>
</svg>
