<svg width="256" height="256" xmlns="http://www.w3.org/2000/svg">
<g stroke="black" fill="transparent" stroke-width="4">
<path d="M 20 83 L 18 64 L 22 57 L 31 51 L 70 47 L 126 49 L 180 44 L 191 12 L 228 4 L 234 13 L 236 34 L 255 50 L 220 82 L 201 82 L 195 76 L 162 78 L 151 84 L 118 87 L 67 87 L 14 82"/>
<path d="M 34 82 L 18 120 L 20 124 L 34 128 L 39 127 L 44 121 L 51 85 L 56 83"/>
<path d="M 72 88 L 67 116 L 69 123 L 77 125 L 82 112 L 81 84 L 83 82"/>
<path d="M 135 81 L 140 112 L 147 122 L 154 125 L 159 117 L 159 101 L 148 75"/>
<path d="M 160 77 L 172 106 L 181 119 L 187 121 L 189 115 L 189 96 L 185 79 L 181 73"/>
<path d="M 19 53 L 3 40 L 1 34"/>
<path d="M 30 70 L 78 72"/>
<path d="M 59 80 L 100 81"/>
<path d="M 47 59 L 69 57 L 91 60"/>
<path d="M 107 69 L 143 75"/>
<path d="M 122 80 L 150 70"/>
<path d="M 110 57 L 145 60 L 152 63"/>
<path d="M 183 69 L 190 61"/>
<path d="M 225 28 L 226 29"/>
<path d="M 207 33 L 207 33"/>
<path d="M 191 17 L 189 1 L 200 12"/>
<path d="M 209 12 L 215 0 L 222 11"/>
<path d="M 214 58 L 214 61"/>
</g>
</svg>
