<svg width="256" height="256" xmlns="http://www.w3.org/2000/svg">
<g stroke="black" fill="transparent" stroke-width="4">
<path d="M 107 86 L 117 66 L 129 52 L 155 40 L 175 40 L 194 51 L 203 71 L 204 96 L 198 108 L 190 114 L 152 130 L 130 134 L 87 133 L 53 122 L 42 117 L 36 109 L 34 91 L 37 80 L 44 79 L 89 101 L 103 97 L 112 84"/>
<path d="M 34 95 L 22 96 L 10 83 L 8 71 L 13 67 L 40 63 L 46 57 L 56 35 L 67 36 L 70 46 L 42 90"/>
<path d="M 138 46 L 136 31 L 128 22 L 92 20 L 88 18 L 89 13 L 97 10 L 147 11 L 162 1 L 171 0 L 177 6 L 178 16 L 158 33 L 156 43 L 159 50"/>
<path d="M 178 54 L 183 55 L 186 62 L 186 73 L 182 77 L 171 76 L 167 67 L 169 57 L 180 53"/>
<path d="M 2 121 L 16 117 L 73 119"/>
<path d="M 48 120 L 72 117 L 125 103 L 146 102 L 207 108 L 250 101"/>
<path d="M 0 141 L 41 138 L 120 112 L 146 109 L 171 110 L 232 125 L 255 127"/>
<path d="M 0 134 L 0 134"/>
<path d="M 0 143 L 8 148 L 25 146 L 63 129 L 87 123 L 166 125 L 199 122 L 239 130 L 255 128"/>
<path d="M 6 148 L 35 150 L 59 141 L 112 134 L 244 132"/>
<path d="M 173 66 L 177 64 L 179 68 L 175 67 L 174 64"/>
<path d="M 32 146 L 18 147 L 29 145 L 56 148 L 70 138 L 111 131 L 147 119 L 182 121 L 220 116 L 254 122"/>
<path d="M 158 90 L 171 96 L 190 96 L 211 90"/>
<path d="M 22 146 L 12 147 L 12 149 L 40 154 L 74 139 L 91 140 L 122 146 L 155 134 L 206 137 L 230 130 L 237 130 L 253 138"/>
<path d="M 100 147 L 125 149 L 206 134 L 255 129"/>
<path d="M 135 17 L 137 15 L 144 20 L 148 46"/>
<path d="M 170 11 L 152 38"/>
</g>
</svg>
