<svg width="256" height="256" xmlns="http://www.w3.org/2000/svg">
<g stroke="black" fill="transparent" stroke-width="4">
<path d="M 46 42 L 43 50 L 5 89 L 0 107 L 17 113 L 51 110 L 56 124 L 57 215 L 67 217 L 83 207 L 79 161 L 80 155 L 89 147 L 114 148 L 119 155 L 120 175 L 114 206 L 144 205 L 148 199 L 150 150 L 154 145 L 164 141 L 176 141 L 184 150 L 187 168 L 185 205 L 202 204 L 205 200 L 210 180 L 208 154 L 214 149 L 219 150 L 226 170 L 228 207 L 242 208 L 252 200 L 253 192 L 251 93 L 248 80 L 237 75 L 203 75 L 97 81 L 85 34 L 63 0 L 48 42"/>
<path d="M 91 35 L 97 30 L 133 13 L 98 42 L 130 34 L 101 61 L 132 59"/>
<path d="M 18 111 L 82 56 L 95 49"/>
<path d="M 74 143 L 96 103 L 115 80 L 121 75 L 128 74"/>
<path d="M 95 152 L 101 140 L 121 115 L 163 78 L 173 72"/>
<path d="M 142 156 L 150 143 L 191 94 L 207 81 L 212 79 L 215 83"/>
<path d="M 194 145 L 195 139 L 225 106 L 255 86"/>
<path d="M 225 157 L 244 131 L 255 111"/>
<path d="M 190 192 L 192 181 L 211 161"/>
<path d="M 238 184 L 247 177"/>
</g>
</svg>
