<svg width="256" height="256" xmlns="http://www.w3.org/2000/svg">
<g stroke="black" fill="transparent" stroke-width="4">
<path d="M 66 42 L 49 44 L 35 54 L 28 80 L 29 99 L 34 107 L 44 114 L 63 119 L 145 127 L 149 122 L 150 113 L 148 106 L 137 95 L 59 41"/>
<path d="M 203 74 L 193 57 L 188 54 L 176 64 L 158 94 L 148 120 L 145 136 L 147 153 L 153 155 L 240 155 L 247 154 L 252 149 L 255 112 L 243 81 L 230 68 L 208 62 L 189 52"/>
<path d="M 177 94 L 177 94"/>
<path d="M 189 96 L 185 100"/>
<path d="M 216 102 L 216 102"/>
<path d="M 216 99 L 212 108"/>
<path d="M 163 104 L 171 114 L 181 120 L 211 129 L 234 129 L 239 119"/>
<path d="M 45 108 L 0 154"/>
<path d="M 82 116 L 63 147 L 58 178"/>
<path d="M 124 130 L 121 176"/>
<path d="M 76 51 L 54 1"/>
<path d="M 91 63 L 93 32 L 88 0"/>
<path d="M 126 84 L 112 3"/>
</g>
</svg>
