<svg width="256" height="256" xmlns="http://www.w3.org/2000/svg">
<g stroke="black" fill="transparent" stroke-width="4">
<path d="M 104 52 L 91 41 L 81 10 L 92 12 L 109 34 L 111 51 L 110 54 L 105 54 L 122 45 L 142 48 L 137 30 L 137 5 L 140 0 L 149 17 L 152 37 L 142 47 L 150 54 L 150 64 L 131 73 L 118 74 L 106 64 L 104 51"/>
<path d="M 121 74 L 117 100 L 120 128 L 127 133 L 149 130 L 164 114 L 168 91 L 159 70 L 149 62"/>
<path d="M 168 88 L 191 78 L 220 54 L 239 30 L 245 9 L 254 42 L 255 62 L 241 94 L 222 113 L 210 116 L 179 117 L 163 113"/>
<path d="M 118 92 L 83 91 L 45 77 L 21 58 L 10 45 L 0 26 L 0 29 L 29 84 L 55 113 L 86 122 L 109 122 L 124 118"/>
<path d="M 116 59 L 116 59"/>
</g>
</svg>
