<svg width="256" height="256" xmlns="http://www.w3.org/2000/svg">
<g stroke="black" fill="transparent" stroke-width="4">
<path d="M 80 15 L 66 17 L 46 25 L 23 45 L 2 72 L 1 92 L 14 104 L 35 110 L 66 104 L 76 108 L 79 116 L 87 189 L 93 193 L 108 194 L 132 188 L 142 179 L 150 148 L 151 117 L 161 106 L 172 102 L 177 105 L 180 115 L 179 174 L 189 179 L 206 179 L 241 165 L 249 151 L 250 130 L 246 71 L 242 52 L 227 20 L 210 7 L 195 3 L 129 1 L 45 19"/>
<path d="M 48 54 L 41 60"/>
<path d="M 39 29 L 33 15 L 40 4 L 49 0 L 60 11"/>
<path d="M 28 35 L 21 22 L 25 18 L 35 15"/>
<path d="M 229 13 L 240 6 L 255 4 L 248 20"/>
</g>
</svg>
