<svg width="256" height="256" xmlns="http://www.w3.org/2000/svg">
<g stroke="black" fill="transparent" stroke-width="4">
<path d="M 135 104 L 127 98 L 114 96 L 78 96 L 51 107 L 18 129 L 12 137 L 0 178 L 0 206 L 8 222 L 17 230 L 56 251 L 82 255 L 115 255 L 139 254 L 159 243 L 190 199 L 195 184 L 169 141 L 146 117 L 128 104"/>
<path d="M 173 139 L 177 133 L 191 125 L 191 133 L 184 148 L 191 133 L 185 138 L 185 131"/>
<path d="M 125 105 L 134 232"/>
<path d="M 131 105 L 126 128 L 124 167 L 129 246 L 121 232 L 118 216 L 108 115 L 109 168 L 120 235 L 114 203 L 113 119 L 116 187 L 121 228"/>
<path d="M 46 102 L 52 128 L 60 232 L 66 251 L 68 239 L 62 109 L 64 195 L 73 239 L 73 202 L 61 106 L 72 210"/>
<path d="M 65 100 L 58 92 L 48 72 L 44 35 L 45 24 L 59 0 L 83 5 L 89 12 L 93 35 L 93 70 L 89 93 L 89 67 L 94 52 L 132 14 L 141 11 L 153 12 L 166 32 L 159 56 L 154 63 L 122 96"/>
<path d="M 36 154 L 37 163 L 39 157"/>
</g>
</svg>
