<svg width="256" height="256" xmlns="http://www.w3.org/2000/svg">
<g stroke="black" fill="transparent" stroke-width="4">
<path d="M 0 103 L 12 107 L 33 96 L 45 86 L 72 50 L 125 10 L 146 3 L 176 0 L 190 2 L 204 8 L 210 22 L 215 69 L 211 115 L 192 149 L 184 157 L 174 162 L 128 180 L 104 184 L 86 183 L 52 175 L 33 162 L 0 125"/>
<path d="M 122 198 L 118 197 L 121 255"/>
<path d="M 155 190 L 152 195 L 159 240"/>
<path d="M 123 87 L 80 72 L 47 40 L 41 40 L 37 73 L 52 110 L 81 127 L 106 131"/>
<path d="M 210 39 L 247 42"/>
</g>
</svg>
