<svg width="256" height="256" xmlns="http://www.w3.org/2000/svg">
<g stroke="black" fill="transparent" stroke-width="4">
<path d="M 107 73 L 99 53 L 83 29 L 58 12 L 40 8 L 26 13 L 12 27 L 2 44 L 0 62 L 3 78 L 17 100 L 32 112 L 60 127 L 64 132 L 60 146 L 33 181 L 27 203 L 27 213 L 34 227 L 44 236 L 52 238 L 59 236 L 86 217 L 99 201 L 112 177 L 123 221 L 135 230 L 141 226 L 148 213 L 150 196 L 151 120 L 156 71 L 154 61 L 148 55 L 133 49 L 117 64 L 113 72 L 108 93 L 120 176"/>
<path d="M 169 68 L 177 35 L 190 17 L 214 1 L 228 0 L 243 5 L 254 18 L 255 30 L 247 54 L 219 91 L 208 120 L 218 150 L 232 172 L 240 191 L 242 203 L 234 229 L 222 239 L 211 243 L 193 241 L 178 221 L 165 183"/>
<path d="M 135 41 L 115 1"/>
<path d="M 156 44 L 165 12"/>
</g>
</svg>
