<svg width="256" height="256" xmlns="http://www.w3.org/2000/svg">
<g stroke="black" fill="transparent" stroke-width="4">
<path d="M 184 97 L 178 104 L 156 105 L 146 102 L 137 93 L 134 72 L 150 30 L 149 21 L 145 16 L 131 14 L 116 24 L 86 67 L 74 75 L 65 71 L 60 62 L 58 3 L 54 0 L 46 1 L 34 10 L 26 29 L 12 83 L 14 109 L 25 132 L 37 143 L 26 162 L 26 170 L 45 174 L 55 179 L 56 150 L 59 142 L 87 157 L 119 156 L 108 185 L 110 200 L 152 201 L 159 151 L 165 150 L 190 160 L 221 158 L 244 143 L 251 133 L 255 121 L 253 107 L 248 98 L 241 90 L 230 84 L 194 94 L 176 106"/>
<path d="M 223 116 L 222 116"/>
<path d="M 208 134 L 232 148 L 235 157"/>
<path d="M 55 177 L 65 191 L 32 172 L 25 174"/>
<path d="M 149 201 L 166 216 L 167 218 L 165 219 L 109 206 L 103 203"/>
<path d="M 13 95 L 10 86 L 5 86 L 0 104 L 2 116 L 12 133 L 10 144"/>
<path d="M 2 165 L 19 150 L 18 146 L 11 144 L 4 150 L 0 165"/>
<path d="M 224 147 L 222 139 L 214 132 L 208 131 L 206 135 L 209 141 L 224 149 L 227 149 L 223 141 L 216 138 L 214 143 L 217 149 L 225 154 L 230 149 L 225 141 L 217 137 L 212 139 L 214 144 L 222 148 L 226 144 L 225 140"/>
<path d="M 238 121 L 230 112 L 226 112 L 223 117 L 230 123 L 234 121 L 232 113 L 225 110 L 222 112 L 227 119 L 233 117 L 228 115 L 225 119 L 232 119"/>
</g>
</svg>
