<svg width="256" height="256" xmlns="http://www.w3.org/2000/svg">
<g stroke="black" fill="transparent" stroke-width="4">
<path d="M 60 57 L 60 34 L 69 0 L 89 35 L 95 36 L 119 30 L 150 30 L 158 38 L 185 11 L 203 1 L 213 16 L 215 51 L 209 74 L 208 102 L 197 125 L 173 155 L 156 167 L 124 178 L 82 183 L 64 173 L 52 162 L 39 141 L 31 118 L 31 79 L 35 69 L 50 44 L 62 45"/>
<path d="M 104 70 L 101 76 L 103 86 L 106 86"/>
<path d="M 138 65 L 142 84"/>
<path d="M 103 122 L 133 118 L 134 123 L 126 140 L 121 143 L 115 138 L 106 124"/>
<path d="M 104 126 L 96 122 L 65 122 L 47 125 L 8 145 L 0 152 L 2 155"/>
<path d="M 101 122 L 83 126 L 44 149 L 16 171 L 21 174"/>
<path d="M 101 135 L 91 139 L 49 170 L 23 195 L 22 202"/>
<path d="M 168 117 L 193 112 L 228 111 L 233 113 L 236 119"/>
<path d="M 148 134 L 232 131 L 246 135 L 245 139 L 236 140"/>
<path d="M 171 134 L 229 159 L 255 177"/>
</g>
</svg>
