<svg width="256" height="256" xmlns="http://www.w3.org/2000/svg">
<g stroke="black" fill="transparent" stroke-width="4">
<path d="M 169 36 L 171 28 L 164 21 L 145 19 L 131 25 L 114 47 L 112 62 L 114 70 L 127 83 L 145 90 L 164 90 L 174 85 L 185 67 L 187 46 L 181 33 L 164 29"/>
<path d="M 181 55 L 175 53 L 167 58 L 160 72 L 166 79 L 182 78"/>
<path d="M 149 33 L 145 33 L 143 37 L 143 42 L 149 43 L 151 40 L 151 33 L 145 30 L 142 34 L 143 44 L 148 45 L 151 42 L 150 35 L 146 33 L 144 39 L 148 37 L 146 35 L 148 39"/>
<path d="M 112 64 L 99 58 L 83 56 L 69 56 L 43 62 L 28 72 L 17 88 L 15 103 L 19 111 L 36 119 L 74 120 L 116 108 L 132 98 L 138 90"/>
<path d="M 30 81 L 26 83 L 28 88 L 34 85 L 32 80 L 30 85 L 33 83"/>
<path d="M 78 95 L 68 100 L 68 105 L 75 106 L 79 98 L 76 94 L 71 97"/>
<path d="M 101 114 L 100 105 L 109 94 L 116 94 L 124 103"/>
<path d="M 120 98 L 110 96 L 103 103 L 102 107 L 105 109 L 116 100 L 111 107 L 113 105 L 114 109"/>
<path d="M 23 107 L 22 103 L 27 98 L 37 97 L 49 107 L 56 119"/>
<path d="M 27 108 L 29 118 L 33 117 L 42 104 L 46 115 L 50 119 L 55 118"/>
<path d="M 55 62 L 62 70 L 74 73 L 83 69 L 90 59"/>
<path d="M 65 63 L 63 64 L 68 66 L 74 60 L 79 69 L 87 65"/>
<path d="M 11 90 L 4 79 L 4 64"/>
<path d="M 4 57 L 0 68 L 12 55 L 8 66"/>
<path d="M 12 86 L 19 95"/>
<path d="M 26 115 L 30 150 L 49 151 L 44 121"/>
<path d="M 28 146 L 28 146"/>
<path d="M 82 119 L 87 145 L 100 148 L 102 133 L 94 115"/>
<path d="M 114 111 L 125 133 L 139 131 L 139 126 L 124 104"/>
<path d="M 195 27 L 196 1 L 203 27 L 215 4 L 214 32"/>
<path d="M 236 10 L 231 9 L 224 21 L 223 29 L 228 32 L 233 25 L 232 11 L 230 10"/>
<path d="M 249 14 L 247 8 L 238 14 L 234 30 L 242 37 L 251 36 L 255 24 L 255 18 L 244 9"/>
</g>
</svg>
