<svg width="256" height="256" xmlns="http://www.w3.org/2000/svg">
<g stroke="black" fill="transparent" stroke-width="4">
<path d="M 53 81 L 75 60 L 89 51 L 115 45 L 138 45 L 165 49 L 181 56 L 192 66 L 206 92"/>
<path d="M 56 83 L 56 83"/>
<path d="M 51 83 L 82 104 L 129 115 L 171 113 L 205 96"/>
<path d="M 195 64 L 220 63 L 234 66 L 243 75 L 255 94"/>
<path d="M 192 96 L 222 124 L 231 143"/>
<path d="M 144 107 L 147 159 L 154 187"/>
<path d="M 98 108 L 88 111 L 74 124 L 52 148 L 45 163"/>
<path d="M 59 89 L 25 98 L 11 107 L 2 118 L 5 119"/>
<path d="M 63 72 L 42 54 L 10 43"/>
<path d="M 86 51 L 104 20 L 124 0"/>
<path d="M 157 49 L 175 24 L 191 13 L 202 12"/>
<path d="M 12 49 L 63 81"/>
<path d="M 2 116 L 0 122 L 29 108 L 64 97"/>
<path d="M 42 165 L 61 154 L 101 120 L 113 113"/>
<path d="M 156 114 L 170 141 L 179 171 L 157 183"/>
<path d="M 196 93 L 205 92 L 227 109 L 238 126 L 239 132 L 235 141"/>
</g>
</svg>
