<svg width="256" height="256" xmlns="http://www.w3.org/2000/svg">
<g stroke="black" fill="transparent" stroke-width="4">
<path d="M 198 21 L 248 30 L 242 38 L 217 50 L 249 62 L 255 67 L 251 69 L 218 75 L 199 70 L 98 57 L 52 57 L 31 52 L 40 4 L 142 20 L 191 22"/>
<path d="M 34 30 L 0 35"/>
<path d="M 221 47 L 225 53 L 241 38 L 242 44 L 250 33 L 253 31 L 254 34"/>
<path d="M 227 47 L 229 54 L 241 50 L 242 56 L 251 57 L 252 64"/>
<path d="M 215 29 L 215 29"/>
<path d="M 217 31 L 210 30 L 215 30"/>
<path d="M 215 30 L 215 32"/>
<path d="M 62 24 L 73 0 L 75 36 L 82 25 L 91 19 L 93 36 L 110 13 L 111 30 L 122 25 L 131 39 L 164 24 L 166 33 L 182 28 L 187 34 L 201 31 L 206 49 L 164 86"/>
<path d="M 201 72 L 217 101 L 209 101"/>
<path d="M 202 74 L 189 98 L 181 96"/>
<path d="M 47 55 L 34 80"/>
<path d="M 50 51 L 65 93"/>
</g>
</svg>
