<svg width="256" height="256" xmlns="http://www.w3.org/2000/svg">
<g stroke="black" fill="transparent" stroke-width="4">
<path d="M 68 35 L 84 32 L 101 33 L 108 7 L 115 0 L 126 16 L 129 35"/>
<path d="M 77 22 L 59 2 L 53 0 L 49 3 L 43 19 L 44 49"/>
<path d="M 41 51 L 37 57 L 3 76 L 0 92 L 6 112 L 16 118 L 51 120 L 77 113 L 97 104 L 91 116 L 84 122 L 66 130 L 40 132 L 34 138 L 39 147 L 54 153 L 96 142"/>
<path d="M 22 88 L 26 87 L 21 88 L 23 84"/>
<path d="M 87 61 L 85 65"/>
<path d="M 131 39 L 170 111 L 178 137"/>
<path d="M 168 116 L 119 142 L 93 145 L 86 153 L 95 155 L 102 153 L 170 124"/>
<path d="M 85 161 L 78 176 L 76 216"/>
<path d="M 176 136 L 210 166 L 228 188 L 240 228 L 242 255"/>
</g>
</svg>
