<svg width="256" height="256" xmlns="http://www.w3.org/2000/svg">
<g stroke="black" fill="transparent" stroke-width="4">
<path d="M 163 28 L 149 26 L 131 41 L 92 116 L 77 131 L 44 141 L 9 127 L 2 126 L 0 129 L 2 138 L 14 154 L 49 167 L 73 167 L 92 163 L 111 155 L 112 168 L 109 191 L 117 185 L 127 166 L 142 191 L 168 123 L 169 99 L 179 118 L 183 113 L 184 102 L 190 112 L 199 118 L 205 118 L 211 110 L 210 100 L 204 93 L 183 80 L 178 73 L 178 65 L 182 62 L 197 64 L 224 58 L 247 43 L 255 29 L 252 18 L 243 8 L 232 3 L 208 0 L 155 16 L 142 32"/>
<path d="M 129 80 L 111 56 L 91 53 L 89 60 L 111 87 L 94 79 L 68 78 L 71 87 L 97 103 L 64 102 L 58 104 L 56 108 L 64 117 L 95 128 L 115 132 L 122 127"/>
<path d="M 214 14 L 199 15 L 197 18 L 206 20"/>
</g>
</svg>
