<svg width="256" height="256" xmlns="http://www.w3.org/2000/svg">
<g stroke="black" fill="transparent" stroke-width="4">
<path d="M 80 97 L 66 96 L 55 109 L 45 156 L 39 171 L 16 178 L 0 174 L 12 158 L 28 144 L 39 117 L 42 88 L 59 79 L 76 79"/>
<path d="M 80 79 L 80 60 L 88 36 L 96 24 L 114 11 L 140 1 L 160 0 L 195 12 L 230 41 L 247 65 L 255 114 L 251 160 L 246 176 L 219 182 L 226 153 L 224 128 L 195 140 L 91 142 L 88 178 L 60 178 L 75 135 L 77 91"/>
<path d="M 128 62 L 122 63 L 122 92 L 122 64 L 123 86 L 126 61"/>
</g>
</svg>
