<svg width="256" height="256" xmlns="http://www.w3.org/2000/svg">
<g stroke="black" fill="transparent" stroke-width="4">
<path d="M 54 14 L 44 6 L 20 0 L 7 8 L 0 24 L 5 42 L 9 34 L 21 28 L 34 30 L 49 41 L 57 69 L 57 81 L 47 105 L 48 120 L 54 130"/>
<path d="M 51 12 L 61 14 L 67 20 L 76 34 L 79 45 L 77 63 L 68 90 L 69 112 L 93 117 L 114 109 L 120 110 L 122 115 L 123 103 L 132 96 L 144 92 L 174 91 L 184 95 L 195 109 L 202 133 L 196 148 L 183 157 L 142 164 L 106 164 L 54 154 L 47 141 L 46 121 L 48 120"/>
<path d="M 131 165 L 137 201 L 137 243 L 123 255"/>
<path d="M 136 244 L 138 253 L 135 253"/>
<path d="M 134 243 L 129 247"/>
<path d="M 117 165 L 117 170"/>
</g>
</svg>
