<svg width="256" height="256" xmlns="http://www.w3.org/2000/svg">
<g stroke="black" fill="transparent" stroke-width="4">
<path d="M 121 217 L 81 217 L 60 208 L 46 199 L 14 171 L 3 147 L 0 124 L 1 76 L 14 60 L 40 43 L 44 14 L 63 0 L 77 4 L 80 10 L 87 12 L 95 31 L 115 26 L 144 26 L 168 36 L 174 36 L 176 22 L 182 10 L 195 3 L 215 1 L 222 7 L 229 32 L 226 39 L 215 45 L 235 65 L 245 84 L 255 114 L 255 146 L 242 179 L 226 195 L 213 203 L 177 216 L 109 217"/>
<path d="M 51 208 L 22 226 L 31 224 L 42 215 L 59 217 L 64 211 L 64 205"/>
<path d="M 189 213 L 197 213 L 221 236 L 210 216 L 216 214 L 231 222 L 214 204"/>
<path d="M 196 20 L 196 20"/>
<path d="M 68 31 L 62 31 L 71 32 L 71 24"/>
<path d="M 194 28 L 200 33 L 192 30"/>
<path d="M 43 136 L 74 157 L 141 172 L 180 171 L 194 162 L 204 142"/>
</g>
</svg>
