<svg width="256" height="256" xmlns="http://www.w3.org/2000/svg">
<g stroke="black" fill="transparent" stroke-width="4">
<path d="M 130 130 L 70 125 L 46 131 L 23 146 L 13 162 L 2 203 L 1 245 L 6 255 L 12 253 L 22 229 L 26 182"/>
<path d="M 21 235 L 35 243 L 44 242 L 49 238 L 52 228 L 50 185"/>
<path d="M 52 188 L 110 182"/>
<path d="M 101 184 L 107 235 L 111 242 L 115 242 L 122 223 L 122 204 L 115 179"/>
<path d="M 120 211 L 123 235 L 128 242 L 139 244 L 148 235 L 149 210 L 134 176"/>
<path d="M 129 129 L 138 109 L 139 38 L 145 4 L 155 0 L 170 3 L 183 10 L 191 21 L 169 26 L 159 93 L 159 158 L 153 168"/>
</g>
</svg>
