<svg width="256" height="256" xmlns="http://www.w3.org/2000/svg">
<g stroke="black" fill="transparent" stroke-width="4">
<path d="M 75 106 L 61 104 L 59 108 L 60 113 L 72 119"/>
<path d="M 89 109 L 90 104 L 142 103"/>
<path d="M 148 101 L 146 97 L 151 93 L 167 90 L 169 101 L 165 107 L 157 110"/>
<path d="M 77 125 L 73 129 L 73 134 L 92 158 L 105 169 L 119 170 L 146 138 L 160 107"/>
<path d="M 104 167 L 98 181 L 101 185 L 107 187 L 119 185 L 124 178 L 124 169 L 114 168"/>
<path d="M 125 38 L 141 31 L 178 25 L 182 27 L 182 41 L 213 50 L 222 58 L 222 64 L 217 70 L 191 88 L 223 105 L 231 113 L 234 121 L 234 126 L 220 136 L 196 149 L 195 155 L 223 167 L 232 180 L 232 189 L 228 195 L 213 208 L 207 210"/>
<path d="M 124 37 L 121 31 L 121 3 L 112 0 L 107 14 L 107 31 L 101 32 L 85 20 L 65 20 L 63 26 L 72 40 L 53 33 L 37 33 L 31 37 L 31 45 L 36 52 L 46 57 L 24 60 L 12 67 L 1 80 L 0 85 L 21 87 L 20 99 L 9 129 L 42 134 L 44 155 L 37 178 L 41 180 L 44 187 L 45 208 L 51 212 L 72 210 L 79 234 L 97 221 L 106 234 L 110 236 L 116 236 L 131 222 L 137 221 L 156 233 L 173 230 L 199 231 L 210 223 L 215 210"/>
<path d="M 61 211 L 59 235 L 65 246 L 68 248 L 73 248 L 76 243 L 81 218"/>
<path d="M 169 230 L 179 253 L 188 254 L 195 241 L 199 215"/>
<path d="M 100 128 L 100 128"/>
<path d="M 126 121 L 132 121 L 132 128"/>
<path d="M 96 121 L 94 125"/>
</g>
</svg>
