<svg width="256" height="256" xmlns="http://www.w3.org/2000/svg">
<g stroke="black" fill="transparent" stroke-width="4">
<path d="M 51 8 L 35 9 L 22 18 L 11 27 L 0 50 L 4 62 L 12 66 L 33 61 L 50 53"/>
<path d="M 52 9 L 60 1 L 70 2 L 69 11 L 58 17"/>
<path d="M 62 12 L 62 12"/>
<path d="M 28 11 L 28 3 L 33 2 L 32 8"/>
<path d="M 31 2 L 34 4"/>
<path d="M 61 19 L 91 109"/>
<path d="M 41 60 L 53 114"/>
<path d="M 64 20 L 88 10"/>
<path d="M 71 30 L 82 24"/>
<path d="M 72 43 L 86 34"/>
<path d="M 73 51 L 92 41"/>
<path d="M 73 61 L 97 45"/>
<path d="M 74 70 L 95 60"/>
<path d="M 85 82 L 105 68"/>
<path d="M 53 108 L 31 158 L 29 206"/>
<path d="M 62 134 L 55 139 L 48 166 L 52 196"/>
<path d="M 29 204 L 34 207 L 48 205"/>
<path d="M 34 200 L 31 204 L 29 217 L 39 219 L 48 219 L 50 212 L 54 214 L 53 202"/>
<path d="M 62 136 L 73 135 L 83 190 L 93 211"/>
<path d="M 97 150 L 109 195"/>
<path d="M 90 210 L 107 207"/>
<path d="M 90 209 L 94 220 L 115 219 L 110 196"/>
<path d="M 90 104 L 102 101 L 128 100 L 144 102 L 169 114"/>
<path d="M 93 150 L 141 146 L 151 184 L 169 202"/>
<path d="M 176 139 L 177 161 L 182 176 L 195 193"/>
<path d="M 171 199 L 172 215 L 176 218 L 194 216 L 205 208 L 206 198 L 179 200"/>
<path d="M 108 152 L 119 186"/>
<path d="M 133 142 L 131 157 L 139 183"/>
<path d="M 117 187 L 139 185 L 143 199 L 136 205 L 120 200 L 118 197 L 124 185"/>
<path d="M 167 116 L 167 116"/>
<path d="M 172 119 L 179 107 L 196 96 L 223 99 L 232 114"/>
<path d="M 183 109 L 210 93 L 229 90 L 251 120"/>
<path d="M 163 117 L 189 107 L 229 117 L 239 140"/>
<path d="M 182 102 L 235 119 L 255 148 L 253 156"/>
<path d="M 171 109 L 185 111 L 210 119 L 251 158"/>
<path d="M 183 116 L 191 115 L 230 142 L 233 167 L 229 178"/>
<path d="M 173 120 L 188 121 L 232 156 L 237 185 L 233 196"/>
<path d="M 184 118 L 190 119 L 215 138 L 225 155 L 223 177 L 219 184"/>
<path d="M 161 113 L 168 119 L 172 133 L 172 153"/>
</g>
</svg>
