<svg width="256" height="256" xmlns="http://www.w3.org/2000/svg">
<g stroke="black" fill="transparent" stroke-width="4">
<path d="M 3 38 L 0 32 L 1 22 L 22 24 L 39 18 L 45 14 L 53 0 L 66 22 L 71 49 L 81 82 L 89 97 L 104 113 L 134 124 L 183 135 L 255 139 L 206 156 L 167 159 L 150 156 L 81 128 L 84 154"/>
<path d="M 80 129 L 53 127 L 45 148"/>
<path d="M 51 124 L 37 118 L 30 103 L 37 68 L 38 44 L 32 38 L 9 38"/>
<path d="M 54 56 L 46 77 L 53 79"/>
<path d="M 8 38 L 2 36 L 12 37"/>
<path d="M 45 23 L 43 24"/>
<path d="M 34 77 L 15 78 L 23 107 L 32 113"/>
</g>
</svg>
