<svg width="256" height="256" xmlns="http://www.w3.org/2000/svg">
<g stroke="black" fill="transparent" stroke-width="4">
<path d="M 73 137 L 65 141 L 61 146 L 62 157 L 68 163 L 77 165 L 109 160 L 148 169 L 155 164 L 158 153 L 157 145 L 151 137 L 99 135 L 76 139"/>
<path d="M 93 163 L 99 180 L 128 171"/>
<path d="M 64 81 L 86 98 L 87 103 L 83 105 L 75 96"/>
<path d="M 141 75 L 118 94 L 117 98 L 123 104 L 123 95 L 120 89"/>
<path d="M 129 197 L 107 200 L 87 198 L 72 192 L 62 182 L 52 163 L 48 139 L 48 112 L 55 87 L 61 78 L 73 69 L 106 61 L 129 61 L 142 65 L 170 86 L 182 107 L 186 122 L 185 152 L 178 166 L 162 182 L 146 191 L 127 195"/>
<path d="M 78 24 L 74 30 L 60 38 L 42 40 L 37 51 L 25 66 L 8 77 L 25 92 L 28 112 L 14 138 L 0 149 L 14 160 L 26 176 L 21 197 L 15 206 L 50 216 L 55 224 L 52 238 L 107 238 L 126 247 L 173 225 L 202 223 L 207 227 L 207 231 L 206 226 L 215 207 L 237 194 L 232 189 L 228 171 L 237 151 L 255 131 L 238 110 L 232 89 L 239 55 L 211 62 L 187 59 L 172 51 L 170 37 L 176 14 L 147 33 L 138 35 L 122 32 L 115 23 L 110 0 L 88 6"/>
<path d="M 40 72 L 25 88 L 13 96 L 14 55 L 48 73"/>
<path d="M 159 53 L 164 65 L 179 84"/>
</g>
</svg>
