<svg width="256" height="256" xmlns="http://www.w3.org/2000/svg">
<g stroke="black" fill="transparent" stroke-width="4">
<path d="M 85 60 L 85 76 L 76 91 L 79 98 L 90 106 L 116 113 L 132 108 L 138 102 L 138 75 L 129 63 L 86 60"/>
<path d="M 75 102 L 79 104 L 75 122 L 81 133 L 89 141 L 114 150 L 124 150 L 133 142 L 136 123 L 133 114"/>
<path d="M 89 141 L 82 142 L 76 147 L 75 162 L 83 167 L 115 171 L 123 159 L 124 150"/>
<path d="M 75 171 L 60 185 L 58 191 L 63 197 L 88 198 L 110 191 L 117 166"/>
<path d="M 58 200 L 41 203 L 18 222 L 17 255 L 38 252 L 75 238 L 88 238 L 97 245 L 116 245 L 121 220 L 110 185"/>
<path d="M 86 51 L 88 3 L 93 0 L 115 1 L 125 7 L 132 19 L 138 48 L 138 61 L 136 67 L 134 64"/>
<path d="M 83 100 L 53 94 L 44 83 L 30 52 L 39 31 L 34 10 L 16 47 L 12 36 L 2 39 L 0 58 L 4 67 L 34 107 L 58 124 L 86 121 L 102 112"/>
<path d="M 144 74 L 195 52 L 203 43 L 212 56 L 221 61 L 233 62 L 244 69 L 244 78 L 221 90 L 201 97 L 161 102"/>
</g>
</svg>
