<svg width="256" height="256" xmlns="http://www.w3.org/2000/svg">
<g stroke="black" fill="transparent" stroke-width="4">
<path d="M 100 2 L 80 0 L 68 6 L 64 18 L 63 37 L 73 49 L 83 51 L 99 50 L 112 40 L 116 31 L 115 17 L 109 3 L 101 1"/>
<path d="M 65 8 L 50 8 L 52 18 L 61 21"/>
<path d="M 114 10 L 138 10 L 140 12 L 136 22 L 118 27"/>
<path d="M 79 18 L 82 19"/>
<path d="M 91 19 L 91 21"/>
<path d="M 78 27 L 82 31 L 96 31"/>
<path d="M 83 51 L 65 57 L 52 66 L 46 87 L 46 104 L 52 112 L 61 115 L 94 113 L 104 109 L 113 98 L 116 83 L 108 58 L 91 50"/>
<path d="M 112 70 L 156 70"/>
<path d="M 158 73 L 155 70 L 153 59 L 157 56 L 156 69 L 162 71 L 156 71 L 153 69 L 160 57"/>
<path d="M 49 66 L 0 72"/>
<path d="M 62 116 L 61 136 L 48 133"/>
<path d="M 95 113 L 94 127 L 85 142 L 112 143 L 114 139"/>
<path d="M 112 95 L 172 115 L 215 118 L 229 111 L 248 96 L 254 85 L 255 73 L 248 63 L 235 58 L 211 58 L 205 62 L 207 70 L 221 74 L 222 60 L 216 60 L 214 64"/>
</g>
</svg>
