<svg width="256" height="256" xmlns="http://www.w3.org/2000/svg">
<g stroke="black" fill="transparent" stroke-width="4">
<path d="M 128 77 L 100 86 L 95 96 L 101 104 L 154 103 L 244 110 L 255 108 L 253 103 L 243 97 L 204 87 L 159 80 L 130 79"/>
<path d="M 98 85 L 88 70 L 78 66 L 68 65 L 57 74"/>
<path d="M 54 88 L 63 74 L 67 73 L 72 79 L 75 93 L 73 103 L 64 112 L 54 103 L 51 93 L 51 82 L 53 83"/>
<path d="M 69 108 L 75 118 L 84 123 L 94 117 L 94 110"/>
<path d="M 53 111 L 4 164 L 0 170 L 5 172 L 28 147 L 67 116"/>
<path d="M 121 97 L 128 77"/>
<path d="M 135 98 L 136 95"/>
<path d="M 135 98 L 150 97 L 166 83"/>
<path d="M 170 95 L 172 93"/>
<path d="M 170 95 L 188 94 L 199 83"/>
<path d="M 209 105 L 212 104"/>
<path d="M 151 84 L 131 73 L 105 51 L 92 30 L 91 20 L 96 17 L 103 17 L 118 29 L 163 68 L 172 79"/>
<path d="M 160 77 L 208 14 L 232 0 L 235 11 L 230 27 L 197 62 L 181 85"/>
<path d="M 60 95 L 60 95"/>
<path d="M 56 91 L 58 92"/>
<path d="M 55 88 L 68 103"/>
</g>
</svg>
