<svg width="256" height="256" xmlns="http://www.w3.org/2000/svg">
<g stroke="black" fill="transparent" stroke-width="4">
<path d="M 105 106 L 59 74 L 50 60 L 51 49 L 60 29 L 82 8 L 116 0 L 134 0 L 149 7 L 168 45 L 173 72"/>
<path d="M 98 114 L 94 109 L 60 106 L 41 112 L 37 116 L 24 155 L 10 163 L 0 162 L 17 175 L 31 168 L 52 135 L 64 126 L 75 122 L 91 122"/>
<path d="M 86 126 L 85 156 L 101 177 L 104 187 L 101 200 L 132 163 L 132 154 L 102 133"/>
<path d="M 102 127 L 133 133 L 151 142 L 157 160 L 158 180 L 165 194 L 178 197 L 195 194 L 175 183 L 167 170 L 162 125 L 153 115 L 128 103"/>
<path d="M 173 73 L 175 84 L 193 94 L 211 96 L 238 110 L 240 139 L 255 157 L 249 161 L 241 161 L 226 154 L 218 133 L 209 119 L 182 102 L 148 102"/>
<path d="M 120 29 L 119 38 L 122 47 L 137 50 L 138 44 L 133 28"/>
<path d="M 94 54 L 94 54"/>
<path d="M 84 57 L 92 65 L 96 59"/>
<path d="M 108 77 L 129 75 L 143 66"/>
<path d="M 140 108 L 153 102 L 165 108 L 171 118 L 183 156 L 193 164 L 201 164 L 210 154"/>
</g>
</svg>
