<svg width="256" height="256" xmlns="http://www.w3.org/2000/svg">
<g stroke="black" fill="transparent" stroke-width="4">
<path d="M 110 31 L 67 51 L 14 124 L 7 149 L 14 166 L 30 79"/>
<path d="M 47 63 L 24 87 L 10 109 L 2 129 L 0 149 L 0 167 L 4 180 L 15 193 L 33 205 L 57 212 L 90 213 L 132 206 L 210 177 L 226 162 L 234 148 L 238 130 L 234 111 L 222 94 L 185 67 L 130 51 L 106 49 L 55 61 L 45 65 L 37 76"/>
<path d="M 25 116 L 7 85 L 5 60 L 19 33 L 36 11 L 56 1 L 68 0 L 75 0 L 88 10 L 97 24 L 102 61"/>
<path d="M 155 122 L 155 115 L 176 61 L 194 34 L 208 24 L 223 20 L 236 20 L 249 27 L 254 40 L 255 50 L 251 63 L 235 93 L 221 110"/>
<path d="M 66 126 L 66 126"/>
<path d="M 160 126 L 160 126"/>
<path d="M 65 126 L 65 142 L 69 143 L 78 138 L 80 133 L 71 130 L 67 133 L 75 131 L 88 123 L 92 117 L 86 114 L 66 131 L 64 140 L 71 140 L 81 135 L 84 129 L 81 125 L 73 123 L 66 126"/>
<path d="M 170 140 L 164 138 L 163 141 L 168 148 L 181 150 L 183 145 L 173 142 L 159 150 L 171 148 L 180 139 L 172 137 L 154 146 L 162 140 L 151 134 L 142 133"/>
</g>
</svg>
