<svg width="256" height="256" xmlns="http://www.w3.org/2000/svg">
<g stroke="black" fill="transparent" stroke-width="4">
<path d="M 102 58 L 107 60 L 132 54 L 141 56 L 144 61 L 146 92 L 126 95 L 97 87"/>
<path d="M 125 99 L 126 103 L 121 110 L 108 104 L 103 97"/>
<path d="M 121 46 L 118 27 L 102 5 L 86 1 L 71 12 L 66 25 L 65 43 L 65 117 L 69 133"/>
<path d="M 62 121 L 52 134 L 43 153 L 34 203 L 37 227 L 41 232 L 55 231 L 75 210 L 86 177 L 84 132 L 77 117 L 72 115 L 70 117"/>
<path d="M 115 118 L 122 160 L 119 190 L 107 209 L 82 215"/>
<path d="M 95 214 L 101 241"/>
<path d="M 99 240 L 98 246 L 94 251"/>
<path d="M 103 242 L 110 252"/>
<path d="M 112 247 L 121 255"/>
<path d="M 73 217 L 80 229 L 80 246"/>
<path d="M 76 239 L 73 244 L 75 245 L 79 242 L 83 246"/>
<path d="M 44 161 L 46 174 L 54 192 L 76 212"/>
<path d="M 25 200 L 26 203 L 23 207 L 1 224 L 13 222 L 0 241 L 2 245 L 8 245"/>
</g>
</svg>
