<svg width="256" height="256" xmlns="http://www.w3.org/2000/svg">
<g stroke="black" fill="transparent" stroke-width="4">
<path d="M 37 209 L 33 202 L 25 153 L 23 84 L 36 44 L 60 17 L 85 4 L 122 0 L 152 9 L 176 28 L 192 57 L 203 95 L 204 148 L 199 195 L 192 213 L 186 218 L 147 226 L 78 228 L 17 223"/>
<path d="M 82 225 L 77 199 L 78 147 L 88 126 L 99 117 L 110 112 L 121 112 L 128 117 L 143 149 L 149 185 L 145 220"/>
<path d="M 102 83 L 118 101 L 134 81 L 100 82"/>
<path d="M 75 50 L 75 50"/>
<path d="M 65 58 L 69 60 L 70 54"/>
<path d="M 166 53 L 158 54"/>
<path d="M 29 119 L 21 124 L 15 135 L 0 169 L 0 177 L 3 180 L 13 180 L 28 167 L 40 145 L 41 128 L 36 123 L 27 120"/>
<path d="M 179 136 L 176 137 L 176 141 L 196 176 L 211 183 L 221 183 L 223 180 L 222 168 L 203 131 L 194 119 L 185 115"/>
<path d="M 45 227 L 47 242 L 52 249 L 60 247 L 66 231 L 73 224 L 83 247 L 92 248 L 97 235 L 104 245 L 113 247 L 115 243 L 115 217"/>
<path d="M 159 230 L 166 246 L 170 247 L 172 235 L 195 255 L 195 244 L 188 229 L 197 239 L 213 244 L 213 236 L 193 204 L 193 201 L 196 204"/>
</g>
</svg>
