<svg width="256" height="256" xmlns="http://www.w3.org/2000/svg">
<g stroke="black" fill="transparent" stroke-width="4">
<path d="M 193 213 L 167 215 L 100 210 L 71 204 L 47 195 L 27 184 L 13 169 L 9 151 L 10 130 L 20 113 L 53 90 L 82 79 L 113 72 L 161 70 L 175 72 L 227 94 L 242 108 L 253 130 L 255 147 L 250 164 L 238 182 L 228 190 L 199 202 L 182 205"/>
<path d="M 71 197 L 65 187 L 66 173 L 74 158 L 89 143 L 127 128 L 162 127 L 177 135 L 182 141 L 192 163 L 193 176 L 187 187 L 170 198 L 148 206 L 132 208"/>
<path d="M 87 194 L 83 189 L 86 164 L 95 152 L 103 150 L 108 153 L 111 162 L 112 186 L 108 197 L 100 208 L 97 206 L 96 171"/>
<path d="M 134 173 L 130 171 L 129 154 L 135 144 L 139 142 L 142 151 L 142 188 L 137 199 L 129 204 L 122 204 L 124 181"/>
<path d="M 15 94 L 8 72 L 0 24 L 0 14 L 5 10 L 17 8 L 28 16 L 45 38 L 59 68"/>
<path d="M 168 57 L 166 50 L 169 42 L 185 19 L 203 4 L 220 0 L 225 10 L 225 29 L 209 86"/>
<path d="M 58 125 L 54 120 L 55 112 L 69 99 L 75 99 L 72 112 L 60 123"/>
<path d="M 181 101 L 175 92 L 177 88 L 185 83 L 194 84 L 197 90 L 197 94 L 188 100"/>
</g>
</svg>
