<svg width="256" height="256" xmlns="http://www.w3.org/2000/svg">
<g stroke="black" fill="transparent" stroke-width="4">
<path d="M 109 27 L 85 23 L 65 32 L 27 66 L 9 88 L 1 117 L 1 139 L 13 158 L 28 171 L 52 182 L 95 179 L 121 165 L 131 152 L 152 101 L 152 63 L 144 47 L 136 37 L 124 29 L 104 22"/>
<path d="M 33 59 L 23 54 L 18 41 L 15 24 L 17 6 L 29 6 L 36 11 L 44 43"/>
<path d="M 112 22 L 134 5 L 149 1 L 161 1 L 164 26 L 152 35 L 138 40"/>
<path d="M 41 78 L 57 85 L 65 75"/>
<path d="M 112 73 L 131 83 L 134 74 L 131 65"/>
<path d="M 61 138 L 68 149 L 77 150 L 90 142 L 102 125"/>
<path d="M 91 140 L 100 148 L 103 146 L 107 141 L 96 135"/>
<path d="M 204 82 L 213 77 L 231 77 L 241 79 L 244 84 L 243 129 L 225 186 L 219 165 L 207 90 L 208 72"/>
<path d="M 66 151 L 60 154 L 57 153 L 56 147 L 62 143"/>
<path d="M 213 70 L 196 48"/>
<path d="M 219 72 L 226 45"/>
<path d="M 231 70 L 236 63 L 255 48"/>
</g>
</svg>
