<svg width="256" height="256" xmlns="http://www.w3.org/2000/svg">
<g stroke="black" fill="transparent" stroke-width="4">
<path d="M 38 59 L 34 51 L 11 71 L 13 84 L 20 88 L 30 89 L 55 81 L 63 74 L 66 65 L 60 55 L 52 50"/>
<path d="M 19 69 L 1 45 L 0 29 L 4 25 L 9 27 L 20 37 L 35 61"/>
<path d="M 43 50 L 50 27 L 59 21 L 62 27 L 59 55 L 61 60"/>
<path d="M 11 74 L 25 70"/>
<path d="M 15 82 L 24 77"/>
<path d="M 18 88 L 29 81"/>
<path d="M 48 68 L 62 60"/>
<path d="M 53 73 L 60 70"/>
<path d="M 53 78 L 61 72"/>
<path d="M 29 70 L 29 70"/>
<path d="M 41 68 L 41 68"/>
<path d="M 32 71 L 35 72 L 36 68 L 35 72"/>
<path d="M 40 68 L 40 71 L 42 68"/>
<path d="M 39 76 L 41 79 L 42 74"/>
<path d="M 46 85 L 81 58 L 104 50 L 132 56 L 144 64 L 154 76 L 155 92 L 144 111 L 132 118 L 100 119 L 68 118 L 48 111 L 37 96 L 38 87 L 42 78"/>
<path d="M 56 121 L 45 123 L 47 133 L 51 137 L 56 136 L 61 125 L 58 117"/>
<path d="M 94 121 L 92 127 L 97 134 L 108 131 L 105 116 L 100 114"/>
<path d="M 131 120 L 132 128 L 137 132 L 144 131 L 148 125 L 145 115 L 140 111 L 134 112"/>
<path d="M 149 102 L 155 110 L 166 110 L 173 104 L 167 98 L 152 94 L 144 100"/>
<path d="M 144 72 L 162 75 L 185 71 L 205 46 L 220 8 L 232 0 L 245 5 L 252 20 L 255 40 L 248 67 L 234 87 L 218 97 L 196 101 L 170 94 L 160 84"/>
<path d="M 173 76 L 178 93 L 183 98"/>
<path d="M 183 66 L 204 90 L 209 93 L 212 92"/>
<path d="M 195 64 L 229 72"/>
<path d="M 204 45 L 250 48 L 255 47 L 255 44"/>
<path d="M 212 21 L 230 19"/>
</g>
</svg>
