<svg width="256" height="256" xmlns="http://www.w3.org/2000/svg">
<g stroke="black" fill="transparent" stroke-width="4">
<path d="M 61 86 L 60 71 L 68 47 L 84 9 L 92 0 L 106 43 L 113 83 L 60 85"/>
<path d="M 30 54 L 34 68 L 47 87 L 38 83 L 23 57"/>
<path d="M 35 85 L 66 78 L 95 78 L 165 80 L 181 85 L 192 99 L 194 108 L 172 123 L 136 132 L 87 130 L 47 118 L 22 106 L 17 100 L 16 93 L 28 90 L 67 91"/>
<path d="M 84 95 L 88 104 L 84 105 L 81 101 L 84 97 L 87 105 L 79 106 L 77 101 L 76 98 L 83 94 L 88 96 L 88 101 L 83 106 L 81 102 L 82 99 L 85 101"/>
<path d="M 53 122 L 46 156 L 45 183 L 48 189 L 64 200 L 105 202 L 153 194 L 175 184 L 186 178 L 208 154 L 210 135 L 196 116 L 185 115"/>
<path d="M 48 191 L 49 232 L 71 227 L 77 200"/>
<path d="M 102 199 L 100 229 L 124 232 L 132 201"/>
<path d="M 154 195 L 154 224 L 160 224 L 181 217 L 178 193"/>
<path d="M 188 177 L 192 210 L 207 202 L 224 200 L 205 165"/>
<path d="M 205 138 L 229 136 L 240 149 L 241 156"/>
<path d="M 249 147 L 255 155 L 249 152 L 248 164 L 240 158 L 233 161 L 229 156 L 238 148 L 244 147"/>
<path d="M 71 114 L 79 122 L 88 125 L 94 125 L 111 116"/>
<path d="M 105 99 L 113 95 L 111 108 L 107 103 L 107 98 L 122 99 L 122 104 L 106 103 L 107 98 L 115 96 L 114 100 L 106 103 L 112 97"/>
<path d="M 0 105 L 0 105"/>
</g>
</svg>
