<svg width="256" height="256" xmlns="http://www.w3.org/2000/svg">
<g stroke="black" fill="transparent" stroke-width="4">
<path d="M 136 115 L 105 114 L 82 125 L 74 137 L 70 153 L 70 176 L 75 184 L 93 190 L 120 188 L 152 170 L 161 159 L 165 141"/>
<path d="M 132 109 L 149 101 L 162 84 L 170 62 L 169 47 L 156 28 L 143 22 L 121 21 L 99 37 L 99 31 L 116 11 L 125 3 L 137 0 L 149 2 L 178 22 L 194 41 L 196 76 L 187 120 L 172 141"/>
<path d="M 123 189 L 127 191 L 130 202 L 128 221 L 121 228 L 97 237 L 92 242 L 91 249 L 103 249 L 113 241 L 116 253 L 127 255 L 129 231"/>
<path d="M 74 138 L 48 140 L 37 145 L 28 153 L 21 166 L 23 188 L 26 194 L 34 195 L 37 186 L 36 173"/>
<path d="M 19 168 L 8 171 L 0 182 L 1 187 L 16 187"/>
<path d="M 87 151 L 86 159 L 90 158 L 92 153"/>
<path d="M 114 164 L 109 165 L 109 169 L 113 172 L 115 164"/>
<path d="M 87 172 L 87 172"/>
</g>
</svg>
