<svg width="256" height="256" xmlns="http://www.w3.org/2000/svg">
<g stroke="black" fill="transparent" stroke-width="4">
<path d="M 71 97 L 69 94 L 77 81 L 112 55 L 142 42 L 175 41 L 203 51 L 221 67 L 235 94 L 238 120 L 228 150 L 212 169 L 189 181 L 154 185 L 104 168 L 73 148 L 61 129 L 62 115 L 69 103"/>
<path d="M 63 114 L 38 110 L 21 114 L 6 122 L 0 131 L 2 142 L 17 150 L 27 150 L 58 142"/>
<path d="M 118 169 L 106 206 L 110 217 L 117 220 L 134 210 L 142 188"/>
<path d="M 195 184 L 197 190 L 217 211 L 231 220 L 245 221 L 253 213 L 253 187 L 231 161"/>
<path d="M 108 68 L 91 60 L 77 42 L 77 23 L 87 9 L 102 6 L 111 12 L 120 26 L 130 53"/>
<path d="M 185 25 L 182 24 L 183 20 L 201 3 L 214 0 L 224 6 L 229 15 L 225 26 L 205 45"/>
</g>
</svg>
