<svg width="256" height="256" xmlns="http://www.w3.org/2000/svg">
<g stroke="black" fill="transparent" stroke-width="4">
<path d="M 0 78 L 19 96 L 45 112 L 94 134 L 128 142 L 172 141 L 231 124 L 248 112 L 252 106 L 255 82 L 252 73 L 242 66 L 205 57 L 189 56 L 162 67 L 121 91 L 49 140 L 18 157 L 10 75"/>
<path d="M 133 81 L 160 0 L 163 25 L 184 76"/>
<path d="M 246 112 L 234 97 L 215 120 L 214 108 L 210 104 L 193 135 L 187 136 L 173 118 L 167 140"/>
<path d="M 205 67 L 213 74 L 209 84 L 201 87 L 200 72 L 204 63"/>
</g>
</svg>
