<svg width="256" height="256" xmlns="http://www.w3.org/2000/svg">
<g stroke="black" fill="transparent" stroke-width="4">
<path d="M 137 51 L 160 17 L 160 10 L 155 7 L 134 0 L 104 3 L 87 9 L 83 16 L 87 20 L 88 15 L 84 9 L 71 3 L 24 26 L 23 33 L 25 35 L 46 44 L 25 69 L 18 88 L 20 105 L 35 113 L 56 110 L 71 99 L 81 109 L 109 116 L 121 112 L 131 97 L 136 104 L 146 107 L 171 84 L 173 78 L 169 70 L 142 64 L 165 50 L 169 43 L 163 35 L 137 25"/>
<path d="M 146 59 L 175 57 L 203 26 L 223 13 L 239 14 L 255 23 L 250 38 L 242 45 L 221 55 L 197 73 L 171 80 L 157 76 L 157 70"/>
<path d="M 218 27 L 216 34 L 225 34"/>
<path d="M 237 33 L 233 33 L 237 35"/>
<path d="M 225 37 L 225 38"/>
<path d="M 219 46 L 207 38"/>
<path d="M 223 9 L 214 0 L 212 5 L 214 13"/>
<path d="M 242 16 L 249 7 L 253 18"/>
<path d="M 62 104 L 55 138 L 53 140 L 51 138"/>
<path d="M 89 111 L 85 131 L 80 137"/>
<path d="M 129 103 L 124 115 L 127 136 L 129 134"/>
<path d="M 146 99 L 159 142"/>
<path d="M 16 55 L 0 45 L 10 64 L 20 73"/>
<path d="M 14 50 L 51 51"/>
</g>
</svg>
