<svg width="256" height="256" xmlns="http://www.w3.org/2000/svg">
<g stroke="black" fill="transparent" stroke-width="4">
<path d="M 78 194 L 69 191 L 64 183 L 51 149 L 41 131 L 32 121 L 10 110 L 3 101 L 0 79 L 8 59 L 24 51 L 37 51 L 51 57 L 66 74 L 82 108 L 81 84 L 90 67 L 101 58 L 127 52 L 153 51 L 182 56 L 193 63 L 208 80 L 218 115 L 215 145 L 207 157 L 193 167 L 214 161 L 235 141 L 243 140 L 252 149 L 255 162 L 252 172 L 244 183 L 222 198 L 181 201 L 79 189 L 65 182"/>
<path d="M 25 63 L 27 66 L 25 81 L 21 83 L 16 74 L 15 67 L 25 63"/>
<path d="M 33 46 L 35 43 L 33 27 L 22 11 L 9 0"/>
<path d="M 38 52 L 54 28 L 51 14"/>
<path d="M 31 47 L 32 55"/>
<path d="M 91 114 L 88 113 L 105 141 L 119 155 L 136 166 L 170 177 L 183 176 L 195 169"/>
<path d="M 108 83 L 113 78 L 137 75 L 167 80 L 184 96 L 188 104 L 196 129 L 196 157"/>
<path d="M 109 80 L 99 92 L 92 109"/>
<path d="M 109 121 L 115 112 L 135 98 L 152 101 L 164 111 L 175 136 L 177 154 L 166 185"/>
</g>
</svg>
