<svg width="256" height="256" xmlns="http://www.w3.org/2000/svg">
<g stroke="black" fill="transparent" stroke-width="4">
<path d="M 129 1 L 120 4 L 97 26 L 93 43 L 97 50 L 108 57 L 118 58 L 133 56 L 141 50 L 148 32 L 149 17 L 141 6 L 131 4"/>
<path d="M 114 32 L 113 28"/>
<path d="M 137 32 L 136 30 L 139 28"/>
<path d="M 104 46 L 115 45 L 126 49 L 133 47"/>
<path d="M 88 27 L 83 29 L 66 50 L 37 75"/>
<path d="M 82 32 L 84 29 L 96 28"/>
<path d="M 146 30 L 187 73 L 197 89 L 218 92"/>
<path d="M 154 18 L 161 33 L 185 40 L 206 60 L 249 60"/>
<path d="M 100 16 L 85 10 L 70 11 L 40 26 L 31 38 L 35 53 L 18 74 L 12 79 L 12 76"/>
<path d="M 111 5 L 86 0 L 43 1 L 33 4 L 21 12 L 7 29 L 1 47 L 0 61"/>
<path d="M 146 16 L 154 12 L 178 15 L 201 39 L 230 39 L 255 32"/>
</g>
</svg>
