<svg width="256" height="256" xmlns="http://www.w3.org/2000/svg">
<g stroke="black" fill="transparent" stroke-width="4">
<path d="M 104 99 L 102 56 L 96 34 L 88 22 L 74 19 L 57 27 L 41 40 L 33 55 L 29 84 L 33 94 L 40 100 L 56 105 L 66 101 L 70 92 L 70 76"/>
<path d="M 71 84 L 74 98 L 72 133 L 69 123 L 64 118 L 54 117 L 49 125 L 68 141 L 78 155"/>
<path d="M 77 155 L 79 165 L 67 196 L 65 212 L 73 232 L 87 237"/>
<path d="M 85 236 L 62 234 L 48 237 L 56 249 L 78 255 L 106 254 L 140 246 L 150 233 L 145 223 L 148 213 L 214 183 L 237 155 L 236 125 L 226 96 L 215 83 L 202 76 L 199 67 L 201 59 L 218 36 L 225 22 L 225 11 L 216 2 L 200 0 L 182 5 L 164 19 L 157 31 L 156 48 L 172 71 L 177 92 L 165 129 L 154 135 L 142 135 L 121 119 L 105 115 L 107 96"/>
<path d="M 56 53 L 54 55 L 57 53 L 55 50 L 54 55 L 56 53 L 55 50 L 53 55"/>
<path d="M 70 20 L 74 13 L 83 6 L 101 1 L 107 4 L 108 11 L 87 21"/>
<path d="M 43 116 L 10 114 L 0 121 L 1 131 L 8 135 L 22 136 L 54 124 L 47 120"/>
<path d="M 20 110 L 21 99 L 25 93 L 31 104 L 28 114"/>
<path d="M 12 136 L 32 171 L 41 177 L 51 176 L 59 162 L 60 144 L 57 130 L 51 119"/>
</g>
</svg>
