<svg width="256" height="256" xmlns="http://www.w3.org/2000/svg">
<g stroke="black" fill="transparent" stroke-width="4">
<path d="M 29 3 L 28 41 L 28 23 L 32 8 L 36 3 L 45 0 L 61 1 L 79 9 L 88 18 L 93 31 L 93 49 L 87 61 L 59 92 L 40 123 L 41 127 L 76 134 L 97 133 L 134 110 L 158 71"/>
<path d="M 89 56 L 122 60 L 159 78"/>
<path d="M 31 43 L 42 29 L 49 29 L 56 33 L 63 47 L 37 76 L 25 103 L 27 130 L 40 132 L 46 125"/>
<path d="M 41 10 L 51 14"/>
<path d="M 81 68 L 75 69 L 61 82 L 59 95 L 67 102 L 83 104 L 107 94 L 154 90"/>
<path d="M 79 68 L 141 87"/>
<path d="M 0 134 L 54 138 L 79 135 L 128 135 L 175 158 L 205 158 L 239 145 L 255 134"/>
<path d="M 29 41 L 29 44"/>
</g>
</svg>
