<svg width="256" height="256" xmlns="http://www.w3.org/2000/svg">
<g stroke="black" fill="transparent" stroke-width="4">
<path d="M 45 88 L 31 83 L 20 61 L 23 29 L 41 11 L 66 7 L 74 8 L 87 16 L 93 30 L 98 66 L 127 59 L 158 60 L 161 50 L 160 24 L 167 12 L 174 7 L 195 0 L 214 2 L 223 14 L 227 37 L 227 61 L 215 76 L 221 104 L 221 144 L 209 168 L 187 197 L 167 210 L 148 215 L 110 216 L 81 207 L 61 194 L 55 186 L 43 146 L 38 85"/>
<path d="M 74 70 L 54 67 L 48 61 L 45 43 L 56 30 L 69 28 L 78 43 L 79 69 L 65 76"/>
<path d="M 172 55 L 172 44 L 177 34 L 186 27 L 200 25 L 206 30 L 206 49 L 190 60 L 184 60 L 180 56"/>
<path d="M 76 121 L 36 151 L 7 185 L 0 197"/>
<path d="M 94 145 L 55 181 L 25 222"/>
<path d="M 103 181 L 73 222 L 64 246"/>
<path d="M 183 121 L 188 118 L 221 119 L 255 128"/>
<path d="M 176 161 L 240 170"/>
<path d="M 176 184 L 203 201 L 244 221"/>
<path d="M 101 107 L 101 119 L 106 115 L 108 101 L 106 116"/>
<path d="M 149 94 L 144 99 L 141 114 L 145 116 L 152 114 L 152 102"/>
<path d="M 128 139 L 128 147 L 123 147 L 118 144 L 117 139 L 125 136 L 139 136 L 143 138 L 144 143 L 131 154 L 129 164 L 132 188 L 122 189 L 147 187 L 154 178"/>
<path d="M 109 57 L 112 74 L 119 85 L 127 81 L 130 65"/>
<path d="M 138 60 L 138 72 L 143 85 L 151 84 L 155 71"/>
<path d="M 49 108 L 72 107 L 69 122 L 61 129 L 76 133 L 77 144 L 73 152 L 59 163 L 77 164 L 77 175 L 67 193"/>
<path d="M 221 106 L 209 101 L 198 104 L 183 129 L 183 135 L 202 137 L 192 156 L 198 163 L 194 180 L 198 187 L 199 200 L 201 201"/>
</g>
</svg>
