<svg width="256" height="256" xmlns="http://www.w3.org/2000/svg">
<g stroke="black" fill="transparent" stroke-width="4">
<path d="M 181 195 L 189 195 L 207 175 L 218 170 L 219 173 L 203 204 L 227 206 L 231 217 L 221 229 L 209 233 L 174 222 L 161 221 L 122 234 L 31 236 L 20 231 L 14 224 L 5 200 L 1 163 L 0 124 L 14 97 L 26 89 L 38 86 L 64 85 L 106 104 L 129 119 L 155 143 L 177 173"/>
<path d="M 20 227 L 35 238 L 61 250 L 73 253 L 105 255 L 154 244 L 177 217"/>
<path d="M 27 132 L 27 135 L 32 134 L 33 128 L 28 127 L 26 130"/>
<path d="M 80 99 L 81 78 L 59 48 L 57 30 L 64 23 L 71 25 L 88 58 L 99 19 L 115 0 L 118 0 L 120 6 L 120 19 L 111 47 L 146 41 L 152 48 L 153 59 L 139 76 L 95 91 L 93 97"/>
</g>
</svg>
