<svg width="256" height="256" xmlns="http://www.w3.org/2000/svg">
<g stroke="black" fill="transparent" stroke-width="4">
<path d="M 16 93 L 5 86 L 2 79 L 2 72 L 11 56 L 42 30 L 62 21 L 83 18 L 89 25 L 90 40 L 87 51 L 74 70 L 57 83 L 40 91 L 16 94 L 12 91"/>
<path d="M 64 43 L 66 58"/>
<path d="M 25 49 L 26 58"/>
<path d="M 0 70 L 28 69 L 39 80 L 44 92"/>
<path d="M 10 78 L 17 90"/>
<path d="M 27 78 L 30 89"/>
<path d="M 87 49 L 87 41 L 104 10 L 105 24 L 98 46"/>
<path d="M 57 22 L 67 5 L 73 0 L 78 14 L 81 16"/>
<path d="M 95 42 L 89 45 L 106 48 L 240 58 L 252 65 L 254 77 L 233 93 L 190 97 L 155 97 L 121 93 L 71 80"/>
<path d="M 99 100 L 95 132"/>
<path d="M 141 95 L 141 106 L 130 148"/>
<path d="M 185 102 L 187 130 L 192 129"/>
<path d="M 227 90 L 233 99 L 239 132"/>
<path d="M 106 69 L 97 83 L 124 53 L 112 73"/>
<path d="M 146 89 L 146 81"/>
<path d="M 160 50 L 163 100 L 164 57 L 165 87 L 167 60 L 164 80"/>
<path d="M 136 90 L 161 68 L 137 95 L 141 87 L 170 55"/>
<path d="M 155 76 L 183 58"/>
<path d="M 215 62 L 217 73 L 225 86 L 224 62 L 233 90"/>
</g>
</svg>
